<svg xmlns="http://www.w3.org/2000/svg" viewBox="0 0 500 500"><g id="freepik--character-2--inject-64"><polygon points="210.89 327.38 206.22 321.45 218.72 309.08 223.38 315.01 210.89 327.38" style="fill:#ff8b7b"></polygon><polygon points="243.69 369.12 239.03 363.19 249.13 347.77 253.79 353.7 243.69 369.12" style="fill:#ff8b7b"></polygon><path d="M238.82,362l8.5,3.51a.66.66,0,0,1,.39.73L246.53,373a1.12,1.12,0,0,1-1.54.82c-2.71-1.18-4.64-2.16-8.08-3.59-2.12-.88-6.58-2.46-9.51-3.67s-2.11-4.26-.8-4c5.86,1.05,8.55.26,10.91-.57A1.85,1.85,0,0,1,238.82,362Z" style="fill:#263238"></path><path d="M206.82,320.46l7,4.3a.66.66,0,0,1,.28.77L211.9,332a1.1,1.1,0,0,1-1.63.58c-2.51-1.6-6.08-4-9.27-5.94-3.72-2.28-7.06-4-11.43-6.72-2.64-1.61-1.74-4.73-.49-4.3,5.71,2,9.89,4.38,15.88,4.36A3.49,3.49,0,0,1,206.82,320.46Z" style="fill:#263238"></path><path d="M366.4,220.08c-5.86.59-11.76,1.11-17.64,1.58l-17.9,1.46a15.42,15.42,0,0,1-6.45-1.1,19.84,19.84,0,0,1-5.05-3.07,32.07,32.07,0,0,1-6.59-7.89,56.39,56.39,0,0,1-4.22-8.54c-.57-1.46-1.08-2.93-1.56-4.4s-.89-2.93-1.26-4.53l5.38-1.77c1.21,2.48,2.55,5.09,4,7.49a57.8,57.8,0,0,0,4.68,6.86,25,25,0,0,0,5.36,5.21,9.66,9.66,0,0,0,2.67,1.31,5.69,5.69,0,0,0,2.29.17l4.16-.66c1.48-.24,3-.44,4.45-.65,3-.42,5.92-.81,8.89-1.15,5.93-.71,11.84-1.29,17.81-1.72Z" style="fill:#ff8b7b"></path><path d="M372.62,218.92c-5.49,4.69-25.79,5.41-25.79,5.41L346,207s10.87-3.09,20.33-2.43S378.64,213.78,372.62,218.92Z" style="fill:#E09F7D"></path><path d="M365.28,216.28c-5.51.51-13.79,4.34-16.39,7.94a106.56,106.56,0,0,0,15.38-2C366.61,219,368,216,365.28,216.28Z" style="opacity:0.2"></path><path d="M312.71,195.56l-2.39-7.89-7.74,5.74a7.26,7.26,0,0,0,6.69,5.4Z" style="fill:#ff8b7b"></path><polygon points="306.6 183.96 301.61 189.8 302.58 193.41 310.32 187.66 306.6 183.96" style="fill:#ff8b7b"></polygon><polygon points="218.72 309.08 212.28 315.46 216.94 321.39 223.38 315.01 218.72 309.08" style="opacity:0.2"></polygon><polygon points="253.79 353.71 249.13 347.78 243.66 356.13 249.35 360.5 253.79 353.71" style="opacity:0.2"></polygon><path d="M369.86,205.31s-8.25,14.29-47.14,40.39l24.94,31.73c21.76-11.45,37.65-25.29,59-46,0,0-6.63-7.64-11.89-11.62a147.49,147.49,0,0,0-14.17-9.66A75.64,75.64,0,0,0,369.86,205.31Z" style="fill:#E09F7D"></path><path d="M393.56,235.58s-5.27,6.84-6.43,14.07q3.45-3,7-6.34Z" style="opacity:0.2"></path><path d="M404.28,202.87c-4,3.95-10.6,11.69-9.48,16.91,0,0-4.4,3.78-12.87-2-9.32-6.36-1.3-7.66-1.3-7.66,5.91,2.25,8.35-1.61,9.88-5.76Z" style="fill:#ff8b7b"></path><path d="M398.66,203.48l-8.14.88a17.1,17.1,0,0,1-1.28,2.81c2.13,1.05,6.26.74,7.85-1.16A7.9,7.9,0,0,0,398.66,203.48Z" style="opacity:0.2"></path><path d="M410.05,173.45a7.84,7.84,0,0,0-.22-2.28c-4.61,3.74-12.29-.43-16,6.12s3.6,13.24,6.47,15.48a4.11,4.11,0,0,0,2.82,1c2.87,2.89,9-.74,10.08-5.76,1.23-5.83,8-1.83,11-8.56C418.9,179.59,415.4,173.65,410.05,173.45Z" style="fill:#263238"></path><path d="M408.74,194.71c-4,6.32-6,10.22-11.19,11.76-7.76,2.31-14.18-5.14-12.14-12.53,1.84-6.66,8.09-15.88,15.93-14.95A10.21,10.21,0,0,1,408.74,194.71Z" style="fill:#ff8b7b"></path><path d="M403.13,196.65c0-3.64.86-13.54,8.33-14.56s6.32,3.8,12.1,5.17c-3.37,2.2-7,4-9.45,8.93S403.08,202.88,403.13,196.65Z" style="fill:#263238"></path><path d="M398.41,175c3.18-1.76,13-2.56,18.47,2.65s-1.92,4.86-.29,10.57c-3.56-1.86-6.85-4.13-12.41-3.86S393,178,398.41,175Z" style="fill:#263238"></path><path d="M407.72,203.55a7.13,7.13,0,0,1-5.4.61c-2.39-.71-2.27-3.17-.5-4.73,1.6-1.41,4.76-2.74,6.63-1.19A3.2,3.2,0,0,1,407.72,203.55Z" style="fill:#ff8b7b"></path><path d="M322.72,245.7s-50.23,2.07-67.81,16.93c-18.29,15.45-43,49.52-43,49.52l7.89,10.05s27.51-28.27,46.34-42.34c20.52-15.35,57.44-1.09,73-13.3Z" style="fill:#263238"></path><path d="M318.5,267.33c-5.62-4.49-22.32-.94-30.09,5.15,9.56-.88,19.74-.2,28.85-.44C319.24,270.22,320,268.54,318.5,267.33Z" style="opacity:0.2"></path><path d="M331.57,257s-42.3,14.18-56.38,31.22c-15.41,18.66-32.09,63.68-32.09,63.68L253,360s17.85-35.89,34.45-52.67c18-18.22,45.31-18.19,60.17-29.87Z" style="fill:#263238"></path><polygon points="240.41 351.5 255.06 362.07 257.9 358.13 241.71 346.06 240.41 351.5" style="fill:#E09F7D"></polygon><polygon points="209.9 310.1 221.06 324.3 224.93 321.26 212.66 305.22 209.9 310.1" style="fill:#E09F7D"></polygon><path d="M397.81,191.06c-.29.54-.81.81-1.16.62s-.39-.78-.1-1.31.81-.81,1.16-.62S398.1,190.53,397.81,191.06Z" style="fill:#263238"></path><path d="M391.79,187.74c-.3.53-.82.81-1.16.62s-.4-.78-.1-1.31.81-.81,1.16-.62S392.08,187.21,391.79,187.74Z" style="fill:#263238"></path><path d="M393.56,189.06a21.87,21.87,0,0,1-5.06,3.16,3.48,3.48,0,0,0,2.28,1.88Z" style="fill:#ff5652"></path><path d="M392.77,196.94a6.1,6.1,0,0,1-1.25-.51.18.18,0,0,1,.17-.32,4.82,4.82,0,0,0,4.35.25.19.19,0,0,1,.25.07.19.19,0,0,1-.08.25A5,5,0,0,1,392.77,196.94Z" style="fill:#263238"></path><path d="M400.77,190.15a.33.33,0,0,1-.25-.29,2.86,2.86,0,0,0-1.43-2.15.36.36,0,0,1-.18-.47.37.37,0,0,1,.48-.18,3.55,3.55,0,0,1,1.83,2.7.35.35,0,0,1-.3.4A.26.26,0,0,1,400.77,190.15Z" style="fill:#263238"></path><path d="M390.37,184.25a.35.35,0,0,1-.2-.14.37.37,0,0,1,.09-.5,3.56,3.56,0,0,1,3.22-.52.37.37,0,0,1,.2.47.36.36,0,0,1-.46.2,2.8,2.8,0,0,0-2.55.44A.36.36,0,0,1,390.37,184.25Z" style="fill:#263238"></path><path d="M405.63,236.35c.13,1.54.21,2.89.24,4.32s.07,2.83.08,4.24c0,2.82-.13,5.65-.36,8.48s-.59,5.68-1.09,8.54l-.41,2.14-.5,2.15c-.16.71-.38,1.44-.58,2.15l-.31,1.08-.08.27-.15.44a9.8,9.8,0,0,1-.36.92,15.54,15.54,0,0,1-3.51,4.71,34.27,34.27,0,0,1-3.65,3,64.49,64.49,0,0,1-7.42,4.51,106.2,106.2,0,0,1-15.39,6.59l-2.36-5.15c4.5-2.79,9-5.72,13.28-8.73a74.75,74.75,0,0,0,6-4.69,25,25,0,0,0,2.42-2.41,6.43,6.43,0,0,0,1.21-1.85s0-.05,0,0,0,.06,0,0l0-.23.18-.89c.11-.6.25-1.19.33-1.81l.28-1.84.24-1.87q.4-3.76.56-7.64c.09-2.57.14-5.17.12-7.77,0-1.3,0-2.6-.06-3.89l-.14-3.8Z" style="fill:#ff8b7b"></path><path d="M406.06,230.69c5.44,4.74,2.22,26.27,2.22,26.27l-17.23.42a78.13,78.13,0,0,1,.14-19.25C392.71,228.44,399.9,225.31,406.06,230.69Z" style="fill:#E09F7D"></path><path d="M236,362.3a2.3,2.3,0,0,1-1.2-.91,1.09,1.09,0,0,1,0-1,.56.56,0,0,1,.48-.35c.93-.08,2.61,2.23,2.8,2.5a.19.19,0,0,1,0,.19.17.17,0,0,1-.18.09A9,9,0,0,1,236,362.3Zm-.44-1.87a.74.74,0,0,0-.23-.05c-.06,0-.12,0-.19.16a.74.74,0,0,0,0,.69,3.71,3.71,0,0,0,2.42,1.15A7.18,7.18,0,0,0,235.57,360.43Z" style="fill:#E09F7D"></path><path d="M237.9,362.8s-.06,0-.07-.06c-.56-.69-1.33-2.79-.86-3.51a.58.58,0,0,1,.71-.21,1,1,0,0,1,.61.5c.54,1-.13,3.08-.16,3.17a.2.2,0,0,1-.13.12Zm-.24-3.41-.08,0c-.22-.06-.28,0-.31.07-.28.42.14,1.94.63,2.78a4.33,4.33,0,0,0,.08-2.52A.62.62,0,0,0,237.66,359.39Z" style="fill:#E09F7D"></path><path d="M203.46,319.94a2.91,2.91,0,0,1-1.33-1.35,1,1,0,0,1,.17-.91.59.59,0,0,1,.5-.26c1,.05,2.84,2.94,3,3.27a.18.18,0,0,1,0,.21.17.17,0,0,1-.2.05A12.07,12.07,0,0,1,203.46,319.94Zm-.35-2a.71.71,0,0,0-.32-.12.25.25,0,0,0-.2.1.65.65,0,0,0-.11.61c.18.59,1.2,1.3,2.76,1.93A9.71,9.71,0,0,0,203.11,317.9Z" style="fill:#E09F7D"></path><path d="M205.59,320.94a.34.34,0,0,1-.06-.06c-.56-.82-1.25-3.15-.68-3.81.13-.15.38-.29.83-.08a1.32,1.32,0,0,1,.68.78c.41,1.18-.48,3-.52,3.09a.16.16,0,0,1-.15.1A.18.18,0,0,1,205.59,320.94Zm0-3.57-.1-.05c-.29-.14-.37-.05-.4,0-.34.39,0,2.12.54,3.08a4.13,4.13,0,0,0,.36-2.5A1,1,0,0,0,205.62,317.37Z" style="fill:#E09F7D"></path><path d="M371.74,284.37l-7.63-.69,3.21,9.09s6.63-.86,6.57-4.42Z" style="fill:#ff8b7b"></path><polygon points="356.96 287.64 359.99 294.95 367.32 292.76 364.11 283.68 356.96 287.64" style="fill:#ff8b7b"></polygon></g></svg>