<svg xmlns="http://www.w3.org/2000/svg" viewBox="0 0 500 500"><g id="freepik--character-1--inject-64"><path d="M213.24,91.69c5.9-8.3,12.26-4.59,21.34-11.59,6.57-5.07,13.46,3.28,19.76-.32s16.86-4.57,20.93,1,13.62,6.28,21.53,2.85c11-4.76,17.3-1.12,22.87,3.36,17.33,9.72,2.28,40-9.85,62.24-14.8,3.56-21-14.73-36.36-15.36-12.13-.5-17.33,11.36-25.31.93-7.54-9.87-5.42-14.7-19.4-13.43S205,103.32,213.24,91.69Z" style="fill:#263238"></path><path d="M232.05,136.63c.1.26.26.72.43,1.09l.5,1.21c.36.81.75,1.61,1.16,2.41a48.17,48.17,0,0,0,2.7,4.66,51.79,51.79,0,0,0,6.83,8.38l.42.43s0,0,0,.05a1,1,0,0,0,.38.17,5.43,5.43,0,0,0,1.87.14,24.25,24.25,0,0,0,5-1,52.42,52.42,0,0,0,5.27-1.84c1.75-.68,3.52-1.45,5.22-2.2l2,3.2a56.25,56.25,0,0,1-10.44,6.22,26.75,26.75,0,0,1-6.23,2,11.93,11.93,0,0,1-3.94.07,7.88,7.88,0,0,1-2.37-.77,7.08,7.08,0,0,1-1.18-.78l-.21-.18-.14-.12-.3-.26a46.11,46.11,0,0,1-4.48-4.36c-.72-.76-1.37-1.58-2-2.38s-1.28-1.65-1.86-2.52a47.88,47.88,0,0,1-3.28-5.35c-.48-.94-.93-1.89-1.36-2.86-.21-.49-.43-1-.61-1.49s-.37-1-.58-1.65Z" style="fill:#ce7a63"></path><path d="M234.72,142l-6.45,7.52a72.18,72.18,0,0,1,9.44,9.54l5.44-5.73A120.8,120.8,0,0,0,234.72,142Z" style="fill:#E09F7D"></path><path d="M225.82,129.24c6.77,1.77,11.41,13.81,11.6,14.27l-8.95,9.06S217.36,141.09,218,137.05C218.67,132.83,221.38,128.07,225.82,129.24Z" style="fill:#263238"></path><path d="M262.5,149.57l6.19-1.44-2.29,7.39s-5.23-.3-6.89-2.89l.65-1.24A3.56,3.56,0,0,1,262.5,149.57Z" style="fill:#ce7a63"></path><polygon points="274.94 150.58 272.21 155.75 266.39 155.52 268.69 148.13 274.94 150.58" style="fill:#ce7a63"></polygon><path d="M176.25,74.22l.92-7.93,6.18,4.65s-1.37,5.25-5.88,4.6Z" style="fill:#ce7a63"></path><polygon points="178.03 62.25 184.14 62.09 183.35 70.94 177.17 66.29 178.03 62.25" style="fill:#ce7a63"></polygon><polygon points="117.77 288.17 122.79 293.39 138.43 284.36 133.41 279.14 117.77 288.17" style="fill:#ce7a63"></polygon><polygon points="68.51 219.39 68.37 226.8 85.48 229.5 85.61 222.09 68.51 219.39" style="fill:#ce7a63"></polygon><path d="M70.15,227.24l2.51-7.94a.58.58,0,0,0-.31-.71l-6-2.89a1.18,1.18,0,0,0-1.61.73c-.83,2.78-1.09,4.17-2.19,7.66-.68,2.14-2.5,6.79-3.43,9.75s1.94,4,2.59,2.9c3-5.16,5.47-7.09,7.62-8.46A2,2,0,0,0,70.15,227.24Z" style="fill:#263238"></path><path d="M125.28,292.93l-3.11-8.22a.72.72,0,0,0-.74-.46l-7.18.67a1.08,1.08,0,0,0-.92,1.49c1.13,2.85,1.83,4.19,3.19,7.81.84,2.22,3.34,9.55,4.5,12.62s4.41,2.49,4.22,1.14c-.87-6-.95-11.39,0-13.72A1.85,1.85,0,0,0,125.28,292.93Z" style="fill:#263238"></path><polygon points="138.43 284.36 130.15 289.14 125.31 283.81 133.4 279.14 138.43 284.36" style="opacity:0.2"></polygon><polygon points="85.61 222.09 85.47 229.5 76.66 228.1 76.79 220.7 85.61 222.09" style="opacity:0.2"></polygon><path d="M231.81,133.65s2.13,3.07-29.06,34.14l-24.37-17.63c7.58-9.62,12-15.73,22-39.51a88.25,88.25,0,0,1,11.33,6.12,104.9,104.9,0,0,1,11.07,8C227.22,128.64,231.81,133.65,231.81,133.65Z" style="fill:#263238"></path><path d="M221.82,105.1c-1.88,4.07-5.9,11.09-10.11,11.67,0,0-1.64,4.31,5,9.1,7.28,5.26,6.09-1.1,6.09-1.1-3.29-3.82-1.05-6.69,1.64-9Z" style="fill:#ce7a63"></path><path d="M222.88,109.47l1.54,6.34a13,13,0,0,0-1.76,1.72c-1.36-1.32-2.66-4.33-1.68-6A8,8,0,0,1,222.88,109.47Z" style="opacity:0.2"></path><path d="M222.71,96.74c-2.69,6.84-4,9.68-2.2,14.66,2.67,7.48,11.66,9.28,16.33,3.38,4.21-5.31,7.9-15.6,2.62-21.28A10,10,0,0,0,222.71,96.74Z" style="fill:#ce7a63"></path><path d="M219.12,101.73c-.63,5.47,10.72-6.65,18.23-3,5.56,2.7,13.32,3.39,14.68-1.23S241,85.22,230.46,87.43C220.51,89.54,219.94,94.59,219.12,101.73Z" style="fill:#263238"></path><path d="M218.88,102.26a5.38,5.38,0,0,0,.27,4.09c.84,1.69,2.65,1.27,3.58-.26.84-1.37,1.41-3.9,0-5.08A2.42,2.42,0,0,0,218.88,102.26Z" style="fill:#ce7a63"></path><path d="M202.75,167.79s-7.37,65.65-21,83.66c-14.18,18.74-47.38,37.64-47.38,37.64L125.93,281s30.53-23.69,38.23-39.78c10.61-22.19,17.55-88.63,17.55-88.63Z" style="fill:#E09F7D"></path><polygon points="125.16 280.29 134.55 290.08 139.77 287.66 129.88 276.35 125.16 280.29" style="fill:#263238"></polygon><path d="M187.86,168.2c-.39,7.78-5.48,18-11.58,24.3,1-6.13,1.89-12.08,2.63-17.43C182,172.08,185.08,169.5,187.86,168.2Z" style="opacity:0.2"></path><path d="M196.31,163.13S166.84,199,146.44,219.57C130,236.21,78.91,230.13,78.91,230.13L79.57,220s37.92.17,49.21-11.07c36.16-36,33.92-53.49,49.6-58.72Z" style="fill:#E09F7D"></path><polygon points="79.44 218.26 78.53 232.29 85.05 234.56 85.74 218.72 79.44 218.26" style="fill:#263238"></polygon><path d="M179.05,148.47l-2.68,1.38c-.21.11-.13.43.15.63L202.08,169c.22.16.48.18.59.05l1.8-2c.12-.14,0-.4-.21-.58l-24.68-17.85A.55.55,0,0,0,179.05,148.47Z" style="fill:#E09F7D"></path><path d="M179.05,148.47l-2.68,1.38c-.21.11-.13.43.15.63L202.08,169c.22.16.48.18.59.05l1.8-2c.12-.14,0-.4-.21-.58l-24.68-17.85A.55.55,0,0,0,179.05,148.47Z" style="fill:#fff;opacity:0.4"></path><path d="M180.37,153.63l-.66-.48c-.14-.1-.19-.24-.12-.31l2.36-2.61c.07-.08.23-.07.37,0l.66.48c.13.09.18.23.11.31l-2.36,2.61C180.66,153.74,180.5,153.72,180.37,153.63Z" style="fill:#E09F7D"></path><path d="M200.05,167.86l-.66-.48c-.13-.09-.18-.23-.11-.31l2.36-2.61c.06-.07.23-.06.36,0l.66.47c.13.1.18.24.12.32l-2.36,2.61A.31.31,0,0,1,200.05,167.86Z" style="fill:#E09F7D"></path><path d="M190.21,160.74l-.66-.47c-.13-.1-.19-.24-.12-.32l2.36-2.61a.31.31,0,0,1,.37,0l.66.48c.13.09.18.23.11.31l-2.36,2.61A.29.29,0,0,1,190.21,160.74Z" style="fill:#E09F7D"></path><path d="M231.93,103.29c-.25.54-.17,1.12.19,1.28s.84-.14,1.1-.68.17-1.12-.19-1.28S232.19,102.75,231.93,103.29Z" style="fill:#263238"></path><path d="M238.06,106.14c-.26.54-.17,1.11.18,1.28s.85-.14,1.1-.68.17-1.12-.19-1.28S238.31,105.6,238.06,106.14Z" style="fill:#263238"></path><path d="M239,105.41l1.48.23S239.32,106.35,239,105.41Z" style="fill:#263238"></path><path d="M236,106.32a16,16,0,0,0,.33,4.35,2.55,2.55,0,0,1-2.1-.53Z" style="fill:#ba4d3c"></path><path d="M231.35,111.39a.17.17,0,0,0,.21-.09.18.18,0,0,0-.08-.24,4.74,4.74,0,0,1-2.72-3.3.17.17,0,0,0-.2-.15.18.18,0,0,0-.15.2,5,5,0,0,0,2.92,3.57Z" style="fill:#263238"></path><path d="M231.79,101a.31.31,0,0,0,.25,0,2.76,2.76,0,0,1,2.53.12.35.35,0,1,0,.39-.59,3.48,3.48,0,0,0-3.19-.17.35.35,0,0,0-.19.46A.36.36,0,0,0,231.79,101Z" style="fill:#263238"></path><path d="M242.19,104.63a.42.42,0,0,0,.16,0,.35.35,0,0,0,.29-.4,3.47,3.47,0,0,0-1.82-2.63.36.36,0,0,0-.47.17.36.36,0,0,0,.18.47,2.76,2.76,0,0,1,1.42,2.1A.35.35,0,0,0,242.19,104.63Z" style="fill:#263238"></path><path d="M194,116.29l-.85-.45-.73-.43c-.48-.28-.92-.59-1.38-.89-.89-.61-1.76-1.24-2.59-1.91a46.87,46.87,0,0,1-4.68-4.33,45,45,0,0,1-4.05-4.88c-.64-.84-1.19-1.74-1.77-2.62S176.89,99,176.36,98a24.14,24.14,0,0,1-2.7-13,34.51,34.51,0,0,1,1-6.3c.27-1,.6-2,1-3a25.47,25.47,0,0,1,1.27-2.95l3.46,1.44a37.33,37.33,0,0,0-.92,5.4,28.14,28.14,0,0,0-.11,5.42,20,20,0,0,0,2.92,9.6,52,52,0,0,0,6.86,8.44,47.13,47.13,0,0,0,4.07,3.56c.7.57,1.43,1.09,2.15,1.59.36.25.73.49,1.09.72l.54.33.44.27Z" style="fill:#ce7a63"></path><path d="M184.32,96.73l-6.93,4.34a57.81,57.81,0,0,0,11.45,13.4l6.1-7.78A78.07,78.07,0,0,1,184.32,96.73Z" style="fill:#E09F7D"></path><path d="M206.46,114.3c-.36-3.13-12.82-9.34-12.82-9.34L186.84,116s5.12,6.86,9.47,9.92C199.8,128.38,206.87,117.87,206.46,114.3Z" style="fill:#263238"></path><path d="M68.26,231a1,1,0,0,0,.63.31.6.6,0,0,0,.58-.18c.63-.71-.07-3.29-.16-3.58a.17.17,0,0,0-.14-.13.19.19,0,0,0-.18.09c-.5.84-1.29,2.39-.9,3.24A.92.92,0,0,0,68.26,231Zm.82-2.94c.25,1,.46,2.46.13,2.83a.26.26,0,0,1-.26.08.69.69,0,0,1-.54-.36C68.2,230.12,68.45,229.18,69.08,228Z" style="fill:#E09F7D"></path><path d="M70.16,229.64a1.75,1.75,0,0,0,.94.62.63.63,0,0,0,.65-.42.89.89,0,0,0,0-.78c-.44-1-2.47-1.63-2.55-1.66a.17.17,0,0,0-.17,0,.17.17,0,0,0-.06.16A5.17,5.17,0,0,0,70.16,229.64Zm1.06-.74a1.21,1.21,0,0,1,.21.31.6.6,0,0,1,0,.49c-.09.2-.2.22-.29.21-.51-.06-1.4-1.22-1.73-2.06A5.33,5.33,0,0,1,71.22,228.9Z" style="fill:#E09F7D"></path><path d="M125.29,297.09a3,3,0,0,0,1,1.46,1.13,1.13,0,0,0,1,.12.51.51,0,0,0,.37-.38c.22-.93-2.1-3.25-2.57-3.71a.19.19,0,0,0-.2,0,.17.17,0,0,0-.1.18A11.55,11.55,0,0,0,125.29,297.09Zm1.92.77a.67.67,0,0,1,.05.35.17.17,0,0,1-.13.12.73.73,0,0,1-.66-.08c-.55-.34-1-1.46-1.31-3A11.11,11.11,0,0,1,127.21,297.86Z" style="fill:#E09F7D"></path><path d="M124.74,294.77l0,.06c.73.78,2.93,2.09,3.67,1.69.16-.09.33-.29.22-.73-.42-1.7-3.65-1.28-3.79-1.26a.19.19,0,0,0-.14.12A.24.24,0,0,0,124.74,294.77Zm3.55,1a.56.56,0,0,1,0,.12c0,.18,0,.29-.05.33-.43.23-2.1-.62-3-1.37C126.1,294.79,127.92,294.78,128.29,295.76Z" style="fill:#E09F7D"></path><path d="M232.86,102.57l1.48.23S233.2,103.5,232.86,102.57Z" style="fill:#263238"></path></g></svg>