<svg xmlns="http://www.w3.org/2000/svg" viewBox="0 0 500 500"><g id="freepik--background-simple--inject-64"><path d="M87.35,207.19c-7.2-43.75,21.2-73.23,58.29-73.34,17.79,0,38,18.85,55.25,22.57,22.52,4.85,42.72-3.34,64.62-5.26,54.48-4.79,52.55,17.55,87.59,44.9,24.64,19.24,66.23,15.43,78.07,50.31,14.47,42.64-34.93,65.4-71.27,60.4-41.73-5.74-56.29,47.49-120.33,44.11C176.57,347.56,97.24,273.11,87.35,207.19Z" style="fill:#407BFF"></path><path d="M87.35,207.19c-7.2-43.75,21.2-73.23,58.29-73.34,17.79,0,38,18.85,55.25,22.57,22.52,4.85,42.72-3.34,64.62-5.26,54.48-4.79,52.55,17.55,87.59,44.9,24.64,19.24,66.23,15.43,78.07,50.31,14.47,42.64-34.93,65.4-71.27,60.4-41.73-5.74-56.29,47.49-120.33,44.11C176.57,347.56,97.24,273.11,87.35,207.19Z" style="fill:#fff;opacity:0.9"></path></g></svg>