<svg xmlns="http://www.w3.org/2000/svg" viewBox="0 0 500 500"><g id="freepik--background-simple--inject-208"><path d="M94.38,120C122.3,60.51,221.44,68.9,259.69,110.7s50.7,68.6,85.21,53,78.52-11.44,81,38.17S388,310.11,323.86,327.46s-64.17,78.76-149.1,66.37c-46.31-6.75-47.37-56.86-40.83-98.3S62,188.9,94.38,120Z" style="fill:#E09F7D"></path><path d="M94.38,120C122.3,60.51,221.44,68.9,259.69,110.7s50.7,68.6,85.21,53,78.52-11.44,81,38.17S388,310.11,323.86,327.46s-64.17,78.76-149.1,66.37c-46.31-6.75-47.37-56.86-40.83-98.3S62,188.9,94.38,120Z" style="fill:#fff;opacity:0.9"></path></g></svg>
