<svg xmlns="http://www.w3.org/2000/svg" viewBox="0 0 500 500"><g id="freepik--Sparkles--inject-117"><circle cx="155.54" cy="110.87" r="6.1" style="fill:#fafafa"></circle><circle cx="335.74" cy="376.92" r="6.1" style="fill:#fafafa"></circle><path d="M80.48,246.39A4.36,4.36,0,1,1,76.13,242,4.36,4.36,0,0,1,80.48,246.39Z" style="fill:#fafafa"></path><circle cx="363.74" cy="87.2" r="4.35" style="fill:#fafafa"></circle><path d="M128.28,167.31a3,3,0,1,1-3-3.05A3.06,3.06,0,0,1,128.28,167.31Z" style="fill:#fafafa"></path><path d="M317.76,366.35a3,3,0,1,1-3.05-3.05A3,3,0,0,1,317.76,366.35Z" style="fill:#fafafa"></path><path d="M175.06,113.92a3.05,3.05,0,1,1-3.05-3A3,3,0,0,1,175.06,113.92Z" style="fill:#fafafa"></path><path d="M362.07,349a3.05,3.05,0,1,1-3.05-3.05A3.06,3.06,0,0,1,362.07,349Z" style="fill:#fafafa"></path><path d="M106.81,246.39a3.05,3.05,0,1,1-3-3A3,3,0,0,1,106.81,246.39Z" style="fill:#fafafa"></path><path d="M387.4,118a3,3,0,1,1-3-3.05A3.06,3.06,0,0,1,387.4,118Z" style="fill:#fafafa"></path><polygon points="93.22 207.73 100.73 211.84 93.22 215.94 89.11 223.46 85 215.94 77.49 211.84 85 207.73 89.11 200.22 93.22 207.73" style="fill:#E09F7D"></polygon><polygon points="294.06 389.87 301.57 393.98 294.06 398.09 289.95 405.6 285.84 398.09 278.33 393.98 285.84 389.87 289.95 382.36 294.06 389.87" style="fill:#E09F7D"></polygon><polygon points="318.82 44.36 326.33 48.47 318.82 52.58 314.71 60.09 310.6 52.58 303.09 48.47 310.6 44.36 314.71 36.85 318.82 44.36" style="fill:#E09F7D"></polygon><polygon points="338.48 63.84 342.23 65.89 338.48 67.95 336.42 71.7 334.37 67.95 330.61 65.89 334.37 63.84 336.42 60.09 338.48 63.84" style="fill:#E09F7D"></polygon><polygon points="240.69 61.09 245.76 63.86 240.69 66.63 237.91 71.7 235.14 66.63 230.07 63.86 235.14 61.09 237.91 56.01 240.69 61.09" style="fill:#E09F7D"></polygon><polygon points="239.97 391.93 243.72 393.98 239.97 396.04 237.91 399.79 235.86 396.04 232.1 393.98 235.86 391.93 237.91 388.17 239.97 391.93" style="fill:#E09F7D"></polygon><polygon points="398.18 253.86 401.94 255.91 398.18 257.96 396.13 261.72 394.07 257.96 390.32 255.91 394.07 253.86 396.13 250.1 398.18 253.86" style="fill:#E09F7D"></polygon></g></svg>