<svg xmlns="http://www.w3.org/2000/svg" viewBox="0 0 500 500"><g id="freepik--Board--inject-948"><rect x="72.03" y="97.65" width="1" height="20.13" transform="translate(-5.15 3.65) rotate(-2.79)" style="fill:#090F24"></rect><rect x="73.09" y="124.55" width="1" height="9.89" transform="translate(-6.22 3.74) rotate(-2.79)" style="fill:#090F24"></rect><path d="M386.74,301.72H86.67A1.78,1.78,0,0,1,84.9,300L74.14,79a1.77,1.77,0,0,1,1.77-1.85H376a1.78,1.78,0,0,1,1.78,1.68l10.76,221.08A1.78,1.78,0,0,1,386.74,301.72Z" style="fill:#090F24"></path><path d="M88.35,296.4,77.94,82.58a1.78,1.78,0,0,1,1.77-1.86H372.52a1.77,1.77,0,0,1,1.77,1.69L384.7,296.23a1.77,1.77,0,0,1-1.77,1.86H90.12A1.78,1.78,0,0,1,88.35,296.4Z" style="fill:#fff;opacity:0.8"></path><path d="M161.9,286.14a.92.92,0,0,1-.91-.86L151.66,93.62a.91.91,0,1,1,1.81-.08l9.34,191.65a.91.91,0,0,1-.87.95Z" style="fill:#fff"></path><path d="M310.08,286.14a.92.92,0,0,1-.91-.86L299.84,93.62a.91.91,0,1,1,1.81-.08L311,285.19a.91.91,0,0,1-.87.95Z" style="fill:#fff"></path><path d="M236,286.14a.92.92,0,0,1-.91-.86L225.75,93.62a.91.91,0,1,1,1.81-.08l9.33,191.65a.9.9,0,0,1-.86.95Z" style="fill:#fff"></path><path d="M366.64,113.37H88.51a.91.91,0,1,1,0-1.81H366.64a.91.91,0,1,1,0,1.81Z" style="fill:#fff"></path><path d="M96.89,102.17a4.47,4.47,0,0,1,4,.34c1,.64,1.61,2,2.87,2.3,1.43.29,1.87-.88,2.88-1.55,1.28-.85,3.23-.47,4.66-.36q5.69.42,11.37,1c3.74.36,7.52,1,11.25.27,1.29-.25.74-2.22-.54-2-3.82.75-7.87-.07-11.7-.44s-7.69-.72-11.55-1a8.63,8.63,0,0,0-3.91.42,4.71,4.71,0,0,0-1.56,1.12c-.16.16-.32.49-.58.45s-.55-.63-.65-.75a6.54,6.54,0,0,0-7.13-1.81c-1.21.48-.69,2.45.54,2Z" style="fill:#fff"></path><path d="M164.41,105.17c1.52-1.14,3.81-2.66,5.06-.38.63,1.14,1.24,2.51,2.81,2.27s2.61-2.19,3.71-3.11c1.64-1.39,3.3-1.8,5.22-.68a13.35,13.35,0,0,0,5,2.23,9.19,9.19,0,0,0,5.06-.81,8.27,8.27,0,0,1,2.93-1,30.32,30.32,0,0,1,3.26.43,26.2,26.2,0,0,0,6.94-.66c1.29-.24.74-2.21-.55-2a21.51,21.51,0,0,1-7.54.43,9,9,0,0,0-2.79-.2,9.57,9.57,0,0,0-2.54.83c-2.09.91-4.11,1.35-6.3.38-1.7-.75-3-2.14-4.92-2.42a6.12,6.12,0,0,0-4.44,1.31,17.57,17.57,0,0,0-2,1.82,9.14,9.14,0,0,1-.89,1c-.5.37-.54.33-.84-.22-.73-1.37-1.43-2.49-3.07-2.82-1.95-.39-3.63.67-5.12,1.79-1,.78,0,2.55,1,1.76Z" style="fill:#fff"></path><path d="M241,104.61c1.19-.56,2.4-1.07,3.64-1.51a12.5,12.5,0,0,1,3.81-1c1.15,0,2.16.66,3.26.9a4,4,0,0,0,2.52-.26c.72-.33,1.46-1.14,2.24-1.27s1.64.9,2.41,1.25a4.52,4.52,0,0,0,2.47.29c.77-.09,1.9-.49,2.62,0s.87,1.36,1.59,1.79a2.13,2.13,0,0,0,2.06.08c.72-.35,1.11-1,1.71-1.52.88-.74,1.9-.33,2.91-.09a7.52,7.52,0,0,0,2.79.26c1.05-.14,2.27-.81,3.33-.6,1.76.35,2.67,2.21,4.63,1.25,1.18-.58.15-2.34-1-1.76-.5.24-1.95-1-2.43-1.24a4.44,4.44,0,0,0-2.7-.16,9.06,9.06,0,0,1-3.3.45,28,28,0,0,0-2.84-.58,3.55,3.55,0,0,0-2.38.66c-.39.29-1.23,1.58-1.74,1.47-.23,0-.6-.81-.74-1a3.24,3.24,0,0,0-.83-.78,3.72,3.72,0,0,0-2.31-.44,7.84,7.84,0,0,1-2.72.19c-.86-.25-1.43-1.09-2.29-1.39-1.94-.67-2.87.92-4.53,1.41-1.07.31-2.17-.45-3.18-.72a6.27,6.27,0,0,0-3.19,0,37.57,37.57,0,0,0-6.81,2.58c-1.18.56-.15,2.32,1,1.76Z" style="fill:#fff"></path><path d="M309.15,104.06l5.45-1.55c.86-.25,1.73-.55,2.6-.74a3.88,3.88,0,0,1,2.48.45,12.58,12.58,0,0,0,4.57.52c1.82,0,3.63,0,5.45-.07L352,102.4a1,1,0,0,0,0-2l-22.77.28c-1.79,0-3.58.06-5.37.07a13,13,0,0,1-2.64-.17c-.82-.18-1.51-.64-2.3-.86-1.49-.41-3.19.39-4.6.8l-5.68,1.62a1,1,0,0,0,.54,2Z" style="fill:#fff"></path><path d="M163.55,183.4,115.26,186a304.31,304.31,0,0,1-3.85-49.21L158.59,135A435.25,435.25,0,0,0,163.55,183.4Z" style="fill:#090F24;opacity:0.30000000000000004"></path><path d="M164.65,181.19l-48.29,2.6a357.64,357.64,0,0,1-5-48.42l48.29-2.61A435.66,435.66,0,0,0,164.65,181.19Z" style="fill:#090F24"></path><polygon points="224.37 201.15 175.82 198.22 175.82 150.1 224.37 153.03 224.37 201.15" style="fill:#090F24;opacity:0.30000000000000004"></polygon><polygon points="223.73 200.07 175.19 197.14 175.76 148.74 224.3 151.66 223.73 200.07" style="fill:#fff"></polygon><path d="M270.65,191.72l48.53-1.59c1.2-11.17-4.08-39.24-7-49.22l-47.07,3C269.14,161.61,270.87,178.27,270.65,191.72Z" style="fill:#090F24;opacity:0.30000000000000004"></path><path d="M271.48,190.13l47-2.42c1.2-11.16-1.91-29.45-5.42-48.39l-48.24,3.06C268.8,160.1,271.7,176.68,271.48,190.13Z" style="fill:#090F24"></path><path d="M137.56,266.11l49.54-5c-.13-11.3-5.94-37.54-9.38-47.37L131,219.26C136,236.78,136.18,252.66,137.56,266.11Z" style="fill:#090F24;opacity:0.30000000000000004"></path><path d="M138.73,265.42l47.76-5.19c.59-11.24-3.51-29.39-8-48.15l-47.88,5.69C134.46,235.33,138.21,252,138.73,265.42Z" style="fill:#090F24"></path><path d="M258,212.21l48.22,9c3.62-10.52,4.55-38.77,3.85-49L263,164.84C263.05,182.82,261.11,199.28,258,212.21Z" style="fill:#090F24;opacity:0.30000000000000004"></path><path d="M259.13,210.86l46.85,7.9c3.63-10.52,4.55-28.85,5.23-47.89l-48.27-7.56C263,181.29,262.28,197.93,259.13,210.86Z" style="fill:#fff"></path></g></svg>