<svg xmlns="http://www.w3.org/2000/svg" viewBox="0 0 500 500"><g id="freepik--Graphics--inject-2"><circle cx="116.98" cy="193.08" r="46.93" transform="translate(-92.34 277.62) rotate(-80.78)" style="fill:#E09F7D"></circle><circle cx="116.98" cy="193.08" r="46.93" transform="translate(-92.34 277.62) rotate(-80.78)" style="fill:#fafafa;opacity:0.7000000000000001"></circle><path d="M91.61,192.29q0-8.85,3.19-12.39t9.71-3.54a14.67,14.67,0,0,1,5.15.77,9.62,9.62,0,0,1,3.29,2,10.84,10.84,0,0,1,2,2.6,13.68,13.68,0,0,1,1.17,3.19,29.74,29.74,0,0,1,.87,7.25q0,8.44-2.86,12.37t-9.85,3.92a13.75,13.75,0,0,1-6.34-1.25,10.21,10.21,0,0,1-4-3.66,13.89,13.89,0,0,1-1.75-4.7A32.48,32.48,0,0,1,91.61,192.29Zm8.56,0q0,5.93,1,8.1a3.29,3.29,0,0,0,3,2.17,3.23,3.23,0,0,0,2.28-.92,5.79,5.79,0,0,0,1.42-2.91,30.92,30.92,0,0,0,.45-6.21q0-6.2-1-8.32a3.36,3.36,0,0,0-3.14-2.13,3.22,3.22,0,0,0-3.1,2.18Q100.17,186.44,100.17,192.32Z" style="fill:#fafafa"></path><path d="M140.11,176.36V208h-8.73v-20.7a26.46,26.46,0,0,1-4.1,2.61,31.78,31.78,0,0,1-5,1.9v-7.07a21.13,21.13,0,0,0,6.84-3.41,13.92,13.92,0,0,0,3.82-4.92Z" style="fill:#fafafa"></path><circle cx="210.84" cy="193.08" r="46.93" transform="translate(-25.52 353.92) rotate(-76.72)" style="fill:#E09F7D"></circle><circle cx="210.84" cy="193.08" r="46.93" transform="translate(-25.52 353.92) rotate(-76.72)" style="fill:#fafafa;opacity:0.7000000000000001"></circle><path d="M183.53,192.29q0-8.85,3.19-12.39t9.71-3.54a14.67,14.67,0,0,1,5.15.77,9.48,9.48,0,0,1,3.28,2,10.64,10.64,0,0,1,2,2.6,13.68,13.68,0,0,1,1.17,3.19,29.74,29.74,0,0,1,.87,7.25q0,8.44-2.86,12.37t-9.85,3.92a13.72,13.72,0,0,1-6.34-1.25,10.21,10.21,0,0,1-4-3.66,13.89,13.89,0,0,1-1.75-4.7A32.48,32.48,0,0,1,183.53,192.29Zm8.56,0q0,5.93,1,8.1a3.29,3.29,0,0,0,3,2.17,3.19,3.19,0,0,0,2.27-.92,5.63,5.63,0,0,0,1.42-2.91,30,30,0,0,0,.46-6.21q0-6.2-1.05-8.32a3.36,3.36,0,0,0-3.15-2.13,3.22,3.22,0,0,0-3.09,2.18C192.4,185.72,192.09,188.4,192.09,192.32Z" style="fill:#fafafa"></path><path d="M237.73,208h-25.9a16.2,16.2,0,0,1,2.71-7.21q2.25-3.37,8.46-8a24.78,24.78,0,0,0,4.85-4.28,4.76,4.76,0,0,0,1.06-2.77,3.24,3.24,0,0,0-1-2.43,4,4,0,0,0-5.34,0,6.44,6.44,0,0,0-1.41,3.67l-8.64-.7a13.67,13.67,0,0,1,1.87-5.69,8.64,8.64,0,0,1,3.82-3.14,17.41,17.41,0,0,1,6.83-1.09,19.33,19.33,0,0,1,7.09,1,8.52,8.52,0,0,1,4,3.19,8.39,8.39,0,0,1,1.45,4.82,9.84,9.84,0,0,1-1.66,5.42,22.58,22.58,0,0,1-6,5.68q-2.61,1.8-3.48,2.52t-2.07,1.89h13.48Z" style="fill:#fafafa"></path><circle cx="301.43" cy="165.8" r="46.93" transform="translate(-7.94 15.34) rotate(-2.88)" style="fill:#E09F7D"></circle><circle cx="301.43" cy="165.8" r="46.93" transform="translate(-7.94 15.34) rotate(-2.88)" style="fill:#fafafa;opacity:0.7000000000000001"></circle><path d="M277.47,174.82q-3.37-8.19-1.77-12.67t7.63-7a14.54,14.54,0,0,1,5.06-1.24,9.29,9.29,0,0,1,3.8.61,10.69,10.69,0,0,1,2.84,1.64,13.74,13.74,0,0,1,2.31,2.5,29.85,29.85,0,0,1,3.56,6.37q3.23,7.81,2.07,12.53T295.36,185a14,14,0,0,1-6.34,1.26,10.38,10.38,0,0,1-5.06-1.88,14,14,0,0,1-3.4-3.67A32.68,32.68,0,0,1,277.47,174.82Zm7.93-3.24c1.5,3.66,2.86,6,4.05,7.09a3.3,3.3,0,0,0,3.64.85,3.19,3.19,0,0,0,1.76-1.72,5.66,5.66,0,0,0,.2-3.23,30.05,30.05,0,0,0-1.94-5.92q-2.37-5.72-4.14-7.29a3.35,3.35,0,0,0-3.72-.76,3.21,3.21,0,0,0-2,3.18Q283.17,166.15,285.4,171.58Z" style="fill:#fafafa"></path><path d="M309.52,154.67l-8.1,1.75a10.28,10.28,0,0,1,1.34-7q1.89-3,6.78-5c3.75-1.55,6.75-2,9-1.26a7.11,7.11,0,0,1,4.68,4.24,6.26,6.26,0,0,1,.37,3.79,9.29,9.29,0,0,1-2,3.91,10,10,0,0,1,2.94-.09,6.66,6.66,0,0,1,3.18,1.41,7.49,7.49,0,0,1,2.21,3.11,10.36,10.36,0,0,1,.67,5.35,9.46,9.46,0,0,1-2.32,5.1,15.63,15.63,0,0,1-6,3.92,18.12,18.12,0,0,1-6.56,1.62,10,10,0,0,1-4.83-1.15,13.47,13.47,0,0,1-4.08-3.54l7.54-4.34a6.7,6.7,0,0,0,2.83,2.74,3.81,3.81,0,0,0,2.9-.11,3.74,3.74,0,0,0,2.19-2.28,4.82,4.82,0,0,0-.22-3.57,4.72,4.72,0,0,0-2.31-2.67,3.94,3.94,0,0,0-3.24,0,10.82,10.82,0,0,0-2.39,1.54l-1.94-5.87a9.23,9.23,0,0,0,1.08-.33,4,4,0,0,0,2.2-2.08,3.38,3.38,0,0,0,.07-2.8,3,3,0,0,0-1.64-1.77,3.13,3.13,0,0,0-2.48.1,3.42,3.42,0,0,0-1.94,1.8A5.59,5.59,0,0,0,309.52,154.67Z" style="fill:#fafafa"></path><circle cx="398.55" cy="193.08" r="46.93" transform="translate(119.07 536.62) rotate(-76.72)" style="fill:#E09F7D"></circle><circle cx="398.55" cy="193.08" r="46.93" transform="translate(119.07 536.62) rotate(-76.72)" style="fill:#fafafa;opacity:0.7000000000000001"></circle><path d="M370.34,192.29q0-8.85,3.19-12.39t9.71-3.54a14.67,14.67,0,0,1,5.15.77,9.48,9.48,0,0,1,3.28,2,10.64,10.64,0,0,1,2,2.6,13.68,13.68,0,0,1,1.17,3.19,29.74,29.74,0,0,1,.87,7.25q0,8.44-2.86,12.37T383,208.48a13.72,13.72,0,0,1-6.34-1.25,10.21,10.21,0,0,1-4-3.66,13.89,13.89,0,0,1-1.75-4.7A32.48,32.48,0,0,1,370.34,192.29Zm8.56,0q0,5.93,1.05,8.1a3.29,3.29,0,0,0,3,2.17,3.19,3.19,0,0,0,2.27-.92,5.63,5.63,0,0,0,1.42-2.91,30,30,0,0,0,.46-6.21q0-6.2-1.05-8.32a3.36,3.36,0,0,0-3.15-2.13,3.22,3.22,0,0,0-3.09,2.18Q378.91,186.44,378.9,192.32Z" style="fill:#fafafa"></path><path d="M414.11,202.15H398.39v-7.1l15.72-18.69h7.52v19.09h3.9v6.7h-3.9V208h-7.52Zm0-6.7v-9.77l-8.31,9.77Z" style="fill:#fafafa"></path><path d="M398.55,244.35a5,5,0,0,1,0-10,41.93,41.93,0,1,0-41.92-41.93,51.93,51.93,0,0,1-103.86,0h0a41.93,41.93,0,0,0-83.86,0A51.93,51.93,0,1,1,117,140.49a5,5,0,1,1,0,10,41.93,41.93,0,1,0,41.93,41.93,51.93,51.93,0,0,1,103.86,0h0a41.93,41.93,0,1,0,83.86,0,51.93,51.93,0,1,1,51.92,51.93Z" style="fill:#E09F7D"></path><path d="M347.77,227.27l-.77-.63a54.86,54.86,0,0,0,5.95-9.06l.89.47A56.67,56.67,0,0,1,347.77,227.27Z" style="fill:#E09F7D"></path><path d="M325.17,243.93l-.37-.93a54.34,54.34,0,0,0,17-10.79l.68.73A55.36,55.36,0,0,1,325.17,243.93Z" style="fill:#E09F7D"></path></g></svg>