<svg width="1440" height="1024" viewBox="0 0 1440 1024" fill="none" xmlns="http://www.w3.org/2000/svg">
<g clip-path="url(#clip0_189_40)">
<ellipse cx="904.068" cy="73.9239" rx="82.5" ry="92" fill="#012873"/>
<ellipse cx="889.068" cy="77.9239" rx="68.5" ry="56" fill="#012873"/>
<ellipse cx="806.568" cy="110.424" rx="56" ry="61.5" fill="#012873"/>
<ellipse cx="844.568" cy="179.924" rx="68" ry="67" fill="#012873"/>
<ellipse cx="818.568" cy="246.924" rx="71" ry="63" fill="#012873"/>
<ellipse cx="777.068" cy="309.924" rx="67.5" ry="59" fill="#012873"/>
<ellipse cx="794.068" cy="391.924" rx="84.5" ry="114" fill="#012873"/>
<ellipse cx="744.568" cy="392.424" rx="47" ry="48.5" fill="#012873"/>
<ellipse cx="794.568" cy="493.924" rx="68" ry="75" fill="#012873"/>
<path d="M620 498C660.721 537.324 681.969 590.985 675.639 597.541C669.309 604.096 631.166 577.531 590.445 538.207C549.724 498.883 566.5 504.5 503 460.5C463 430 555.268 487.206 620 498Z" fill="#012873"/>
<path d="M663.118 505.679C692.212 534.774 702.026 572.13 685.038 589.118C668.051 606.106 630.694 596.292 601.6 567.198C572.506 538.104 562.692 500.747 579.679 483.759C596.667 466.771 634.024 476.585 663.118 505.679Z" fill="#012873"/>
<ellipse cx="588.247" cy="590.541" rx="32" ry="105.5" transform="rotate(-23 588.247 590.541)" fill="#012873"/>
<ellipse cx="791.568" cy="591.924" rx="67" ry="74" fill="#012873"/>
<ellipse cx="683.5" cy="604.5" rx="73.5" ry="95.5" fill="#012873"/>
<ellipse cx="608.068" cy="590.924" rx="59.5" ry="51" fill="#012873"/>
<ellipse cx="644.068" cy="652.424" rx="61.5" ry="73.5" fill="#012873"/>
<ellipse cx="644.068" cy="756.924" rx="82.5" ry="91" fill="#012873"/>
<ellipse cx="549.068" cy="780.424" rx="39.5" ry="54.5" fill="#012873"/>
<ellipse cx="470.568" cy="834.924" rx="102" ry="91" fill="#012873"/>
<ellipse cx="387.068" cy="925.424" rx="96.5" ry="103.5" fill="#012873"/>
<ellipse cx="320.568" cy="1028.92" rx="89" ry="76" fill="#012873"/>
<ellipse cx="696.5" cy="597" rx="59.5" ry="51" fill="#EEF3FD"/>
<path d="M1031.79 -59.2721L1523.2 -54.9846L1533.06 1070.79L329.861 1060.29L460.608 807.971L715.842 760.69L573 507C674.699 550.969 737.602 557.974 839.302 601.942L800.035 376.662L890.302 69.1008L1031.79 -59.2721Z" fill="#EEF3FD"/>
<ellipse cx="357" cy="1047" rx="89" ry="76" fill="#EEF3FD"/>
<ellipse cx="423.5" cy="943.5" rx="96.5" ry="103.5" fill="#EEF3FD"/>
<ellipse cx="507" cy="853" rx="102" ry="91" fill="#EEF3FD"/>
<ellipse cx="585.5" cy="798.5" rx="39.5" ry="54.5" fill="#EEF3FD"/>
<ellipse cx="690.5" cy="799" rx="82.5" ry="91" fill="#EEF3FD"/>
<ellipse cx="680.5" cy="670.5" rx="61.5" ry="73.5" fill="#EEF3FD"/>
<ellipse cx="624.678" cy="608.617" rx="32" ry="105.5" transform="rotate(-23 624.678 608.617)" fill="#EEF3FD"/>
<path d="M602.223 500.065C681.723 516.065 734.425 637.176 727.75 644.088C721.075 651 587.115 620.616 576.223 565.065C561.223 488.565 561.723 500.065 523.223 469.065C528.723 469.065 569.723 493.524 602.223 500.065Z" fill="#EEF3FD"/>
<ellipse cx="637.5" cy="566.5" rx="43.5" ry="74.5" transform="rotate(-45 637.5 566.5)" fill="#EEF3FD"/>
<ellipse cx="710.5" cy="640.5" rx="73.5" ry="95.5" fill="#EEF3FD"/>
<ellipse cx="828" cy="610" rx="67" ry="74" fill="#EEF3FD"/>
<ellipse cx="831" cy="512" rx="68" ry="75" fill="#EEF3FD"/>
<ellipse cx="830.5" cy="410" rx="84.5" ry="114" fill="#EEF3FD"/>
<ellipse cx="795.5" cy="340" rx="67.5" ry="59" fill="#EEF3FD"/>
<path d="M926 265C926 299.794 894.212 328 855 328C815.788 328 784 299.794 784 265C784 230.206 815.788 202 855 202C894.212 202 926 230.206 926 265Z" fill="#EEF3FD"/>
<ellipse cx="781" cy="410.5" rx="47" ry="48.5" fill="#EEF3FD"/>
<ellipse cx="881" cy="198" rx="68" ry="67" fill="#EEF3FD"/>
<ellipse cx="843" cy="128.5" rx="56" ry="61.5" fill="#EEF3FD"/>
<ellipse cx="925.5" cy="96" rx="68.5" ry="56" fill="#EEF3FD"/>
<ellipse cx="957.5" cy="80" rx="82.5" ry="92" fill="#EEF3FD"/>
<path d="M476.69 442.199C476.69 442.273 476.671 442.422 476.68 442.562C476.708 442.591 476.781 442.536 476.838 442.48C476.894 442.424 476.931 442.368 477.025 442.199" stroke="#E0A07D" stroke-width="2" stroke-linecap="round"/>
<path d="M477.081 440.801C477.118 440.911 477.082 441.393 476.915 442.221C476.753 443.026 476.448 443.485 476.429 443.588C476.255 444.547 477.267 441.175 477.36 441.145C477.457 441.115 477.343 441.577 477.112 442.293C476.881 443.009 476.456 444.098 476.219 444.687C475.982 445.275 475.945 445.331 475.935 445.332C475.925 445.332 475.944 445.277 476.451 444.51C476.959 443.743 477.956 442.266 478.461 441.626C478.965 440.985 478.946 441.225 478.909 441.459C478.719 442.654 477.903 443.616 477.689 443.663C477.094 443.794 477.771 442.183 477.836 441.69C477.87 441.435 477.956 441.179 477.634 441.563C477.312 441.946 476.592 442.98 476.028 443.688C475.14 444.801 474.621 445.127 474.546 445.053C474.336 444.846 474.656 444.235 475.11 443.003C475.451 442.076 476.099 440.57 476.441 439.726C476.783 438.881 476.82 438.752 476.792 438.907C476.687 439.508 476.449 440.312 476.133 441.084C475.755 442.006 475.422 442.534 475.366 442.572C475.345 442.587 475.347 442.462 475.532 441.787C475.716 441.112 476.086 439.856 476.276 439.256C476.466 438.655 476.466 438.748 476.309 439.451C476.152 440.153 475.838 441.464 475.621 442.269C475.404 443.073 475.293 443.331 475.264 440.917C475.235 438.503 475.29 433.408 475.309 430.709C475.329 428.01 475.31 427.863 475.282 427.759C475.254 427.655 475.217 427.6 474.94 428.633C474.662 429.666 474.146 431.789 473.75 433.242C473.355 434.696 473.096 435.416 472.945 435.824C472.793 436.231 472.756 436.305 472.737 436.159C472.718 436.012 472.718 435.643 472.543 434.401C472.367 433.158 472.016 431.054 471.827 429.508C471.637 427.962 471.618 427.039 471.59 426.499C471.562 425.959 471.525 425.83 471.423 425.8C470.391 425.501 469.251 426.946 469.037 426.937C468.484 426.914 468.263 425.72 467.956 424.476C467.756 423.667 467.631 422.458 467.545 421.526C467.46 420.594 467.46 419.966 467.413 419.966C465.774 419.956 466.863 422.357 466.77 422.601C466.731 422.702 466.51 422.676 465.963 422.759C464.759 422.942 463.862 423.179 463.703 423.115C463.252 422.932 464.251 422.194 464.726 421.569C464.811 421.457 464.757 421.391 464.71 421.353C464.619 421.279 464.495 421.241 464.393 421.139C464.234 420.831 464.159 420.404 464.178 419.956C464.196 419.823 464.233 419.878 464.271 419.935" stroke="#090F25" stroke-width="2" stroke-linecap="round"/>
<rect x="466" y="420" width="11" height="8" fill="#090F25"/>
</g>
<defs>
<clipPath id="clip0_189_40">
<rect width="1440" height="1024" fill="white"/>
</clipPath>
</defs>
</svg>
