<svg width="1440" height="1024" viewBox="0 0 1440 1024" fill="none" xmlns="http://www.w3.org/2000/svg">
<path d="M476.69 442.199C476.69 442.273 476.671 442.422 476.68 442.562C476.708 442.591 476.781 442.536 476.838 442.48C476.894 442.424 476.931 442.368 477.025 442.199" stroke="#E0A07D" stroke-width="2" stroke-linecap="round"/>
<path d="M477.081 440.801C477.118 440.911 477.082 441.393 476.915 442.221C476.753 443.026 476.448 443.485 476.429 443.588C476.255 444.547 477.267 441.175 477.36 441.145C477.457 441.115 477.343 441.577 477.112 442.293C476.881 443.009 476.456 444.098 476.219 444.687C475.982 445.275 475.945 445.331 475.935 445.332C475.925 445.332 475.944 445.277 476.451 444.51C476.959 443.743 477.956 442.266 478.461 441.626C478.965 440.985 478.946 441.225 478.909 441.459C478.719 442.654 477.903 443.616 477.689 443.663C477.094 443.794 477.771 442.183 477.836 441.69C477.87 441.435 477.956 441.179 477.634 441.563C477.312 441.946 476.592 442.98 476.028 443.688C475.14 444.801 474.621 445.127 474.546 445.053C474.336 444.846 474.656 444.235 475.11 443.003C475.451 442.076 476.099 440.57 476.441 439.726C476.783 438.881 476.82 438.752 476.792 438.907C476.687 439.508 476.449 440.312 476.133 441.084C475.755 442.006 475.422 442.534 475.366 442.572C475.345 442.587 475.347 442.462 475.532 441.787C475.716 441.112 476.086 439.856 476.276 439.256C476.466 438.655 476.466 438.748 476.309 439.451C476.152 440.153 475.838 441.464 475.621 442.269C475.404 443.073 475.293 443.331 475.264 440.917C475.235 438.503 475.29 433.408 475.309 430.709C475.329 428.01 475.31 427.863 475.282 427.759C475.254 427.655 475.217 427.6 474.94 428.633C474.662 429.666 474.146 431.789 473.75 433.242C473.355 434.696 473.096 435.416 472.945 435.824C472.793 436.231 472.756 436.305 472.737 436.159C472.718 436.012 472.718 435.643 472.543 434.401C472.367 433.158 472.016 431.054 471.827 429.508C471.637 427.962 471.618 427.039 471.59 426.499C471.562 425.959 471.525 425.83 471.423 425.8C470.391 425.501 469.251 426.946 469.037 426.937C468.484 426.914 468.263 425.72 467.956 424.476C467.756 423.667 467.631 422.458 467.545 421.526C467.46 420.594 467.46 419.966 467.413 419.966C465.774 419.956 466.863 422.357 466.77 422.601C466.731 422.702 466.51 422.676 465.963 422.759C464.759 422.942 463.862 423.179 463.703 423.115C463.252 422.932 464.251 422.194 464.726 421.569C464.811 421.457 464.757 421.391 464.71 421.353C464.619 421.279 464.495 421.241 464.393 421.139C464.234 420.831 464.159 420.404 464.178 419.956C464.196 419.823 464.233 419.878 464.271 419.935" stroke="#090F25" stroke-width="2" stroke-linecap="round"/>
<rect x="466" y="420" width="11" height="8" fill="#090F25"/>
<path d="M477.993 437.738L460.942 382.815L514.377 393.202L477.993 437.738Z" fill="#E0A07D"/>
<g filter="url(#filter0_i_189_40)">
<ellipse cx="409.203" cy="386.568" rx="87.0028" ry="38.7105" transform="rotate(36 409.203 386.568)" fill="#EEF3FD"/>
</g>
<g filter="url(#filter1_i_189_40)">
<path d="M434.987 487.1L415.875 431.777L473.432 442.965L434.987 487.1Z" fill="#E0A07D"/>
</g>
<g filter="url(#filter2_i_189_40)">
<path d="M334.46 329.791L353.624 327.108L359.756 326.341L365.122 326.724L368.955 327.108L371.638 327.491L373.554 327.874L377.387 328.641L383.136 330.174L385.819 330.94L388.118 331.707L390.035 332.474L349.025 381.532L344.425 374.25L342.126 370.417L338.676 363.519L336.76 357.77L335.993 354.703L335.61 352.404L335.227 349.338L335.227 346.271L335.227 343.972L334.46 329.791Z" fill="#E0A07D"/>
</g>
<g filter="url(#filter3_d_189_40)">
<path d="M414.646 382.892C427.25 391.077 441.207 391.956 445.818 384.855C450.43 377.754 443.95 365.362 431.346 357.177C418.741 348.991 404.785 348.112 400.174 355.213C395.562 362.314 402.042 374.706 414.646 382.892Z" fill="#D9D9D9"/>
<path d="M414.646 382.892C427.25 391.077 441.207 391.956 445.818 384.855C450.43 377.754 443.95 365.362 431.346 357.177C418.741 348.991 404.785 348.112 400.174 355.213C395.562 362.314 402.042 374.706 414.646 382.892Z" stroke="#E0A07D" stroke-width="13"/>
</g>
<path d="M403.449 352.02L414.181 349.721L423.763 353.17L432.578 357.386L439.86 364.285L445.992 373.484L447.364 379.687" stroke="url(#paint0_linear_189_40)" stroke-width="15"/>
<defs>
<filter id="filter0_i_189_40" x="335.21" y="311.493" width="147.986" height="135.05" filterUnits="userSpaceOnUse" color-interpolation-filters="sRGB">
<feFlood flood-opacity="0" result="BackgroundImageFix"/>
<feBlend mode="normal" in="SourceGraphic" in2="BackgroundImageFix" result="shape"/>
<feColorMatrix in="SourceAlpha" type="matrix" values="0 0 0 0 0 0 0 0 0 0 0 0 0 0 0 0 0 0 127 0" result="hardAlpha"/>
<feMorphology radius="2" operator="erode" in="SourceAlpha" result="effect1_innerShadow_189_40"/>
<feOffset dy="-21"/>
<feGaussianBlur stdDeviation="6.55"/>
<feComposite in2="hardAlpha" operator="arithmetic" k2="-1" k3="1"/>
<feColorMatrix type="matrix" values="0 0 0 0 0 0 0 0 0 0 0 0 0 0 0 0 0 0 0.25 0"/>
<feBlend mode="normal" in2="shape" result="effect1_innerShadow_189_40"/>
</filter>
<filter id="filter1_i_189_40" x="415.875" y="431.777" width="57.5568" height="55.3234" filterUnits="userSpaceOnUse" color-interpolation-filters="sRGB">
<feFlood flood-opacity="0" result="BackgroundImageFix"/>
<feBlend mode="normal" in="SourceGraphic" in2="BackgroundImageFix" result="shape"/>
<feColorMatrix in="SourceAlpha" type="matrix" values="0 0 0 0 0 0 0 0 0 0 0 0 0 0 0 0 0 0 127 0" result="hardAlpha"/>
<feOffset dy="82"/>
<feGaussianBlur stdDeviation="3.4"/>
<feComposite in2="hardAlpha" operator="arithmetic" k2="-1" k3="1"/>
<feColorMatrix type="matrix" values="0 0 0 0 0 0 0 0 0 0 0 0 0 0 0 0 0 0 0.25 0"/>
<feBlend mode="normal" in2="shape" result="effect1_innerShadow_189_40"/>
</filter>
<filter id="filter2_i_189_40" x="334.46" y="318.441" width="63.4745" height="63.0912" filterUnits="userSpaceOnUse" color-interpolation-filters="sRGB">
<feFlood flood-opacity="0" result="BackgroundImageFix"/>
<feBlend mode="normal" in="SourceGraphic" in2="BackgroundImageFix" result="shape"/>
<feColorMatrix in="SourceAlpha" type="matrix" values="0 0 0 0 0 0 0 0 0 0 0 0 0 0 0 0 0 0 127 0" result="hardAlpha"/>
<feOffset dx="13" dy="-17"/>
<feGaussianBlur stdDeviation="3.95"/>
<feComposite in2="hardAlpha" operator="arithmetic" k2="-1" k3="1"/>
<feColorMatrix type="matrix" values="0 0 0 0 0 0 0 0 0 0 0 0 0 0 0 0 0 0 0.25 0"/>
<feBlend mode="normal" in2="shape" result="effect1_innerShadow_189_40"/>
</filter>
<filter id="filter3_d_189_40" x="384.183" y="341.915" width="69.6256" height="60.2378" filterUnits="userSpaceOnUse" color-interpolation-filters="sRGB">
<feFlood flood-opacity="0" result="BackgroundImageFix"/>
<feColorMatrix in="SourceAlpha" type="matrix" values="0 0 0 0 0 0 0 0 0 0 0 0 0 0 0 0 0 0 127 0" result="hardAlpha"/>
<feOffset dx="-4" dy="2"/>
<feGaussianBlur stdDeviation="2"/>
<feComposite in2="hardAlpha" operator="out"/>
<feColorMatrix type="matrix" values="0 0 0 0 0 0 0 0 0 0 0 0 0 0 0 0 0 0 0.25 0"/>
<feBlend mode="normal" in2="BackgroundImageFix" result="effect1_dropShadow_189_40"/>
<feBlend mode="normal" in="SourceGraphic" in2="effect1_dropShadow_189_40" result="shape"/>
</filter>
<linearGradient id="paint0_linear_189_40" x1="407.077" y1="346.922" x2="449.301" y2="376.966" gradientUnits="userSpaceOnUse">
<stop stop-color="#E0A07D"/>
<stop offset="0.548077" stop-color="#916851"/>
<stop offset="1" stop-color="#E0A07D"/>
</linearGradient>
</defs>
</svg>
