<svg xmlns="http://www.w3.org/2000/svg" viewBox="0 0 500 500"><g id="freepik--hand-1--inject-117"><path d="M118.71,265.59S94.6,275.39,89.92,283s-11.1,34.19-14.22,52.5-15.36,32.94-15.36,32.94l18.9,18.32L124.4,297.3Z" style="fill:#ffa8a7"></path><path d="M139,304c0-70,49.14-155.1,109.75-190.09l-24.21-14C164,135,114.91,220,114.91,290c0,36.47,13.35,61.63,34.71,72.42h0L171,374.94h0C151.21,363.42,139,338.88,139,304Z" style="fill:#E09F7D"></path><path d="M139,304c0-70,49.14-155.1,109.75-190.09l-24.21-14C164,135,114.91,220,114.91,290c0,36.47,13.35,61.63,34.71,72.42h0L171,374.94h0C151.21,363.42,139,338.88,139,304Z" style="fill:#fff;opacity:0.30000000000000004"></path><path d="M139,304c0,34.87,12.2,59.41,31.94,70.93s47.4,10,77.81-7.56V270.24c-14.15,8.18-25.63,1.55-25.63-14.79s11.48-36.23,25.63-44.4V113.92C188.15,148.91,139,234,139,304Z" style="fill:#E09F7D"></path><path d="M248.76,143.43V133q-1.12.61-2.25,1.26c-50.16,29-91,99.65-91,157.57,0,29,10,50.82,28.24,61.34a50.06,50.06,0,0,0,25.35,6.54c1.05,0,2.11,0,3.18-.09,11.41-.61,23.75-4.42,36.45-11.41V337.86c-.74.46-1.49.9-2.25,1.34q-2.1,1.21-4.2,2.3c-20.64,10.78-39.7,12.19-54,3.91-15.31-8.84-23.74-27.85-23.74-53.54C164.54,237.68,202.12,171.74,248.76,143.43Z" style="fill:#fff"></path><path d="M246.51,314.91c-16.63,9.61-32,11.29-43.36,4.74s-17.58-20.72-17.58-39.92c0-40.8,28.15-90.37,63.19-112V157.33c-.75.41-1.5.82-2.25,1.26C208,180.85,176.57,235.2,176.57,279.73c0,22.55,7.84,39.5,22.08,47.72a39.24,39.24,0,0,0,19.87,5.14c9.4,0,19.66-2.89,30.24-8.63V313.55C248,314,247.27,314.48,246.51,314.91Z" style="fill:#fff"></path><path d="M246.51,290.63c-11,6.36-21.13,7.52-28.49,3.27s-11.42-13.6-11.42-26.31c0-27.41,18.71-60.67,42.16-75.56V181.64c-.75.39-1.49.79-2.25,1.23-27,15.57-48.91,53.57-48.91,84.72,0,16.06,5.65,28.18,15.92,34.1a28.34,28.34,0,0,0,14.39,3.74c6.51,0,13.58-2,20.85-5.78V289.27C248,289.74,247.27,290.19,246.51,290.63Z" style="fill:#fff"></path><path d="M139,304c0,34.87,12.2,59.41,31.94,70.93s47.4,10,77.81-7.56V270.24c-14.15,8.18-25.63,1.55-25.63-14.79s11.48-36.23,25.63-44.4V113.92C188.15,148.91,139,234,139,304Z" style="fill:#fff;opacity:0.5"></path><path d="M159.66,344.3c10.93-2.67,19.78-16.3,19.78-16.3s9.59-38.75,24.25-38.19a5.21,5.21,0,0,1,4.95,5.73c-.63,6.35-7.34,31.68-10.91,43.86-4.34,14.83-30.33,37.52-30.33,37.52S148.74,347,159.66,344.3Z" style="fill:#ffa8a7"></path><path d="M153.45,326.2c10.82-3.11,19.11-17.09,19.11-17.09s8-39.1,22.68-39.13a5.21,5.21,0,0,1,5.18,5.51c-.37,6.38-6,31.95-9.13,44.27-3.74,15-28.78,38.72-28.78,38.72S142.64,329.32,153.45,326.2Z" style="fill:#ffa8a7"></path><path d="M175.33,350.6a1.63,1.63,0,0,1-1.21-2.72c6.69-7.46,13.4-19.71,15.59-28.51,1.46-5.84,3.83-16,5.84-25.63a1.63,1.63,0,1,1,3.19.67c-1.75,8.35-4.11,18.7-5.86,25.75-2.35,9.4-9.22,22-16.34,29.9A1.6,1.6,0,0,1,175.33,350.6Z" style="fill:#f28f8f"></path><path d="M145.07,310.68c10.81-3.12,19.1-17.1,19.1-17.1s8-39.1,22.68-39.13A5.21,5.21,0,0,1,192,260c-.37,6.37-6.05,31.95-9.12,44.27-3.74,15-28.79,38.72-28.79,38.72S134.26,313.79,145.07,310.68Z" style="fill:#ffa8a7"></path><path d="M110.67,302.63s7.89,9.39,18.7,6.28,19.1-17.1,19.1-17.1,8-39.1,22.68-39.13a5.21,5.21,0,0,1,5.18,5.52c-.37,6.37-6.05,31.95-9.12,44.27-3.74,15-28.79,38.72-28.79,38.72l-34.66-20.93Z" style="fill:#ffa8a7"></path><path d="M167.4,376.92s-21.43,23.19-65,38.75l-23.15-29L103.76,317l39.35,5S179,341.2,167.4,376.92Z" style="fill:#ffa8a7"></path><path d="M149.25,331.55a1.61,1.61,0,0,1-1.09-.41,1.63,1.63,0,0,1-.13-2.3c9.92-11.12,16-20.37,17.6-26.77,3.38-13.57,8.73-38,9.08-44a1.63,1.63,0,0,1,3.25.19c-.39,6.69-6.18,32.57-9.17,44.57-2.18,8.73-11.17,20.12-18.33,28.15A1.62,1.62,0,0,1,149.25,331.55Z" style="fill:#f28f8f"></path><path d="M163,340a1.6,1.6,0,0,1-1.12-.45,1.62,1.62,0,0,1-.07-2.3c7.18-7.63,17-23.52,19.5-33.38,2.06-8.27,5.34-22.71,7.36-33.17a1.63,1.63,0,1,1,3.21.61c-2,10.52-5.34,25-7.41,33.35-2.65,10.63-12.82,26.89-20.29,34.82A1.63,1.63,0,0,1,163,340Z" style="fill:#f28f8f"></path><path d="M45.76,380.26l15.7-15s42.74,12.7,45,52.63L92.58,427.8Z" style="fill:#E09F7D"></path><path d="M45.76,380.26l15.7-15s42.74,12.7,45,52.63L92.58,427.8Z" style="fill:#fff;opacity:0.30000000000000004"></path><path d="M45.87,373.49c9.07,2.36,46.9,14.93,51.29,60.64a4.44,4.44,0,0,1-1.24,3.51l-29,30.14S.08,447.21,10.13,397.23l32.24-23.09A4.16,4.16,0,0,1,45.87,373.49Z" style="fill:#263238"></path><path d="M87.56,431.43a5.72,5.72,0,1,1-5.72-5.72A5.72,5.72,0,0,1,87.56,431.43Z" style="fill:#fff"></path><path d="M122,310.59a1.84,1.84,0,0,1-.47-.06,21.94,21.94,0,0,1-14.91-16.1,1.63,1.63,0,0,1,3.19-.7,18.85,18.85,0,0,0,12.66,13.67,1.63,1.63,0,0,1-.47,3.19Z" style="fill:#f28f8f"></path></g></svg>