<svg xmlns="http://www.w3.org/2000/svg" viewBox="0 0 500 500"><g id="freepik--hand-2--inject-117"><path d="M351.86,133.9a126.63,126.63,0,0,1,30.41,7.43c15.21,6,24.31,19.55,42.45,23.54,0,0,22.73,28,0,70.63l-31.78-4.85a37.06,37.06,0,0,0-14,.49c-6.26,1.46-17.54,2.92-33.23.37Z" style="fill:#ffa8a7"></path><polygon points="239.45 248.83 263.55 262.87 263.55 360 239.34 345.78 239.45 248.83" style="fill:#E09F7D"></polygon><polygon points="239.45 248.83 263.55 262.87 263.55 360 239.34 345.78 239.45 248.83" style="opacity:0.2"></polygon><path d="M245.26,264.56l9-30c6.5-9.13,10.73-20.36,10.73-30.3,0-16.37-11.49-23-25.66-14.82s-25.67,28.09-25.67,44.46c0,8.05,2.78,13.74,7.29,16.48h0l.41.24Z" style="fill:#E09F7D"></path><polygon points="239.45 92.5 263.55 106.54 263.55 203.68 239.34 189.45 239.45 92.5" style="fill:#E09F7D"></polygon><polygon points="239.45 92.5 263.55 106.54 263.55 203.68 239.34 189.45 239.45 92.5" style="opacity:0.2"></polygon><path d="M342.36,99.58l-.37-.22.36.22Z" style="fill:#ffa8a7"></path><path d="M340.56,98.53,318.51,85.69h0c-20-12.41-48-11.12-79.06,6.81a.41.41,0,0,0-.11.07l24.21,14C293.56,89.22,320.75,87.43,340.56,98.53Z" style="fill:#E09F7D"></path><path d="M340.56,98.53l1.43.83Z" style="fill:#ffa8a7"></path><path d="M342.35,99.58l-.36-.22-1.43-.83c-19.81-11.1-47-9.31-77,8v97.13c-14.16,8.18-25.64,28.06-25.64,44.4s11.48,23,25.64,14.8V360C324.16,325,373.3,239.9,373.3,169.91,373.3,135.62,361.5,111.33,342.35,99.58Z" style="fill:#E09F7D"></path><path d="M342.35,99.58l-.36-.22-1.43-.83c-19.81-11.1-47-9.31-77,8v97.13c-14.16,8.18-25.64,28.06-25.64,44.4s11.48,23,25.64,14.8V360C324.16,325,373.3,239.9,373.3,169.91,373.3,135.62,361.5,111.33,342.35,99.58Z" style="fill:#fff;opacity:0.30000000000000004"></path><path d="M348.56,142.52a50.94,50.94,0,0,0-20-21.81c-17.66-10.19-40.66-8.42-65,5v10.4c.74-.46,1.49-.9,2.25-1.34,13.28-7.67,26-11.54,37.35-11.54A41.22,41.22,0,0,1,324,128.51c14.45,8.34,22.77,25.75,23.65,49.28q.09,2.1.09,4.26c0,54.19-37.58,120.13-84.22,148.44v10.39l2.25-1.26c50.16-29,91-99.65,91-157.57C356.77,166.62,353.94,153.25,348.56,142.52Z" style="fill:#fff"></path><path d="M335.74,194.19c0-22.55-7.84-39.5-22.08-47.72-13.69-7.9-31.41-6.65-50.11,3.49v10.41c.74-.46,1.49-.93,2.25-1.36,10-5.76,19.49-8.67,28-8.67a30.41,30.41,0,0,1,15.4,3.92c11.34,6.55,17.58,20.73,17.58,39.93,0,40.8-28.15,90.37-63.19,112v10.41q1.11-.6,2.25-1.26C304.36,293.07,335.74,238.72,335.74,194.19Z" style="fill:#fff"></path><path d="M314.71,206.33c0-16.07-5.65-28.18-15.92-34.1-9.71-5.61-22.15-4.86-35.24,2v10.39c.74-.47,1.49-.93,2.25-1.36,6.65-3.84,13-5.79,18.57-5.79a19.59,19.59,0,0,1,9.92,2.52c7.36,4.25,11.42,13.6,11.42,26.31,0,27.41-18.72,60.67-42.16,75.56v10.38c.74-.39,1.49-.78,2.25-1.22C292.77,275.48,314.71,237.47,314.71,206.33Z" style="fill:#fff"></path><ellipse cx="263.55" cy="233.33" rx="36.3" ry="20.96" transform="translate(-70.29 344.9) rotate(-60)" style="fill:#fff"></ellipse><ellipse cx="263.55" cy="233.03" rx="18.37" ry="10.61" transform="translate(-70.03 344.75) rotate(-60)" style="fill:#E09F7D"></ellipse><ellipse cx="263.55" cy="233.03" rx="18.37" ry="10.61" transform="translate(-70.03 344.75) rotate(-60)" style="fill:#fff;opacity:0.30000000000000004"></ellipse><path d="M378.25,159l-11.85-3.28a21.6,21.6,0,0,0-8.69-.58c-8.35,1.16-26,3.6-30.14,4.1-5.4.66-8.11,7.79-4.36,13.66s12.53,13.75,39.55,11.79c0,0,13.27,34.48,46.31,15.41C418.83,194.49,412,170,378.25,159Z" style="fill:#ffa8a7"></path><path d="M386.13,163.53a1.49,1.49,0,0,1-.61-.13c-2.44-1.08-5-2.07-7.74-3l-6.67-1.85a1.5,1.5,0,1,1,.8-2.89l6.74,1.87a84.07,84.07,0,0,1,8.09,3.08,1.5,1.5,0,0,1-.61,2.87Z" style="fill:#f28f8f"></path><path d="M390.25,207.39c-10.62,0-18-6-22.76-11.88a1.51,1.51,0,0,1,.23-2.11,1.5,1.5,0,0,1,2.11.23c5.6,7,15.42,14.16,30.45,8.93a1.5,1.5,0,1,1,1,2.84A33.44,33.44,0,0,1,390.25,207.39Z" style="fill:#f28f8f"></path><path d="M425.84,168.42c2.93,10.13,9.59,39.86-5.28,62a7.61,7.61,0,0,1-7.49,3.27L408.5,233h0a4.4,4.4,0,0,0,3.46,4.29L459,247.6V159.28l-43,2.76,2.75,1.2a13.66,13.66,0,0,0,2.41.81h0A6.3,6.3,0,0,1,425.84,168.42Z" style="fill:#E09F7D"></path><path d="M443.81,166c3.9,11.82,10.49,40.81-4.94,71.28a7.79,7.79,0,0,1-8.62,4.06l-3.22-.7h0a4.76,4.76,0,0,0,4.25,5.25l52.31,5.42s7.46-11.78,7.46-50.07-10.8-45.47-10.8-45.47l-42.94,1.5a3.66,3.66,0,0,0-3.54,3.66h0l2.31-.15A7.61,7.61,0,0,1,443.81,166Z" style="fill:#263238"></path><path d="M463,236.64a6.26,6.26,0,1,1-6.26-6.25A6.26,6.26,0,0,1,463,236.64Z" style="fill:#fff"></path><path d="M381.56,160.63a1.61,1.61,0,0,1-.37,0,1.52,1.52,0,0,1-1.09-1.83,7.86,7.86,0,0,0-.74-5.68,1.5,1.5,0,0,1,2.62-1.46,10.87,10.87,0,0,1,1,7.88A1.49,1.49,0,0,1,381.56,160.63Z" style="fill:#f28f8f"></path><path d="M388.12,230.66a1.5,1.5,0,0,1-.7-2.82,14.14,14.14,0,0,0,7.22-10.7,1.5,1.5,0,1,1,3,.31,17,17,0,0,1-8.79,13A1.51,1.51,0,0,1,388.12,230.66Z" style="fill:#f28f8f"></path><path d="M335.38,169.21c-.36,0-.73,0-1.09,0-3.76-.27-7-2.16-8.46-4.93a1,1,0,0,1,1.77-.93c1.36,2.59,4.42,3.69,6.84,3.87,2.92.21,5.87-.6,8.72-1.38.85-.23,1.66-.52,1.89-1a2.32,2.32,0,0,0,0-1.25,12.75,12.75,0,0,0-1.43-3.72,1,1,0,1,1,1.73-1A14.36,14.36,0,0,1,347,163.1a4,4,0,0,1-.09,2.45c-.64,1.48-2.31,1.94-3.21,2.18A31.7,31.7,0,0,1,335.38,169.21Z" style="fill:#f28f8f"></path></g><g id="freepik--Arrow--inject-117"><polygon points="417.54 289.74 358.55 255.91 317.86 264.64 330.89 304.16 389.88 337.99 376.85 298.46 417.54 289.74" style="fill:#E09F7D"></polygon><polygon points="417.54 289.74 358.55 255.91 317.86 264.64 330.89 304.16 389.88 337.99 376.85 298.46 417.54 289.74" style="opacity:0.30000000000000004"></polygon><path d="M340.08,304.49a1,1,0,0,1-.95-.69l-10.34-31.35,13.69-2.94a1,1,0,0,1,1.19.77,1,1,0,0,1-.77,1.18l-11.51,2.47L341,303.18a1,1,0,0,1-.64,1.26A1.18,1.18,0,0,1,340.08,304.49Z" style="fill:#E09F7D"></path><path d="M350.83,269.74a1,1,0,0,1-.21-2L363.53,265A1,1,0,1,1,364,267L351,269.72Z" style="fill:#E09F7D"></path><path d="M341.49,277.56a1,1,0,0,1-.21-2l23.46-5a1,1,0,0,1,.42,1.95l-23.46,5A.76.76,0,0,1,341.49,277.56Z" style="fill:#E09F7D"></path><path d="M347.69,308.72a1,1,0,0,1-.95-.69l-3.83-11.64a1,1,0,0,1,.63-1.27,1,1,0,0,1,1.27.64l3.83,11.65a1,1,0,0,1-.63,1.26A1.19,1.19,0,0,1,347.69,308.72Z" style="fill:#E09F7D"></path><path d="M379.67,286.42a1,1,0,0,1-1-.79,1,1,0,0,1,.76-1.18l10.09-2.17a1,1,0,0,1,.42,2l-10.09,2.16A.75.75,0,0,1,379.67,286.42Z" style="fill:#E09F7D"></path><path d="M361.55,317.43a1,1,0,0,1-.95-.69l-8.52-25.87a1,1,0,0,1,.63-1.27,1,1,0,0,1,1.27.64l8.52,25.87a1,1,0,0,1-.64,1.27A1.12,1.12,0,0,1,361.55,317.43Z" style="fill:#E09F7D"></path><path d="M375.43,294.28a1,1,0,0,1-.21-2l25.38-5.44a1,1,0,1,1,.42,1.95l-25.38,5.44Z" style="fill:#E09F7D"></path><path d="M369.43,321.58a1,1,0,0,1-.95-.69L364.24,308a1,1,0,0,1,1.9-.62l4.24,12.86a1,1,0,0,1-.64,1.26A1.12,1.12,0,0,1,369.43,321.58Z" style="fill:#E09F7D"></path><path d="M342.69,283.48a3.46,3.46,0,0,1-1.75-.47l-79-45.59a3.5,3.5,0,0,1,3.5-6.06l79,45.59a3.5,3.5,0,0,1-1.75,6.53Z" style="fill:#263238"></path></g></svg>