<svg xmlns="http://www.w3.org/2000/svg" viewBox="0 0 500 500"><g id="freepik--Items--inject-64"><path d="M239.37,208a6.33,6.33,0,0,0-7.72-3l-.5-1a.5.5,0,0,0-.68-.21l-9.73,4.7a.5.5,0,0,0-.26.66L227,222.6l10.67-5.15L237,216A6.34,6.34,0,0,0,239.37,208Zm-3.26,6.2-3.62-7.5a4.21,4.21,0,0,1,3.62,7.5Z" style="fill:#E09F7D"></path><polygon points="90.37 133.42 90.31 133.23 89.93 131.97 113.52 124.7 113.97 126.14 90.37 133.42" style="fill:#E09F7D"></polygon><polygon points="91.26 136.3 90.97 135.38 90.81 134.86 114.41 127.58 114.86 129.03 91.26 136.3" style="fill:#E09F7D"></polygon><rect x="90.04" y="129.75" width="24.69" height="1.51" transform="translate(-33.84 35.87) rotate(-17.1)" style="fill:#E09F7D"></rect><rect x="90.04" y="129.75" width="24.69" height="1.51" transform="translate(-33.84 35.87) rotate(-17.1)" style="opacity:0.2"></rect><polygon points="116.89 126.74 116.49 125.44 113.52 124.7 114.86 129.03 116.89 126.74" style="fill:#E09F7D"></polygon><polygon points="116.89 126.74 116.49 125.44 113.52 124.7 114.86 129.03 116.89 126.74" style="fill:#fff;opacity:0.8"></polygon><polygon points="117.77 125.76 116.49 125.44 116.89 126.74 117.77 125.76" style="fill:#E09F7D"></polygon><path d="M369.59,114.18a427.13,427.13,0,0,0,16,44.58q-3.54,4.17-7,8.32l-27.35,7.4a432.39,432.39,0,0,1-18.48-50.33Z" style="fill:#E09F7D"></path><path d="M369.59,114.18a427.13,427.13,0,0,0,16,44.58q-3.54,4.17-7,8.32l-27.35,7.4a432.39,432.39,0,0,1-18.48-50.33Z" style="fill:#fff;opacity:0.8"></path><path d="M385.59,158.76c-.8,3-3,4.8-7,8.32a15.64,15.64,0,0,0,3.57-8.9A4.74,4.74,0,0,1,385.59,158.76Z" style="fill:#E09F7D"></path></g></svg>