<svg xmlns="http://www.w3.org/2000/svg" viewBox="0 0 500 500"><g id="freepik--Bills--inject-208"><path d="M346.5,391.92c-6.74,5.49-38.47,13.59-53.15,3s2.44-26.82,14.21-24.64l2.82-8.83s-11.4-3-20.38,5-7.54,27.89-.19,35.73,16.32,14.81,34.53,7.43S346.5,391.92,346.5,391.92Z" style="fill:#263238"></path><path d="M346.5,391.92s-4,10.37-22.17,17.75-27.16.4-34.52-7.43c-5.62-6-7.78-19-4.49-28.35-1.15,7,.5,12.45,3.81,16.66l0,0a15,15,0,0,0,4.2,4.37,21,21,0,0,0,3.45,2C312.5,404.36,340.25,397,346.5,391.92Z" style="fill:#fff;isolation:isolate;opacity:0.8"></path><path d="M310.38,361.47l-2.82,8.83c-10.23-1.89-24.49,10.13-18.43,20.25-3.31-4.21-5-9.65-3.81-16.66a17.33,17.33,0,0,1,4.68-7.38C299,358.49,310.38,361.47,310.38,361.47Z" style="fill:#fff;isolation:isolate;opacity:0.7000000000000001"></path><path d="M278.57,406.78c6.71.26,23.74-20.44,38.13-26.83s31.3-1.17,32,9.17-8.46,17.66-8.46,17.66,5.36-8.89-.58-15.25-11.52-7.63-19.74-1.72-19.06,22.78-30.12,23S278.57,406.78,278.57,406.78Z" style="fill:#263238"></path><path d="M278.57,406.78c6.71.26,23.74-20.44,38.13-26.83s31.3-1.17,32,9.17-8.46,17.66-8.46,17.66,5.36-8.89-.58-15.25-11.52-7.63-19.74-1.72-19.06,22.78-30.12,23S278.57,406.78,278.57,406.78Z" style="fill:#fff;isolation:isolate;opacity:0.7000000000000001"></path><path d="M261.05,410.08c-7.49-7.73.45-17.13,17.77-18.11s51.4,9,59.1,21.13-2.87,6.32-2.87,6.32S315.1,405.48,295,402.05s-29.52,5.16-26.15,11.95S261.05,410.08,261.05,410.08Z" style="fill:#263238"></path><path d="M261.05,410.08c-7.49-7.73.45-17.13,17.77-18.11s51.4,9,59.1,21.13-2.87,6.32-2.87,6.32S315.1,405.48,295,402.05s-29.52,5.16-26.15,11.95S261.05,410.08,261.05,410.08Z" style="fill:#fff;isolation:isolate;opacity:0.8"></path><path d="M319.2,407.2c8.42,1.76,9.82,11.93,7.14,18.17,0,0-23-4.89-31.76-3.59C294.58,421.78,306.19,404.47,319.2,407.2Z" style="fill:#263238"></path><path d="M319.2,407.2c8.42,1.76,9.82,11.93,7.14,18.17,0,0-23-4.89-31.76-3.59C294.58,421.78,306.19,404.47,319.2,407.2Z" style="fill:#fff;isolation:isolate;opacity:0.7000000000000001"></path><path d="M320.74,407.06h0a6.33,6.33,0,0,0-1.54.13c-11,2.21-13.12,21-27.26,20.41-8.53-.38-9.5-5.95-11.3-11,4.08-3.54,7.26-12.32,14.81-11.95C304.14,405.08,320.74,407.06,320.74,407.06Z" style="fill:#263238"></path><path d="M320.74,407.06h0a6.33,6.33,0,0,0-1.54.13c-11,2.21-13.12,21-27.26,20.41-8.53-.38-9.5-5.95-11.3-11,4.08-3.54,7.26-12.32,14.81-11.95C304.14,405.08,320.74,407.06,320.74,407.06Z" style="fill:#fff;isolation:isolate;opacity:0.9"></path><g style="opacity:0.30000000000000004"><path d="M280.35,425.52c7.66.11,16.7-.47,16.82-.48a.32.32,0,0,0,.28-.24.17.17,0,0,0-.19-.21c-.16,0-16.55,1-23.8,0a.32.32,0,0,0-.32.2.2.2,0,0,0,.17.27A62,62,0,0,0,280.35,425.52Z"></path></g><g style="opacity:0.30000000000000004"><path d="M284.26,422.17c6.93.14,16.38,0,16.5,0a.32.32,0,0,0,.29-.23.17.17,0,0,0-.16-.23h0c-.16,0-16.72.17-22-.29a.29.29,0,0,0-.31.22.19.19,0,0,0,.18.26C280,422.05,282,422.12,284.26,422.17Z"></path></g><g style="opacity:0.30000000000000004"><path d="M297.36,419.17c3.36.09,5.95.11,6.22.11a.31.31,0,0,0,.3-.23.17.17,0,0,0-.16-.24h0c-.17,0-18.41-.14-22.27-1.51a.31.31,0,0,0-.35.15.22.22,0,0,0,.1.32C283.66,418.64,291.66,419,297.36,419.17Z"></path></g><g style="opacity:0.30000000000000004"><path d="M305.37,415.72a.34.34,0,0,0,.31-.23c0-.14,0-.25-.16-.25s-19.26-.84-21.69-1.41a.32.32,0,0,0-.34.19.21.21,0,0,0,.13.31c2.48.57,21,1.36,21.75,1.39Z"></path></g><g style="opacity:0.30000000000000004"><path d="M308.16,412.31a.34.34,0,0,0,.31-.23.18.18,0,0,0-.15-.26c-.18,0-18.91-1.38-21.18-1.66a.32.32,0,0,0-.33.22.21.21,0,0,0,.17.29c2.28.29,21,1.63,21.18,1.64Z"></path></g><g style="opacity:0.30000000000000004"><path d="M311.76,408.94a.34.34,0,0,0,.32-.23c0-.14,0-.26-.15-.27s-19.08-1.3-21.6-1.51a.31.31,0,0,0-.32.24.21.21,0,0,0,.18.28c2.51.21,21.39,1.48,21.57,1.49Z"></path></g><path d="M271.18,408.61l-12.5-1v5.13h-4a5.38,5.38,0,0,1,.27.89c1.1,5.56,2.48,12.12,12.42,13.39a150.26,150.26,0,0,0,27.64.46C280.09,426.78,285.45,409.78,271.18,408.61Z" style="fill:#263238"></path><path d="M271.18,408.61l-12.5-1v5.13h-4a5.38,5.38,0,0,1,.27.89c1.1,5.56,2.48,12.12,12.42,13.39a150.26,150.26,0,0,0,27.64.46C280.09,426.78,285.45,409.78,271.18,408.61Z" style="fill:#fff;isolation:isolate;opacity:0.7000000000000001"></path><path d="M274.32,409h0a6.33,6.33,0,0,0-1.54.13c-11,2.21-13.12,21-27.26,20.4-8.53-.38-9.5-5.95-11.3-11,4.08-3.54,7.26-12.32,14.81-12C257.72,407,274.32,409,274.32,409Z" style="fill:#263238"></path><path d="M274.32,409h0a6.33,6.33,0,0,0-1.54.13c-11,2.21-13.12,21-27.26,20.4-8.53-.38-9.5-5.95-11.3-11,4.08-3.54,7.26-12.32,14.81-12C257.72,407,274.32,409,274.32,409Z" style="fill:#fff;isolation:isolate;opacity:0.9"></path><g style="opacity:0.30000000000000004"><path d="M233.93,427.42c7.66.11,16.7-.46,16.82-.47a.33.33,0,0,0,.28-.24.17.17,0,0,0-.19-.21c-.16,0-16.55,1-23.79,0a.31.31,0,0,0-.33.2.21.21,0,0,0,.17.27A59.94,59.94,0,0,0,233.93,427.42Z"></path></g><g style="opacity:0.30000000000000004"><path d="M237.84,424.08c6.93.14,16.38,0,16.5,0a.33.33,0,0,0,.29-.24.16.16,0,0,0-.16-.22h0c-.16,0-16.72.18-22-.28a.29.29,0,0,0-.31.21.2.2,0,0,0,.18.27C233.62,424,235.59,424,237.84,424.08Z"></path></g><g style="opacity:0.30000000000000004"><path d="M250.94,421.08c3.36.09,5.95.11,6.22.11a.32.32,0,0,0,.3-.23.17.17,0,0,0-.16-.24h0c-.18,0-18.42-.14-22.28-1.52a.33.33,0,0,0-.35.16.21.21,0,0,0,.1.31C237.24,420.55,245.24,420.92,250.94,421.08Z"></path></g><g style="opacity:0.30000000000000004"><path d="M259,417.62a.32.32,0,0,0,.31-.23.18.18,0,0,0-.16-.25c-.19,0-19.25-.83-21.69-1.4a.3.3,0,0,0-.34.19.2.2,0,0,0,.13.3c2.48.58,21,1.36,21.75,1.39Z"></path></g><g style="opacity:0.30000000000000004"><path d="M261.74,414.22a.34.34,0,0,0,.31-.23c.05-.14,0-.26-.15-.26s-18.91-1.38-21.18-1.67a.34.34,0,0,0-.33.23.21.21,0,0,0,.17.29c2.28.28,21,1.62,21.18,1.64Z"></path></g><g style="opacity:0.30000000000000004"><path d="M265.34,410.85a.35.35,0,0,0,.32-.23c0-.14,0-.26-.15-.27s-19.08-1.3-21.59-1.52a.32.32,0,0,0-.33.25.21.21,0,0,0,.18.28c2.51.21,21.39,1.48,21.57,1.49Z"></path></g><path d="M224.76,410.52l-28.62-2.35s11.2,1.5,12.36,7.34c1.1,5.56,2.48,12.12,12.42,13.39a150.26,150.26,0,0,0,27.64.46C233.67,428.69,239,411.69,224.76,410.52Z" style="fill:#263238"></path><path d="M224.76,410.52l-28.62-2.35s11.2,1.5,12.36,7.34c1.1,5.56,2.48,12.12,12.42,13.39a150.26,150.26,0,0,0,27.64.46C233.67,428.69,239,411.69,224.76,410.52Z" style="fill:#fff;isolation:isolate;opacity:0.7000000000000001"></path><path d="M177.14,427.07s18.8,3.15,32.91,1.75c0,0,5.57-16.79,14.71-18.3l-28.85-3c-6.46-.68-12.69,2.41-15.54,7.65A23.94,23.94,0,0,0,177.14,427.07Z" style="fill:#263238"></path><path d="M177.14,427.07s18.8,3.15,32.91,1.75c0,0,5.57-16.79,14.71-18.3l-28.86-3c-6.27-.65-12.47,2.2-15.32,7.26A24.21,24.21,0,0,0,177.14,427.07Z" style="fill:#fff;isolation:isolate;opacity:0.9"></path><g style="opacity:0.30000000000000004"><path d="M200.31,422.47c.25-.84,1.12-1.27,2.54-1.19l2.65.13L204,426.15l-2.46-.08c-1.27-.05-1.84-.55-1.6-1.32a1.58,1.58,0,0,1,1.07-1A.92.92,0,0,1,200.31,422.47Zm.78.1c-.17.56.22.83,1.11.88l1.81.08c.17-.53.34-1.06.52-1.6q-.92,0-1.83-.09C201.82,421.8,201.27,422,201.09,422.57Zm2.26,3c.16-.5.33-1,.49-1.5l-1.62-.07c-.81,0-1.35.2-1.51.7s.22.78,1,.82Z"></path><path d="M198,425.9l-.8,0c.49-1.6,1-3.22,1.47-4.85l.8.06Q198.73,423.52,198,425.9Z"></path><path d="M195.55,425.75l-.79-.06,1.25-4.27c-1-.09-2-.18-3-.29l.17-.62c1.29.13,2.57.25,3.86.36Z"></path><path d="M190.82,425.37l-.8-.08c.4-1.43.81-2.88,1.21-4.34l-3.07-.37c.06-.21.12-.42.17-.63,1.3.16,2.59.32,3.89.46Z"></path><path d="M187.82,420.49l-.45.53a2.81,2.81,0,0,0-1.72-.85c-1-.14-1.51.14-1.62.6-.33,1.26,3.32.93,2.83,2.79-.21.77-1.06,1.35-2.55,1.17a3.24,3.24,0,0,1-1.7-.69l.41-.54a2.92,2.92,0,0,0,1.45.62c1,.12,1.47-.19,1.59-.63.32-1.22-3.33-.91-2.85-2.8.2-.79,1.08-1.36,2.6-1.15A3.33,3.33,0,0,1,187.82,420.49Z"></path><path d="M212.38,419.48a.3.3,0,0,0,.31-.23.23.23,0,0,0-.23-.28c-.22,0-23.75-1.85-30.18-3.18a.33.33,0,0,0-.38.21.29.29,0,0,0,.25.34c6.46,1.32,30,3.12,30.21,3.14Z"></path><path d="M214.46,416.39a.3.3,0,0,0,.31-.24.24.24,0,0,0-.23-.29c-.21,0-22.31-1.87-30.5-3.18a.32.32,0,0,0-.37.23.31.31,0,0,0,.27.33c8.21,1.3,30.29,3.13,30.5,3.15Z"></path><path d="M217.32,413.08a.31.31,0,0,0,.32-.24.25.25,0,0,0-.22-.3l-29-2.84a.3.3,0,0,0-.34.26.3.3,0,0,0,.28.32l28.93,2.8Z"></path><path d="M221.32,410.85c.15,0,.28,0,.3-.11s-.08-.15-.23-.16-13.32-1.42-25.93-2.72c-.19,0-.33,0-.35.11s.11.16.28.18c12.61,1.29,25.78,2.68,25.91,2.69Z"></path></g><path d="M316.53,404.3c7.33,1.88,8.51,11,12.28,17.71l-10.4-3.1-3-2.88s6.29,13-8.63,13.54S304.52,401.22,316.53,404.3Z" style="fill:#263238"></path><path d="M316.53,404.3c7.33,1.88,8.51,11,12.28,17.71l-10.4-3.1-3-2.88s6.29,13-8.63,13.54S304.52,401.22,316.53,404.3Z" style="fill:#fff;isolation:isolate;opacity:0.8"></path><path d="M307.56,429.54c3.4,0,7.61-.19,11.78-.53,5.58-.43,11.08-1.06,14.45-1.46,2-.25,3.31-.42,3.31-.42,6-4,1.57-12.47,1.57-12.47-3.32-.91-8.57-.67-13.24-.17-5.38.59-10,1.54-10,1.54S321.51,428.59,307.56,429.54Z" style="fill:#263238"></path><path d="M307.56,429.54c3.4,0,7.61-.19,11.78-.53,5.58-.43,11.08-1.06,14.45-1.46,2-.25,3.31-.42,3.31-.42,6-4,1.57-12.47,1.57-12.47-3.32-.91-8.57-.67-13.24-.17-5.38.59-10,1.54-10,1.54S321.51,428.59,307.56,429.54Z" style="fill:#fff;isolation:isolate;opacity:0.7000000000000001"></path><path d="M314.75,404.06h0a7.26,7.26,0,0,1,1.79.23c12,3.07,7.49,25.65,24.94,25,10-.36,12.53-7,15.69-12.72-3.55-4.08-4.82-13.52-12.91-13.59C334.62,402.92,314.75,404.06,314.75,404.06Z" style="fill:#263238"></path><path d="M314.75,404.06h0a7.26,7.26,0,0,1,1.79.23c12,3.07,7.49,25.65,24.94,25,10-.36,12.53-7,15.69-12.72-3.55-4.08-4.82-13.52-12.91-13.59C334.62,402.92,314.75,404.06,314.75,404.06Z" style="fill:#fff;isolation:isolate;opacity:0.9"></path><g style="opacity:0.30000000000000004"><path d="M355.39,426.93c-8.72,0-19.14-.87-19.28-.88a.29.29,0,0,1-.25-.31.27.27,0,0,1,.3-.25c.18,0,18.8,1.57,27,.51a.28.28,0,0,1,.31.24.28.28,0,0,1-.24.32A65.88,65.88,0,0,1,355.39,426.93Z"></path></g><g style="opacity:0.30000000000000004"><path d="M351.86,422.86c-7.9,0-18.91-.36-19.06-.37a.27.27,0,0,1-.26-.29.27.27,0,0,1,.27-.27h0c.19,0,19.21.64,25.14.24a.28.28,0,0,1,0,.56C356.56,422.83,354.37,422.86,351.86,422.86Z"></path></g><g style="opacity:0.30000000000000004"><path d="M337.81,419c-3.95,0-7-.06-7.34-.07a.28.28,0,0,1,0-.56h0c.21,0,21.11.44,25.66-1a.29.29,0,0,1,.35.18.3.3,0,0,1-.18.36C353.41,418.79,344.39,419,337.81,419Z"></path></g><g style="opacity:0.30000000000000004"><path d="M329.63,414.64a.29.29,0,0,1-.28-.28.29.29,0,0,1,.28-.29c.22,0,22-.15,24.76-.68a.29.29,0,0,1,.32.23.28.28,0,0,1-.22.33c-2.82.53-24,.68-24.86.69Z"></path></g><g style="opacity:0.30000000000000004"><path d="M327.58,410.61a.27.27,0,0,1-.27-.27.27.27,0,0,1,.26-.29c.22,0,21.65-.59,24.16-.79a.27.27,0,0,1,.3.26.28.28,0,0,1-.25.3c-2.53.2-24,.79-24.19.79Z"></path></g><g style="opacity:0.30000000000000004"><path d="M324.61,406.66a.28.28,0,0,1,0-.56c.22,0,21.77-.35,24.52-.43a.27.27,0,0,1,.29.27.29.29,0,0,1-.27.29c-2.75.09-24.32.43-24.53.43Z"></path></g><path d="M368.58,408.41l27.48-1s-10.43,1-12.16,6.86-4,13.26-14.59,14.62c-14.95,1.9-31.39.19-31.39.19C355.37,428.47,353.63,408.94,368.58,408.41Z" style="fill:#263238"></path><path d="M368.58,408.41l27.48-1s-10.43,1-12.16,6.86-4,13.26-14.59,14.62c-14.95,1.9-31.39.19-31.39.19C355.37,428.47,353.63,408.94,368.58,408.41Z" style="fill:#fff;isolation:isolate;opacity:0.8"></path><path d="M412.65,427.42s-17.86,3.29-31.91,1.52c0,0-3.34-18.56-12.16-20.53l27.73-1.64a14,14,0,0,1,13.53,8.16A28.54,28.54,0,0,1,412.65,427.42Z" style="fill:#263238"></path><path d="M412.65,427.42s-17.86,3.29-31.91,1.52c0,0-3.34-18.56-12.16-20.53l27.73-1.64a13.84,13.84,0,0,1,13.34,7.75A28.7,28.7,0,0,1,412.65,427.42Z" style="fill:#fff;isolation:isolate;opacity:0.9"></path><g style="opacity:0.30000000000000004"><path d="M401.35,421.13c-.19-.87.38-1.43,1.7-1.57l2.51-.29c.37,1.68.75,3.36,1.12,5-.78.11-1.56.2-2.35.29-1.21.14-2-.28-2.17-1.1a1.07,1.07,0,0,1,.45-1.2A1.46,1.46,0,0,1,401.35,421.13Zm.77,0c.13.58.64.8,1.47.71l1.72-.2c-.12-.56-.25-1.13-.37-1.69l-1.72.2C402.38,420.23,402,420.53,402.12,421.12Zm3.68,2.71-.36-1.62-1.53.18c-.77.09-1.14.41-1,.94s.61.77,1.38.68Z"></path><path d="M401,425l-.75.07c-.37-1.7-.75-3.4-1.12-5.09l.75-.07C400.26,421.57,400.64,423.26,401,425Z"></path><path d="M398.69,425.16l-.75.06-1-4.47-2.84.19c-.05-.22-.09-.43-.14-.64,1.2-.07,2.39-.15,3.59-.24C397.94,421.77,398.31,423.47,398.69,425.16Z"></path><path d="M394.24,425.47l-.75,0-1-4.49c-.95,0-1.89.08-2.84.1-.05-.21-.1-.42-.14-.64,1.2,0,2.39-.08,3.59-.14C393.49,422.05,393.86,423.76,394.24,425.47Z"></path><path d="M389.32,421.08l-.15.58a3.35,3.35,0,0,0-1.86-.56c-.91,0-1.23.36-1.13.82.28,1.27,3.29.41,3.7,2.32.17.79-.31,1.49-1.68,1.53a3.6,3.6,0,0,1-1.79-.44l.12-.59a3.15,3.15,0,0,0,1.53.4c.89,0,1.19-.4,1.09-.85-.27-1.25-3.28-.41-3.69-2.32-.17-.8.32-1.48,1.71-1.49A3.71,3.71,0,0,1,389.32,421.08Z"></path><path d="M379.6,418.39a.29.29,0,0,1,0-.57c.23,0,22.75-1.17,28.55-2.31a.29.29,0,0,1,.11.56c-5.84,1.14-28.4,2.3-28.63,2.32Z"></path><path d="M378,415a.28.28,0,0,1-.28-.26.28.28,0,0,1,.27-.3c.21,0,21.33-1.09,28.71-2.08a.29.29,0,0,1,.31.24.28.28,0,0,1-.24.32c-7.4,1-28.54,2.07-28.75,2.08Z"></path><path d="M375.58,411.4a.28.28,0,0,1-.28-.26.28.28,0,0,1,.26-.3l27.29-1.58a.29.29,0,0,1,.3.26.28.28,0,0,1-.27.3L375.6,411.4Z"></path><path d="M372,408.91c-.15,0-.27-.05-.28-.13s.1-.14.26-.15,13.05-.8,24.75-1.47c.17,0,.29,0,.3.12s-.1.15-.26.16c-11.7.67-24.62,1.46-24.75,1.47Z"></path></g></g></svg>
