<svg xmlns="http://www.w3.org/2000/svg" viewBox="0 0 500 500"><g id="freepik--piggy-bank--inject-208"><path d="M99.62,363.17,91.5,340.74c-6-.93-9.83,5.08-9.83,5.08l1.23,16.83S89.94,368.26,99.62,363.17Z" style="fill:#E09F7D"></path><path d="M99.62,363.17,91.5,340.74c-6-.93-9.83,5.08-9.83,5.08l1.23,16.83S89.94,368.26,99.62,363.17Z" style="fill:#fff;opacity:0.2"></path><path d="M99.62,363.17,91.5,340.74c-6-.93-9.83,5.08-9.83,5.08l1.23,16.83S89.94,368.26,99.62,363.17Z" style="opacity:0.2"></path><path d="M84.33,356.19l-2.66-10.37,1.23,16.83s7,5.61,16.72.52l-2.1-5.79A113,113,0,0,0,84.33,356.19Z" style="opacity:0.2"></path><path d="M99.21,355.56l5.31,3.36L103,361l3.28.93,5,3.33-.94,1.91,1.72,2.84,1.77,2.29,1.81,3.5-.28,2.3-.15,6.35-3.94,2.05,3.14,2.42-1.82,3-.62,3.54-3.88.52,1.93,2.67A11.89,11.89,0,0,1,102.4,406a93.11,93.11,0,0,1-11.56,2.79L72.05,396l-3.23-20.27,5.24-12.89A43.3,43.3,0,0,1,99.21,355.56Z" style="fill:#E09F7D"></path><path d="M98.43,355.83l5.31,3.36-1.53,2.05,3.28.93,5,3.33-.94,1.91,1.72,2.84,1.77,2.28,1.81,3.51-.28,2.3-.15,6.35-3.94,2,3.14,2.42-1.82,3-.62,3.55-3.88.52,1.93,2.66a11.92,11.92,0,0,1-7.62,7.36,93.11,93.11,0,0,1-11.56,2.79l-18.79-12.8L68,376l5.24-12.89A43.3,43.3,0,0,1,98.43,355.83Z" style="opacity:0.4"></path><path d="M96.81,355.4c-.36.43-5.49,1.1-8.23,5,0,0,8.87-2.19,13.69,5.38s6.48,20.41-.22,28.16-10.2,8.7-10.2,8.7,7.94.22,11.23-3.7c0,0-1.31,7.36-10.6,9.32s-23-6.54-24.45-19-2.69-20.06,6-26.34S96.81,355.4,96.81,355.4Z" style="opacity:0.4"></path><path d="M97.75,355.45h0l1.47.12h0Z" style="fill:#E09F7D"></path><path d="M60,391.62q.12.4.27.81c.09.26.18.51.28.77s.18.46.28.68a1.42,1.42,0,0,0,.08.18c.21.46.42.91.66,1.36s.62,1.12,1,1.66.72,1.05,1.12,1.56l0,0,.46.56a20.1,20.1,0,0,0,2,2.12c.54.5,1.11,1,1.7,1.43.35.28.71.53,1.07.79l.56.37c.55.37,1.13.72,1.73,1.05l.14.08c.75.4,1.52.78,2.32,1.13.21.1.42.19.64.27l.65.26.66.24.66.23c.68.23,1.36.44,2.06.62l.7.17c.35.09.71.17,1.07.24l.64.13,1.15.18.74.11.74.09c.52.05,1,.1,1.58.13l.67,0a39.17,39.17,0,0,0,4.46-.05l.79-.06a40.56,40.56,0,0,0,8.09-1.58h0c.41-.12.82-.25,1.22-.39l.39-.13,1-.36.54-.22.28-.11-3.17.66-1.1.23-.54-.35-1.29.28h0l-4.17.9h0l-.41-.55c-.71-1-2.15-2.89-2.52-3.34-.5-.61-5-2.6-5-2.6l-4.06-2.7L80,395.88l-.86-5.21L77.37,389l1-3.6-3.3-2.59L72,379.1a29.78,29.78,0,0,1,1-3.45,18.62,18.62,0,0,1,3-3.06c.71-.54.66-4.66.66-4.66l0-2.8,5.33-3,.41-.93h0l.84-1.87,5.59-2.2,2.79.19.7-.93,5.38-.92h-.16l-.77,0c-1.13,0-2.27,0-3.42,0-.29,0-.57,0-.86.05l-.94.08-.78.09-.74.09c-1.19.17-2.39.39-3.59.67l-.87.21-.66.17-1.08.31c-9.23,2.77-16.57,8.44-20.81,15.21-.24.4-.49.8-.71,1.21A23.06,23.06,0,0,0,60,391.62Z" style="fill:#E09F7D"></path><path d="M97.75,355.45l1.47.12h0Z" style="fill:#fff;opacity:0.2"></path><path d="M60,391.62q.12.4.27.81c.09.26.18.51.28.77s.18.46.28.68a1.42,1.42,0,0,0,.08.18c.2.47.42.92.66,1.36s.62,1.12,1,1.66.73,1.05,1.12,1.56l0,0,.46.56a22.32,22.32,0,0,0,2,2.12c.54.5,1.11,1,1.7,1.43.35.28.71.53,1.07.79l.56.37c.56.36,1.14.71,1.73,1.05l.14.08c.75.4,1.52.78,2.32,1.13.21.1.42.19.64.27l.65.26.66.24.66.23c.68.23,1.36.44,2.06.62l.7.17c.35.09.71.17,1.07.24l.64.13,1.15.18.74.11.74.09c.52.05,1,.1,1.58.13l.67,0a39.17,39.17,0,0,0,4.46-.05l.79-.06a40.56,40.56,0,0,0,8.09-1.58h0c.41-.12.82-.25,1.22-.39l.39-.13,1-.36.54-.22.28-.11-3.17.66-1.1.23-.54-.35-1.29.28h0l-4.17.9h0l-.41-.55c-.71-1-2.15-2.89-2.52-3.34-.5-.61-5-2.6-5-2.6l-4.06-2.7L80,395.88l-.86-5.21L77.37,389l1-3.6-3.3-2.59L72,379.1a29.78,29.78,0,0,1,1-3.45,18.62,18.62,0,0,1,3-3.06c.71-.54.66-4.66.66-4.66l0-2.8,5.33-3,.41-.93h0l.84-1.87,5.59-2.2,2.79.19.7-.93,5.38-.92h-.16l-.77,0c-1.13,0-2.27,0-3.42,0-.29,0-.57,0-.86.05l-.94.08-.78.09-.74.09c-1.19.17-2.39.39-3.59.67l-.87.21-.66.17-1.08.31c-9.23,2.77-16.57,8.44-20.81,15.21-.24.4-.49.8-.71,1.21A23.06,23.06,0,0,0,60,391.62Z" style="fill:#fff;opacity:0.2"></path><path d="M60,391.62q.12.4.27.81c-1.5-6.95,2.25-20.88,14.15-27.75a37.8,37.8,0,0,1,8.05-3.5h0l.84-1.87,5.59-2.2,2.79.19.7-.93,5.38-.92h-.16l-.77,0c-1.13,0-2.27,0-3.42,0-.29,0-.57,0-.86.05l-.94.08-.78.09-.74.09c-1.19.17-2.39.39-3.59.67l-.87.21-.66.17-1.08.31c-9.23,2.77-16.57,8.44-20.81,15.21-.24.4-.49.8-.71,1.21A23.06,23.06,0,0,0,60,391.62Z" style="opacity:0.2"></path><path d="M85.25,408.2l4.22.36a43.11,43.11,0,0,0,9.76-1.89l-1.1.23-.54-.35-1.29.28h0l-4.17.9h0l-.41-.55c-1.59.36-3,.59-4.1.75C86.31,408.12,85.45,408.18,85.25,408.2Z" style="opacity:0.2"></path><path d="M96.29,406.83l-4.17.9A39.07,39.07,0,0,0,96.29,406.83Z" style="opacity:0.2"></path><path d="M87.61,407.93l1.73.15c1-.09,1.88-.21,2.78-.35l-.41-.55C90.12,407.54,88.7,407.77,87.61,407.93Z" style="opacity:0.2"></path><path d="M97.75,355.45l1.47.12h0l-1.46-.11Z"></path><path d="M62.42,376.28a15.13,15.13,0,0,0,6.73-5h0c.38-.47.74-.94,1.07-1.4.17-.23.32-.45.46-.67.38-.54.71-1.07,1-1.56l.32-.56.38-.69,0-.07c.06-.11.11-.22.17-.32s.12-.25.18-.35a1.19,1.19,0,0,1,.08-.16l.23-.49s0,0,0,0l.09-.19-10.86-9c-5.65-.05-9.83,5.08-9.83,5.08Z" style="fill:#E09F7D"></path><path d="M62.42,376.28a15.13,15.13,0,0,0,6.73-5h0c.38-.47.74-.94,1.07-1.4.17-.23.32-.45.46-.67.38-.54.71-1.07,1-1.56l.32-.56.38-.69,0-.07c.06-.11.11-.22.17-.32s.12-.25.18-.35a1.19,1.19,0,0,1,.08-.16l.23-.49s0,0,0,0l.09-.19-10.86-9c-5.65-.05-9.83,5.08-9.83,5.08Z" style="fill:#fff;opacity:0.2"></path><path d="M53.79,361.64l8-4.11L70,365.82a9.84,9.84,0,0,1-.79,5.46c.38-.47.74-.94,1.07-1.4.17-.23.32-.45.46-.67.38-.54.71-1.07,1-1.56l.32-.56c.14-.24.26-.47.38-.69l0-.07.17-.32c.07-.13.12-.25.18-.35l.08-.16c.1-.2.17-.36.23-.49s0,0,0,0a.94.94,0,0,0,.09-.19h0l-10.86-9c-5.65-.05-9.83,5.08-9.83,5.08l9.92,15.39Z" style="opacity:0.2"></path><polygon points="108.45 379.38 113.06 383.2 114.31 395.26 118.14 404.29 123.96 402.95 120.44 405.64 117.19 408.5 122.81 409.69 131.53 405.33 128.61 388.63 127.38 377.21 118.66 376.8 108.45 379.38" style="fill:#E09F7D"></polygon><polygon points="108.45 379.38 113.06 383.2 114.31 395.26 118.14 404.29 123.96 402.95 120.44 405.64 117.19 408.5 122.81 409.69 131.53 405.33 128.61 388.63 127.38 377.21 118.66 376.8 108.45 379.38" style="opacity:0.2"></polygon><path d="M155.68,383.2l10.54-21.39c-3.53-5-10.48-3.57-10.48-3.57l-11.28,12.55S145.3,379.76,155.68,383.2Z" style="fill:#E09F7D"></path><path d="M155.68,383.2l10.54-21.39c-3.53-5-10.48-3.57-10.48-3.57l-11.28,12.55S145.3,379.76,155.68,383.2Z" style="fill:#fff;opacity:0.2"></path><path d="M155.68,383.2l10.54-21.39c-3.53-5-10.48-3.57-10.48-3.57l-11.28,12.55S145.3,379.76,155.68,383.2Z" style="opacity:0.2"></path><path d="M150.11,367.35l5.62-9.11-11.27,12.55s.84,9,11.22,12.41l2.72-5.52A112.59,112.59,0,0,0,150.11,367.35Z" style="opacity:0.2"></path><path d="M108.31,380.94l-3.5,7.21,2.37,7.11,3.62,1.35-3.62,2.6a51.18,51.18,0,0,0,10,7.26l3.76-1.59,4.57.41-4.71,1.18-3.62,2v2.42a13.52,13.52,0,0,0,8.33,0l1.25.41v.88h0l2.16.18-.68.11.71-.1.34-.07.38-.06h0l1.41-.29c.46-.1.92-.22,1.39-.34.87-.23,1.73-.48,2.57-.76l.21-.08c.41-.13.82-.29,1.22-.43h0c.42-.16.84-.34,1.25-.51l1.11-.49c.86-.41,1.7-.85,2.51-1.31l1-.59c.11-.08.24-.15.35-.22l.8-.53.08,0a28.7,28.7,0,0,0,6.74-6.32c.26-.32.49-.65.72-1a24.2,24.2,0,0,0,2.26-4.07l.18-.44a21.57,21.57,0,0,0,1.31-4.57l.06-.4.06-.44c0-.22.05-.43.07-.65s0-.44.06-.67c0-.45,0-.89,0-1.35s0-.65,0-1,0-.62-.06-.93v0s0,0,0-.09v0c0-.21-.05-.41-.07-.62s0-.25,0-.36,0-.06,0-.08,0,0,0-.06,0-.25-.07-.38-.05-.29-.07-.43a.83.83,0,0,0,0-.15h0l0-.14,0-.13c0-.13-.05-.26-.08-.38s-.1-.43-.17-.65-.05-.17-.07-.26-.05-.18-.07-.27l0-.08c0-.06,0-.13,0-.2l0-.07c0-.08-.06-.17-.08-.25s-.11-.35-.18-.53a.13.13,0,0,1,0-.06,1.22,1.22,0,0,1-.07-.17c0-.07-.05-.12-.07-.19s0-.11-.07-.17-.14-.35-.2-.53l0-.05-.23-.53c-.07-.16-.14-.32-.22-.47v0a.36.36,0,0,1,0-.09l-.24-.48a.2.2,0,0,1,0-.08l-.2-.37-.07-.14c-.17-.29-.33-.59-.5-.87l0,0c-.14-.25-.3-.48-.45-.71l-.17-.27s0,0,0,0l-.32-.45a2.14,2.14,0,0,0-.13-.19l-.27-.36-.33-.43c-.13-.17-.26-.34-.4-.5l0,0-.34-.41-.06-.07-.14-.16-.14-.15a1.17,1.17,0,0,0-.15-.16c-.11-.14-.23-.26-.34-.38l-.12-.12-.09-.1-.17-.17-.18-.19c-.11-.1-.21-.21-.31-.31a1,1,0,0,0-.11-.1l-.27-.26-.39-.35-.16-.15,0,0-.14-.12c-.31-.27-.62-.54-1-.8l-.14-.11c-.37-.3-.74-.58-1.13-.87h0c-.39-.28-.79-.55-1.19-.82l-.09-.06-1.34-.83c-.36-.21-.72-.41-1.1-.61-.12-.08-.25-.14-.38-.21-.44-.23-.89-.45-1.34-.66s-1-.45-1.47-.65l0,0L135.9,363l-.73-.26a38.35,38.35,0,0,0-4.12-1.14l-.84-.18h0c-.28-.06-.55-.11-.83-.15-.44-.09-.87-.15-1.31-.22l-.66-.08-1.17-.13-.57-.05c-.22,0-.44,0-.66,0a8.88,8.88,0,0,0-.9-.05c-.59,0-1.19,0-1.8,0h-.66c-3.22.91-7.74,2.45-10.61,4.52l1.91,6.51-3.53.09-1,7.65,5.11,2.54Z" style="fill:#E09F7D"></path><path d="M107.18,395.26l3.62,1.35-3.62,2.6a51.18,51.18,0,0,0,10,7.26l3.76-1.59,4.57.41-4.71,1.18-3.62,2v2.42a13.52,13.52,0,0,0,8.33,0l1.25.41v.88h0l2.16.18.37-.06.38-.06h0l1.41-.29c.46-.1.92-.22,1.39-.34.87-.23,1.73-.48,2.57-.76l.21-.08c.41-.13.82-.29,1.22-.43h0c.42-.16.84-.34,1.25-.51l1.11-.49c.86-.41,1.7-.85,2.51-1.31l1-.59c.11-.08.24-.15.35-.22l.8-.53.08,0a28.7,28.7,0,0,0,6.74-6.32c.26-.32.49-.65.72-1a24.2,24.2,0,0,0,2.26-4.07l.18-.44a21.57,21.57,0,0,0,1.31-4.57l.06-.4.06-.44c0-.22.05-.43.07-.65s0-.44.06-.67c0-.45,0-.89,0-1.35s0-.65,0-1,0-.62-.06-.93v0s0,0,0-.09v0c0-.33-.07-.66-.12-1l-.09-.52c0-.15-.05-.29-.07-.43a.83.83,0,0,0,0-.15h0a2.56,2.56,0,0,0,0-.27c-.06-.27-.12-.54-.19-.8l-.06-.23c0-.09-.05-.17-.07-.26s-.05-.18-.07-.27l0-.08c0-.06,0-.13,0-.2l0-.07c0-.08-.06-.17-.08-.25s-.11-.35-.18-.53a.49.49,0,0,0,0-.11.56.56,0,0,1,0-.12c0-.07-.05-.12-.07-.19s0-.11-.07-.17-.14-.35-.2-.53l0-.05-.23-.53c-.07-.16-.14-.32-.22-.47v0a.36.36,0,0,1,0-.09l-.24-.48a.2.2,0,0,1,0-.08l-.2-.37-.07-.14c-.17-.29-.33-.59-.5-.87l0,0c-.14-.25-.3-.48-.45-.71l-.17-.27s0,0,0,0l-.32-.45a2.14,2.14,0,0,0-.13-.19l-.27-.36-.33-.43c-.13-.17-.26-.34-.4-.5l0,0-.34-.41-.06-.07-.14-.16-.14-.15a1.17,1.17,0,0,0-.15-.16c-.11-.14-.23-.26-.34-.38l-.12-.12-.09-.1-.17-.17-.6-.6-.27-.26-.39-.35-.16-.15,0,0-.14-.12c-.31-.27-.62-.54-1-.8l-.14-.11c-.37-.3-.74-.58-1.13-.87h0c-.39-.28-.79-.55-1.19-.82l-.09-.06-1.34-.83c-.36-.21-.72-.41-1.1-.61-.12-.08-.25-.14-.38-.21-.44-.23-.89-.45-1.34-.66s-1-.45-1.47-.65l0,0L135.9,363l-.73-.26a38.35,38.35,0,0,0-4.12-1.14l-.84-.18h0c-.28-.06-.55-.11-.83-.15-.44-.09-.87-.15-1.31-.22l-.66-.08-1.17-.13-.57-.05c-.22,0-.44,0-.66,0a8.88,8.88,0,0,0-.9-.05c-.59,0-1.19,0-1.8,0h-.66c-3.22.91-7.74,2.45-10.61,4.52l1.91,6.51-3.53.09-1,7.65,5.11,2.54-5.25-1-3.5,7.21Z" style="fill:#fff;opacity:0.2"></path><path d="M141.6,372.5a25.81,25.81,0,0,0-8.44,20.22c.56,9.1,6.54,15.48,10.46,13.94a28.7,28.7,0,0,0,6.74-6.32c.26-.32.49-.65.72-1a24.2,24.2,0,0,0,2.26-4.07l.18-.44a21.57,21.57,0,0,0,1.31-4.57l.06-.4.06-.44c0-.22.05-.43.07-.65s0-.44.06-.67c0-.45,0-.89,0-1.35s0-.65,0-1,0-.62-.06-.93v0s0,0,0-.09v0c0-.21-.05-.41-.07-.62s0-.25,0-.36,0-.06,0-.08,0,0,0-.06,0-.25-.07-.38-.05-.29-.07-.43a.83.83,0,0,0,0-.15h0l0-.14,0-.13c0-.13-.05-.26-.08-.38s-.07-.28-.11-.42l-.06-.23c0-.09-.05-.17-.07-.26s-.05-.18-.07-.27l0-.08a2.76,2.76,0,0,0-.08-.27c0-.08-.06-.17-.08-.25s-.11-.35-.18-.53a.13.13,0,0,1,0-.06l0-.05a.56.56,0,0,1,0-.12c0-.07-.05-.12-.07-.19s0-.11-.07-.17-.14-.35-.2-.53l0-.05-.23-.53c-.07-.16-.14-.32-.22-.47v0a.36.36,0,0,1,0-.09l-.24-.48a.2.2,0,0,1,0-.08l-.2-.37-.07-.14c-.17-.29-.33-.59-.5-.87l0,0a4.55,4.55,0,0,0-.28-.43l-.17-.28-.17-.27s0,0,0,0l-.32-.45c-.13-.18-.26-.37-.4-.55l-.33-.43c-.13-.17-.26-.34-.4-.5l0,0-.34-.41-.06-.07c-.1-.1-.19-.21-.28-.31a1.17,1.17,0,0,0-.15-.16c-.11-.14-.23-.26-.34-.38l-.12-.12-.09-.1-.17-.17-.18-.19c-.11-.1-.21-.21-.31-.31a1,1,0,0,0-.11-.1l-.27-.26-.39-.35-.16-.15,0,0-.14-.12c-.31-.27-.62-.54-1-.8l-.14-.11c-.37-.3-.74-.58-1.13-.87h0c-.39-.28-.79-.55-1.19-.82l-.09-.06-1.34-.83c-.36-.21-.72-.41-1.1-.61-.12-.08-.25-.14-.38-.21-.44-.23-.89-.45-1.34-.66s-1-.45-1.47-.65l0,0L135.9,363l-.73-.26a38.35,38.35,0,0,0-4.12-1.14l-.84-.18h0c-.28-.06-.55-.11-.83-.15-.44-.09-.87-.15-1.31-.22l-.66-.08-1.17-.13-.57-.05c-.22,0-.44,0-.66,0a8.88,8.88,0,0,0-.9-.05c-.59,0-1.19,0-1.8,0h-.66c-3.22.91-7.74,2.45-10.61,4.52C123.64,362.15,135.09,365.91,141.6,372.5Z" style="opacity:0.2"></path><path d="M117.19,410.92a13.52,13.52,0,0,0,8.33,0l1.25.41v.88h0a30.25,30.25,0,0,0,9.3-2.44l-2-.43-2.23-.48A37.13,37.13,0,0,1,117.19,410.92Z" style="opacity:0.2"></path><path d="M117.19,410.92a13.52,13.52,0,0,0,8.33,0l1.25.41h0a33.82,33.82,0,0,0,7.27-2l-2.23-.48A37.13,37.13,0,0,1,117.19,410.92Z" style="opacity:0.2"></path><path d="M148.48,406.61s1.68,5.18,9.5,8.07c0,0,1.28-.05.24-1.46,0,0,1.36-6.4.85-9.9S148.48,406.61,148.48,406.61Z" style="fill:#E09F7D"></path><path d="M158.22,413.23s1.36-6.41.85-9.91a1.34,1.34,0,0,0-.1-.37,1.15,1.15,0,0,0-1.07-.62,3.11,3.11,0,0,1,.26.87c0,.14,0,.3.06.47.46,5.34-1.77,7.6-1.77,7.6l.69,1.19a9.41,9.41,0,0,1-4.81-7.19l.1-.12a21.73,21.73,0,0,1,1.51-1.67,48,48,0,0,0-5.46,3.13s1.68,5.18,9.49,8.07c0,0,.59,0,.65-.47A1.42,1.42,0,0,0,158.22,413.23Z" style="fill:#fff;opacity:0.2"></path><path d="M158.22,413.23s1.36-6.41.85-9.91a1.34,1.34,0,0,0-.1-.37l-.81.25c-1.73.53-3.95,1.25-5.73,1.95A11,11,0,0,0,149.3,407c.68.77,3.15,1.18,3.15,1.18,1.74,3.1,6.17,6,6.17,6A1.42,1.42,0,0,0,158.22,413.23Z" style="opacity:0.2"></path><path d="M166.9,396.6l-2-.59c-2.87,7.7-10,12.61-17.38,11.37-8.5-1.44-14.05-10.56-12.39-20.38s9.89-16.6,18.4-15.16c5.64,1,10,5.28,11.77,11h0s7.37,5.08,7.39,6.84Z" style="fill:#E09F7D"></path><path d="M172.67,389.63c0-1.76-7.39-6.84-7.39-6.84h0c-1.8-5.67-6.13-10-11.77-11-8.51-1.44-16.74,5.35-18.4,15.17l0,.11a19.24,19.24,0,0,0,3.08,14.24,14.81,14.81,0,0,0,6.24,5.11,13.43,13.43,0,0,0,3.09.91c6.72,1.13,13.27-2.87,16.55-9.45.3-.62.58-1.26.83-1.92l2,.59Z" style="fill:#fff;opacity:0.2"></path><path d="M145.56,402c-.5-2.65-5.53-1.26-7.39-.65a14.81,14.81,0,0,0,6.24,5.11A6.07,6.07,0,0,0,145.56,402Z" style="opacity:0.2"></path><path d="M164.88,396a5.85,5.85,0,0,1-4.38-3.43s.67,4,3.55,5.35C164.35,397.31,164.63,396.67,164.88,396Z" style="opacity:0.2"></path><path d="M165.28,382.79h0c-1.8-5.67-6.13-10-11.77-11-8.51-1.44-16.74,5.35-18.4,15.17l0,.11c2.21-6.12,7.3-11.6,13.73-12.9,8.08-1.65,10.72,3.38,10.72,3.38a4.68,4.68,0,0,0-3.83,2.84C159.82,379.63,165.28,382.79,165.28,382.79Z" style="opacity:0.2"></path><path d="M166.9,396.6c1.67.28,5.73-4.3,5.77-7s-9.25-4.85-10.61-2.48C161.11,388.81,165,396.27,166.9,396.6Z" style="fill:#E09F7D"></path><path d="M166.9,396.6c1.67.28,5.73-4.3,5.77-7s-9.25-4.85-10.61-2.48C161.11,388.81,165,396.27,166.9,396.6Z" style="fill:#fff;opacity:0.6000000000000001"></path><path d="M167.05,389.69c-.06-.88-.49-1.57-.94-1.54s-.79.78-.72,1.66.48,1.56.94,1.53S167.11,390.57,167.05,389.69Z" style="opacity:0.30000000000000004"></path><path d="M169.21,390.28c-.22.86,0,1.64.42,1.75s1-.49,1.19-1.35,0-1.64-.42-1.75S169.42,389.43,169.21,390.28Z" style="opacity:0.30000000000000004"></path><path d="M152.77,391.27c.17-1-.18-1.86-.78-2s-1.22.61-1.39,1.59.19,1.86.79,2S152.61,392.25,152.77,391.27Z" style="fill:#263238"></path><path d="M135.84,395.26s-2,9.6,3.28,16.09c0,0,1.13.62,1-1.12,0,0,4.45-4.8,5.81-8.06S135.84,395.26,135.84,395.26Z" style="fill:#E09F7D"></path><path d="M135.84,395.26s-2,9.6,3.28,16.09c0,0,1.13.62,1-1.12,0,0,4.45-4.8,5.81-8.06S135.84,395.26,135.84,395.26Z" style="fill:#fff;opacity:0.2"></path><path d="M139.64,408.92s-1.65-5.85-.57-11.05c0,0,4.18,1.62,5.3,5.1A18.68,18.68,0,0,1,139.64,408.92Z" style="fill:#E09F7D"></path><path d="M120.44,365.48a15.12,15.12,0,0,0,8.27,1.39h0c.6-.05,1.19-.11,1.75-.19l.8-.13c.65-.11,1.26-.24,1.81-.37l.64-.15.75-.21.08,0,.35-.1.38-.11.17-.06.51-.17,0,0,.2-.07-1.07-14c-3.88-4.11-10.48-3.56-10.48-3.56Z" style="fill:#E09F7D"></path><path d="M120.44,365.48a15.12,15.12,0,0,0,8.27,1.39h0c.6-.05,1.19-.11,1.75-.19l.8-.13c.65-.11,1.26-.24,1.81-.37l.64-.15.75-.21.08,0,.35-.1.38-.11.17-.06.51-.17,0,0,.2-.07-1.07-14c-3.88-4.11-10.48-3.56-10.48-3.56Z" style="fill:#fff;opacity:0.2"></path><path d="M125,349.12,133.5,352l-.3,11.65a9.79,9.79,0,0,1-4.48,3.21c.6-.05,1.19-.11,1.75-.19l.8-.13c.65-.11,1.26-.24,1.81-.37l.64-.15.75-.21.08,0,.35-.1.38-.11.17-.06c.21-.06.38-.12.51-.17l0,0,.2-.06h0l-1.07-14c-3.88-4.11-10.48-3.56-10.48-3.56l-4.21,17.81Z" style="opacity:0.2"></path><path d="M128.94,412.39l-.68.11.71-.1Z" style="fill:#fff"></path><path d="M52.5,407.16l3.59,1.91L67,407.88s-4.78-2.48-8-2.51Z" style="fill:#E09F7D"></path><path d="M52.5,408.08l2.8.06,2,.93L67,408.8s-4.78-2.48-8-2.51Z" style="fill:#fff;opacity:0.2"></path><path d="M164.88,414.15l3.8.53,8.09-1.8-3.66-1.69S167.24,411.65,164.88,414.15Z" style="fill:#E09F7D"></path><path d="M164.88,414.15H169l5.61-1.75-1.45-1.21S167.24,411.65,164.88,414.15Z" style="fill:#fff;opacity:0.2"></path><path d="M118.45,413.59l-3.68,1.09-8.27-.56,3.37-2.22S115.74,411.47,118.45,413.59Z" style="fill:#E09F7D"></path><path d="M118.45,413.59l-4,.61-5.81-.88,1.26-1.42S115.74,411.47,118.45,413.59Z" style="fill:#fff;opacity:0.2"></path><path d="M90.76,410.46c0-.37-1.68-.67-3.76-.67s-3.76.3-3.76.67v.74c0,.37,1.68.66,3.76.66s3.76-.29,3.76-.66Z" style="fill:#263238"></path><path d="M90.76,410.46c0-.37-1.68-.67-3.76-.67s-3.76.3-3.76.67v.74c0,.37,1.68.66,3.76.66s3.76-.29,3.76-.66Z" style="fill:#fff;opacity:0.4"></path><path d="M90.76,410.46c0,.36-1.68.66-3.76.66s-3.76-.3-3.76-.66,1.68-.67,3.76-.67S90.76,410.09,90.76,410.46Z" style="fill:#fff;opacity:0.2"></path><path d="M90,410.41a.09.09,0,0,1,0,.06,7.22,7.22,0,0,0-3-.38,7.22,7.22,0,0,0-3,.38.09.09,0,0,1,0-.06c0-.23,1.36-.42,3-.42S90,410.18,90,410.41Z" style="opacity:0.2"></path><path d="M90,410.47a7.76,7.76,0,0,1-3,.36,7.76,7.76,0,0,1-3-.36,7.22,7.22,0,0,1,3-.38A7.22,7.22,0,0,1,90,410.47Z" style="fill:#fff;opacity:0.2"></path><path d="M102.78,403.43c-.1-.35-1.8-.21-3.81.32s-3.56,1.24-3.47,1.6l.19.71c.09.36,1.8.22,3.81-.31s3.56-1.25,3.47-1.6C102.93,404,102.81,403.56,102.78,403.43Z" style="fill:#263238"></path><path d="M102.78,403.43c-.1-.35-1.8-.21-3.81.32s-3.56,1.24-3.47,1.6l.19.71c.09.36,1.8.22,3.81-.31s3.56-1.25,3.47-1.6C102.93,404,102.81,403.56,102.78,403.43Z" style="fill:#fff;opacity:0.4"></path><path d="M102.78,403.43c.09.35-1.46,1.07-3.47,1.6s-3.72.67-3.81.32,1.46-1.07,3.47-1.6S102.68,403.08,102.78,403.43Z" style="fill:#fff;opacity:0.2"></path><path d="M102.05,403.57a.07.07,0,0,1,0,.06,7.44,7.44,0,0,0-3,.4,7.24,7.24,0,0,0-2.8,1.13.07.07,0,0,1,0-.05c-.06-.22,1.2-.75,2.81-1.17S102,403.34,102.05,403.57Z" style="opacity:0.2"></path><path d="M102,403.63a7.64,7.64,0,0,1-2.81,1.12,7.49,7.49,0,0,1-3,.41A7.24,7.24,0,0,1,99,404,7.44,7.44,0,0,1,102,403.63Z" style="fill:#fff;opacity:0.2"></path></g></svg>
