<svg xmlns="http://www.w3.org/2000/svg" viewBox="0 0 500 500"><g id="freepik--Character--inject-208"><polygon points="373.94 343.63 360.6 343.63 359.5 344.56 313.35 278.73 219.95 254.94 179.34 159.46 110.76 107.74 77.92 107.74 57.92 171.21 120.31 198.57 175.28 285.88 283.24 305.45 337.08 363.52 327.03 372.02 365.82 383.85 375.99 383.85 373.94 343.63" style="fill:#E09F7D"></polygon><polygon points="373.94 343.63 360.6 343.63 359.5 344.56 313.35 278.73 219.95 254.94 179.34 159.46 110.76 107.74 77.92 107.74 57.92 171.21 120.31 198.57 175.28 285.88 283.24 305.45 337.08 363.52 327.03 372.02 365.82 383.85 375.99 383.85 373.94 343.63" style="fill:#fff;isolation:isolate;opacity:0.25"></polygon><polygon points="365.82 383.85 360.6 343.63 351.51 351.31 294.91 278.73 199.64 254.94 151.52 159.46 77.92 107.74 57.92 171.21 120.31 198.57 175.28 285.88 283.24 305.45 337.08 363.52 327.03 372.02 365.82 383.85" style="fill:#E09F7D"></polygon><polygon points="179.34 159.46 151.52 159.46 77.92 107.74 110.76 107.74 179.34 159.46" style="fill:#fff;isolation:isolate;opacity:0.25"></polygon><polygon points="199.64 254.94 219.95 254.94 313.35 278.73 294.91 278.73 199.64 254.94" style="fill:#fff;isolation:isolate;opacity:0.25"></polygon><path d="M251.38,185.93a118.64,118.64,0,0,1-6.27,18.48c-2.2,4.8-4.55,9.73-8.82,13.51-10.36,8.67-19.14-5.38-23-13.66a117.29,117.29,0,0,1-6.81-18,2.55,2.55,0,0,1,4.76-1.77c2.7,5.47,5.63,11,8.78,16.08,2.29,3.6,4.64,7.24,7.75,9.87a3.74,3.74,0,0,0,1.76.94s-.26,0-.15-.07c3.07-2.62,4.68-6.95,6.42-10.85a172.86,172.86,0,0,0,5.68-17.19c2-6.36,11.34-3.87,9.9,2.66Z" style="fill:#b97864"></path><path d="M242.14,140.12c-.82-3.29,5.74-7.48,9.35-5.46s6.53,4.65,11.11,3.25,9.09-.15,9.24,5-1.7,7.9,2.17,9.14,7.13,6.38,5.11,9.08-4.64,5.62-2.32,6.4,4.18,5.28,1.24,6.37,2.63,3.71-.31,8-23.06,15.34-30.35,12.4-8.15-5.65-6.95-9.64-2.52-4.66-3.76-9,0-6,0-6-4,3.9-1.55,6,3.41,4.36,1.55,6.53-.15,4.89-.15,4.89a2.63,2.63,0,0,1-2.2-2.44c-.13-2.14,2.51-4.41-.59-7s-4.34-5.37-2.17-8.16.62-4.94-.31-8.43,0-7.84,3.1-9.08c0,0-3.72-2.79-.78-7.28S242.14,140.12,242.14,140.12Z" style="fill:#263238"></path><path d="M229.15,176.74a.31.31,0,0,1-.19-.06,3.89,3.89,0,0,1-1.63-2.85,4.43,4.43,0,0,1,1.61-3.32c1.68-1.56,2.66-4.26,1.27-6.41s-2.25-6.59,0-10a5.1,5.1,0,0,1,5.23-2.56.3.3,0,0,1-.14.59c-.11,0-2.65-.6-4.59,2.31-2.08,3.13-1.23,7.41,0,9.32,1.38,2.14.81,5.15-1.37,7.17a3.82,3.82,0,0,0-1.41,2.86,3.29,3.29,0,0,0,1.39,2.39.29.29,0,0,1,0,.42A.28.28,0,0,1,229.15,176.74Z" style="fill:#263238"></path><path d="M276.82,147.39h0c-.86,0-3-.63-4.54-6.3-1.45-5.39-5.41-4.69-9.24-4a12.31,12.31,0,0,1-4.37.3,11.08,11.08,0,0,1-3.58-1.69c-2.31-1.43-4.71-2.92-9.17-1.27-2.15.79-3.4,1.84-3.7,3.11a4.09,4.09,0,0,0,1,3.27.31.31,0,0,1,0,.43.3.3,0,0,1-.43,0,4.67,4.67,0,0,1-1.16-3.83c.35-1.48,1.73-2.67,4.08-3.54,4.74-1.75,7.37-.12,9.7,1.33a11,11,0,0,0,3.39,1.61,12.07,12.07,0,0,0,4.13-.31c3.72-.66,8.34-1.48,9.94,4.45,1.32,4.91,3,5.71,3.72,5.83a1.08,1.08,0,0,0,.75-.11.25.25,0,0,1,0-.22.29.29,0,0,1,.41-.1.4.4,0,0,1,.19.46A1.17,1.17,0,0,1,276.82,147.39Z" style="fill:#263238"></path><path d="M279.38,167.38a.31.31,0,0,1-.13,0,1.74,1.74,0,0,1-1-1.48,5.6,5.6,0,0,1,2-4.14,4.22,4.22,0,0,0,.79-3.58c-.29-1.62-1.44-3.8-5.28-5-3.11-.93-4.93-2.14-5.42-3.59a2.3,2.3,0,0,1,.24-2,.31.31,0,0,1,.43-.06.3.3,0,0,1,.06.42,1.67,1.67,0,0,0-.15,1.43c.3.86,1.4,2.11,5,3.19,4.35,1.31,5.44,4,5.7,5.44.32,1.8-.26,3.61-1,4.17a5,5,0,0,0-1.74,3.59,1.14,1.14,0,0,0,.65,1,.3.3,0,0,1,.15.4A.32.32,0,0,1,279.38,167.38Z" style="fill:#263238"></path><path d="M244.5,179.16c-6,2.75-7.83,16-10.46,22.84l10.56,5.63,9.31-15.34Z" style="fill:#E09F7D"></path><path d="M253.91,192.29l-8.2,13.52-1.1,1.82L234,202c2.63-6.87,4.49-20.08,10.46-22.84l4.88,6.82Z" style="isolation:isolate;opacity:0.30000000000000004"></path><path d="M253.91,192.29l-8.2,13.52c-7.59-7-.41-17.34-.41-17.34.83-.17,3.4-2.55,4.08-2.49Z" style="isolation:isolate;opacity:0.2"></path><path d="M253.87,232.51l35.57-3.3c-1.11-3.78-2.09-7.5-2.92-11.09-1-4.37-1.87-8.58-2.53-12.49s-1.2-7.57-1.6-10.86c0-.32-.08-.63-.11-.94-.06-.52-.11-1-.17-1.52-.34-3.19-.57-6-.72-8.26-.3-4.48-.3-7.06-.3-7.06a74.39,74.39,0,0,0-36.59,2.17C239.22,194.06,253.87,232.51,253.87,232.51Z" style="fill:#E09F7D"></path><path d="M289.44,229.21l-35.57,3.3s-14.65-38.45-9.37-53.35A74.53,74.53,0,0,1,281.09,177s0,2.58.3,7.06c.15,2.28.38,5.06.72,8.25,0,.27.06.54.09.82s.06.47.08.71.07.62.11.94c.4,3.29.91,6.94,1.6,10.86.39,2.29.83,4.68,1.34,7.15q.54,2.63,1.19,5.34C287.35,221.71,288.32,225.42,289.44,229.21Z" style="isolation:isolate;opacity:0.30000000000000004"></path><path d="M285.33,212.78a6.86,6.86,0,0,1-1.48-.4C274,208.46,276,190.91,276,190.91a13.08,13.08,0,0,1,6.24,2.21c0,.23.06.47.08.71s.07.62.11.94c.4,3.29.91,6.94,1.6,10.86C284.38,207.92,284.82,210.31,285.33,212.78Z" style="isolation:isolate;opacity:0.2"></path><path d="M187.17,351.61c6.45-3,7.27-3.48,10.84-5.27,3.06-1.54,4-1.56,6.43-2.77,2.07-1,1.2-2.67-.36-4.33-.78-.84-2.24-2.69-3.43-4.08l-8,.72c-.32,2.79-3.58,10.38-7,12.48C182.32,350.38,184.6,352.81,187.17,351.61Z" style="fill:#263238"></path><path d="M254.4,228.46l-.64,6.73s-39.42,6-45.73,12.16-16.57,89.92-16.57,89.92h11s18.42-57,20.1-67.38c0,0,26.38,1,45.21,1s21.09-42.46,21.09-42.46Z" style="fill:#263238"></path><path d="M288.88,228.46s-2.24,42.45-21.08,42.45c-3.19,0-6.61,0-10.07-.08l-3,0-3.85-.07c-.93,0-1.87-.05-2.79-.06-9.93-.23-19-.54-23.12-.68h-.32l-2-.09h0c-.47,2.86-2.19,9.2-4.45,16.93-6,20.43-15.66,50.44-15.66,50.44h-11s10.26-83.75,16.57-89.91,45.73-12.17,45.73-12.17l.63-6.73Z" style="fill:#fff;opacity:0.30000000000000004"></path><path d="M259.61,237.84l-1.88,33h0c-1,0-2,0-3,0l-3.85-.07-2.79-.06c-10-.22-19-.52-23.12-.68h-.32l-2-.08c-.47,2.86-2.19,9.2-4.45,16.93,1.21-15.17,2.45-30.35,3.66-31.41C238.18,241.3,259.61,237.84,259.61,237.84Z" style="isolation:isolate;opacity:0.2"></path><path d="M275.14,198.82a12.65,12.65,0,0,1-3.71,1.51c-2.27.54-3.2-1.37-5-1.82s-1.57,1.15-1.57,1.15a27.78,27.78,0,0,1-.48-9.56,41.77,41.77,0,0,1,2.05-9.11l8.72-5.28h0a13.71,13.71,0,0,0-1,2,23,23,0,0,0-1.68,9.45A28.67,28.67,0,0,0,275.14,198.82Z" style="fill:#E09F7D"></path><path d="M275.13,175.71a13.71,13.71,0,0,0-1,2,30.75,30.75,0,0,0-5.6,7.39,16.06,16.06,0,0,1-4.2,5,41.77,41.77,0,0,1,2.05-9.11l8.72-5.28Z" style="isolation:isolate;opacity:0.2"></path><path d="M252.51,174.86c3-1.29,7.09-1.19,9,1.42s-4.65,9.53-7.63,7S250,176,252.51,174.86Z" style="fill:#E09F7D"></path><path d="M252.51,174.86c3-1.29,7.09-1.19,9,1.42s-4.65,9.53-7.63,7S250,176,252.51,174.86Z" style="isolation:isolate;opacity:0.2"></path><path d="M267.3,175.85l-1.71,2.93-1.39,2.39a7.07,7.07,0,0,1-12.26-.1h0a8.06,8.06,0,0,0,3.05-3,5.7,5.7,0,0,0,.62-2.79,7,7,0,0,0-.23-1.56,15.52,15.52,0,0,0-1.47-3.59l7-11h0l.24-.39,0,.32c.09,1.23.25,2.64.45,4.11h0a44.29,44.29,0,0,0,.9,4.62C263.49,171.37,265,174.68,267.3,175.85Z" style="fill:#b97964"></path><path d="M262.55,167.72c-1.42,4.29-3.76,8.8-7.56,10.32a5.7,5.7,0,0,0,.62-2.79,7,7,0,0,0-.23-1.56,15.52,15.52,0,0,0-1.47-3.59l7-11h0l.26-.07c.09,1.23.25,2.64.45,4.11h0A44.29,44.29,0,0,0,262.55,167.72Z" style="isolation:isolate;opacity:0.2"></path><path d="M252.51,174.86s1.13,5,5.08,4.3,8.91-6.39,11.77-6.7,3.41,1.71,3.41,1.71,2-.73,3.18,2c0,0-1.94.37-5,3.78s-8.76,10.92-15.81,8.83-4.47-9.42-4.47-9.42S249.76,176.22,252.51,174.86Z" style="fill:#E09F7D"></path><path d="M248,146.21c-8.23,2.07-9.76,7.15-8.23,15.78,1.92,10.79,6.17,17.73,15.89,12.87C268.82,168.26,261.63,142.76,248,146.21Z" style="fill:#b97964"></path><path d="M244.94,160.19a17.87,17.87,0,0,1-1.54,4,2.34,2.34,0,0,0,2.41.38Z" style="fill:#a24e3f"></path><path d="M249.8,158.24c.16.68.65,1.15,1.11,1s.69-.74.54-1.42-.65-1.15-1.1-1S249.65,157.56,249.8,158.24Z" style="fill:#263238"></path><path d="M250.54,156.82l-1.61-.25S250,157.65,250.54,156.82Z" style="fill:#263238"></path><path d="M241.32,160c.15.68.65,1.14,1.1,1s.69-.74.54-1.42-.65-1.15-1.1-1S241.16,159.35,241.32,160Z" style="fill:#263238"></path><path d="M242.06,158.6l-1.62-.25S241.46,159.43,242.06,158.6Z" style="fill:#263238"></path><path d="M239.13,157a.36.36,0,0,1-.35-.3.37.37,0,0,1,.29-.42,3.6,3.6,0,0,0,2.33-2.09.37.37,0,0,1,.49-.16.36.36,0,0,1,.16.49,4.29,4.29,0,0,1-2.86,2.47Z" style="fill:#263238"></path><path d="M249.93,154.65a4,4,0,0,1-2.81-1,.36.36,0,0,1,.51-.51,3.61,3.61,0,0,0,3.05.7.37.37,0,0,1,.41.31.36.36,0,0,1-.3.41A6.79,6.79,0,0,1,249.93,154.65Z" style="fill:#263238"></path><path d="M260.46,157.81s-5.56-5.79-6.29-11.16c0,0-18-2.55-14.62,14.21,0,0-5.3-14.3,8.77-18.2s19.22,16.82,13.47,24.83C261.79,167.49,263.91,161.44,260.46,157.81Z" style="fill:#263238"></path><path d="M259.55,159.89a3.72,3.72,0,0,1,3.06-4.28c2.62-.37,5.15,4.56-.87,7.42C260.87,163.44,260.13,162.68,259.55,159.89Z" style="fill:#b97964"></path><path d="M247.63,168.79a.28.28,0,0,1-.13,0,.35.35,0,0,1-.21-.46c1.38-3.5,5.24-2.9,5.28-2.89a.35.35,0,0,1,.29.41.36.36,0,0,1-.41.3c-.13,0-3.33-.5-4.49,2.44A.36.36,0,0,1,247.63,168.79Z" style="fill:#263238"></path><path d="M262.91,154.16c-4-9.93-21-15.57-24.35-2.44a15.78,15.78,0,0,1,3.83-8.63s14.62-7.48,20.82,9.63Z" style="fill:#E09F7D"></path><path d="M255,360.13c4.82-5.23,5.39-6,8-9,2.24-2.58,3.07-2.94,4.89-5,1.53-1.72.09-2.93-2-3.87-1-.48-3.09-1.63-4.72-2.46l-7.14,3.72c.77,2.7.64,11-1.74,14.22C250,360.84,253.07,362.22,255,360.13Z" style="fill:#263238"></path><path d="M288.89,228.46s12.18,18,5.55,32.87-39.84,8.14-39.84,8.14l8.57,70.94-9.28,4.17s-25-72.66-26-86.29,39.19-22.38,39.19-22.38Z" style="fill:#263238"></path><path d="M288.89,228.46s12.18,18,5.55,32.87-39.84,8.14-39.84,8.14l8.57,70.94-9.28,4.17s-25-72.66-26-86.29,39.19-22.38,39.19-22.38Z" style="fill:#fff;opacity:0.30000000000000004"></path><path d="M286.13,181.23a118,118,0,0,1,4.44,19c.67,5.23,1.27,10.66-.35,16.12-4.23,12.84-19.1,5.54-26.75.55a115,115,0,0,1-15.28-11.69,2.55,2.55,0,0,1,3.1-4c5.19,3.23,10.57,6.34,16,9,3.84,1.84,7.76,3.69,11.79,4.28a3.69,3.69,0,0,0,2-.13s-.23.13-.17,0c1.22-3.84.3-8.38-.29-12.6a171.43,171.43,0,0,0-4.25-17.6c-1.66-6.46,7.59-9.27,9.81-3Z" style="fill:#b97864"></path><path d="M251.51,235.51c-5.7,4.24-19.95,12.24-15.3,23.08s4.13,32.21-.83,41.35.82,25.11.82,25.11-18.66-2.16-27.34-.34c0,0-5-15.65-1.57-26.64s7-16,3.48-28.73-3.39-20.61,3.2-28.51,17.89-6.48,16.81-12.68-4.89-20.36-11.9-23c-15.46-5.87-15.83-17.54-19-22.65,3.4-2.23,7.09-.51,9.37-2.34,6.35-5.11,13.78-1.58,18,6.64s15.12,10,19.72,15.23S257.22,231.26,251.51,235.51Z" style="fill:#263238"></path><path d="M253.89,228.26c-.09,3.39-.8,6.07-2.38,7.25l-.14.12h0c-2.93,2.16-8,5.27-11.59,9.19-3.41,3.66-5.63,8.05-3.84,13.05.09.24.17.48.28.72,3.29,7.66,4,20.59,2.37,30.73a34.51,34.51,0,0,1-3.19,10.62,16.51,16.51,0,0,0-1.79,5.94c-1.14,8.8,2.6,19.17,2.6,19.17s-18.66-2.17-27.33-.35a66.38,66.38,0,0,1-2.77-17.34,31,31,0,0,1,1.19-9.29c.79-2.52,1.58-4.73,2.29-6.79,2.41-6.91,3.91-12.15,1.19-21.93a57.48,57.48,0,0,1-2.23-11.78,21.8,21.8,0,0,1,3-13.33,25.84,25.84,0,0,1,2.43-3.4c3-3.56,6.87-5.22,10.18-6.54,3.89-1.56,7-2.64,6.69-5.74,0-.14,0-.27-.06-.4-.88-5-3.46-14.94-8-20.15a11.38,11.38,0,0,0-2.34-2.09,8.36,8.36,0,0,0-1.54-.8c-14.65-5.56-15.74-16.32-18.51-21.78-.16-.31-.31-.6-.48-.87,3.39-2.23,7.08-.51,9.37-2.34,5.92-4.77,12.77-2,17.06,5,.31.51.62,1,.9,1.6,1.89,3.69,5.13,6.08,8.55,8.07,4.19,2.45,8.63,4.29,11.17,7.16,1.41,1.6,2.91,4.95,4.17,9C252.81,216.46,254.05,223.16,253.89,228.26Z" style="fill:#fff;isolation:isolate;opacity:0.8"></path><path d="M205.11,195.57l2.19,3.79a2.83,2.83,0,0,0,2.78,1.4l3.48-.39-3.88-7.25-3.64.53A1.29,1.29,0,0,0,205.11,195.57Z" style="fill:#b97964"></path><path d="M226.32,185.17c-3.74-1.82-11.51-3.95-25.95-1.83-.16-.31-.31-.6-.48-.87,3.39-2.23,7.08-.51,9.37-2.34C215.18,175.36,222,178.12,226.32,185.17Z" style="isolation:isolate;opacity:0.1"></path><path d="M251.11,211c-4.34-.08-10.07-3.39-15.72-4.68A20,20,0,0,0,222.76,208a11.38,11.38,0,0,0-2.34-2.09c3.87-1.59,8.92-9,15.35-11.08,4.19,2.45,8.63,4.29,11.17,7.16C248.35,203.6,249.85,207,251.11,211Z" style="isolation:isolate;opacity:0.05"></path><path d="M253.89,228.26c-.09,3.39-.8,6.07-2.38,7.25l-.14.12h0a81.24,81.24,0,0,0-16.7.2c-5.9.83-9-.44-10.5-1.53,3.89-1.56,7-2.64,6.69-5.74a16.66,16.66,0,0,1,7.42.76c4.65,1.55,6.71-.93,11.46-1.55A9,9,0,0,1,253.89,228.26Z" style="isolation:isolate;opacity:0.08"></path><path d="M187.6,208.56s-7.77-16.32-2.6-26.09c3.26-6.17,31.55-4.63,31.55-4.63s-12.86.35-3.88,29.51C212.67,207.35,196.9,205.66,187.6,208.56Z" style="fill:#263238"></path><path d="M187.6,208.56s-7.77-16.32-2.6-26.09c3.26-6.17,31.55-4.63,31.55-4.63s-12.86.35-3.88,29.51C212.67,207.35,196.9,205.66,187.6,208.56Z" style="fill:#fff;isolation:isolate;opacity:0.9"></path><g style="opacity:0.4"><path d="M202.27,199.49c-.19-.8.33-1.26,1.53-1.22.76,0,1.52.08,2.27.13.36,1.59.73,3.19,1.09,4.79-.71-.07-1.42-.12-2.14-.16-1.09-.06-1.81-.54-2-1.3a.85.85,0,0,1,.4-1A1.58,1.58,0,0,1,202.27,199.49Zm.7.07c.12.55.59.8,1.35.84l1.56.09-.36-1.58c-.52,0-1-.07-1.57-.09C203.2,198.79,202.84,199,203,199.56Zm3.38,3c-.11-.51-.23-1-.34-1.53-.47,0-.93-.07-1.4-.09-.69,0-1,.21-.91.71s.57.77,1.26.81Z"></path><path d="M202,202.92h-.68c-.36-1.56-.73-3.13-1.09-4.69h.68C201.28,199.78,201.64,201.35,202,202.92Z"></path><path d="M199.89,202.92l-.69,0c-.31-1.37-.63-2.73-.95-4.08-.87,0-1.73.08-2.59.15,0-.19-.09-.38-.14-.57,1.09-.09,2.18-.15,3.28-.19C199.16,199.81,199.52,201.36,199.89,202.92Z"></path><path d="M195.83,203.11l-.69,0c-.31-1.34-.63-2.68-.95-4-.86.08-1.73.19-2.59.3,0-.18-.09-.37-.13-.56,1.09-.15,2.17-.28,3.27-.38C195.1,200,195.46,201.57,195.83,203.11Z"></path><path d="M191.29,199.44c0,.18-.09.36-.13.54a2.64,2.64,0,0,0-1.7-.27c-.82.14-1.1.51-1,.9.27,1.08,3-.08,3.39,1.63.17.7-.26,1.37-1.51,1.56a3.26,3.26,0,0,1-1.63-.14c0-.19.07-.37.1-.56a2.73,2.73,0,0,0,1.39.15c.81-.13,1.09-.5,1-.89-.27-1.13-3,0-3.38-1.59-.17-.68.27-1.39,1.53-1.61A3,3,0,0,1,191.29,199.44Z"></path></g><g style="opacity:0.4"><path d="M195.79,196.11a.15.15,0,0,1-.15-.14.14.14,0,0,1,.14-.16,86.13,86.13,0,0,1,12.39-.21.16.16,0,0,1,.15.16.15.15,0,0,1-.16.14,85.72,85.72,0,0,0-12.36.21Z"></path><path d="M207.39,193.27h0a70.84,70.84,0,0,0-8.81-.17.17.17,0,0,1-.16-.15.15.15,0,0,1,.15-.15,75.5,75.5,0,0,1,8.85.16.16.16,0,0,1,.14.17A.15.15,0,0,1,207.39,193.27Z"></path><path d="M184.82,195a.15.15,0,0,1-.15-.11.16.16,0,0,1,.11-.19c1.48-.37,3.05-.7,4.66-1a.17.17,0,0,1,.18.13.16.16,0,0,1-.13.17c-1.6.27-3.16.59-4.63,1Z"></path><path d="M210.64,180.1h0a61.74,61.74,0,0,0-12.78-.46.16.16,0,0,1-.17-.14.15.15,0,0,1,.14-.16,62.46,62.46,0,0,1,12.86.46.15.15,0,0,1,.13.17A.15.15,0,0,1,210.64,180.1Z"></path><path d="M186.68,181.91a.15.15,0,0,1-.14-.1.14.14,0,0,1,.09-.19,33.6,33.6,0,0,1,5.73-1.6.15.15,0,0,1,.18.13.14.14,0,0,1-.12.17,33.39,33.39,0,0,0-5.69,1.58Z"></path><path d="M191.42,190.93a.14.14,0,0,1-.15-.13.14.14,0,0,1,.13-.17,67,67,0,0,1,15.77-.24.15.15,0,0,1,.14.16.15.15,0,0,1-.17.14,66.91,66.91,0,0,0-15.7.24Z"></path><path d="M184.82,189.55a.14.14,0,0,1-.14-.09.16.16,0,0,1,.08-.2,33.26,33.26,0,0,1,7.13-1.6.15.15,0,0,1,.17.13.16.16,0,0,1-.13.17,32.29,32.29,0,0,0-7.05,1.58Z"></path><path d="M207.39,187.9h0a72.17,72.17,0,0,0-8.07-.42h0a.16.16,0,1,1,0-.31,75.74,75.74,0,0,1,8.12.43.15.15,0,0,1,.13.16A.15.15,0,0,1,207.39,187.9Z"></path><path d="M207.39,185.58h0a43.13,43.13,0,0,0-11.86-.41c-.07,0-.15,0-.16-.14a.15.15,0,0,1,.14-.16,43.3,43.3,0,0,1,11.94.42.15.15,0,0,1,.12.17A.16.16,0,0,1,207.39,185.58Z"></path><path d="M185.75,184.18a.15.15,0,0,1-.14-.1.14.14,0,0,1,.09-.19,41.13,41.13,0,0,1,4.9-1.14.15.15,0,0,1,.17.13.14.14,0,0,1-.12.17,44.69,44.69,0,0,0-4.85,1.12Z"></path><path d="M208.16,183h0a42.8,42.8,0,0,0-8.33-.81.14.14,0,0,1-.15-.15.15.15,0,0,1,.15-.15h0a42.65,42.65,0,0,1,8.39.81.15.15,0,0,1,.12.18A.15.15,0,0,1,208.16,183Z"></path></g><path d="M235.93,257.87a21.67,21.67,0,0,0-5.46.77c-5,1.43-14.88.08-21.93-1.07a21.8,21.8,0,0,1,3-13.33c4.85.31,10.12.7,12.61,1,3.8.45,10.52-.63,15.61-.41C236.36,248.48,234.14,252.87,235.93,257.87Z" style="fill:#fff;isolation:isolate;opacity:0.1"></path><path d="M238.58,289.32a34.51,34.51,0,0,1-3.19,10.62,16.51,16.51,0,0,0-1.79,5.94c-6.55,1.11-18.35,2.69-27.5,1.48a31,31,0,0,1,1.19-9.29c.79-2.52,1.58-4.73,2.29-6.79,3.22,1.37,7.95,2.24,14.58,1.07C230.09,291.3,234.9,290.25,238.58,289.32Z" style="fill:#fff;isolation:isolate;opacity:0.1"></path><path d="M252,201.26l-6.77-4.41L244,205.73s6.27,3.57,8,.26Z" style="fill:#b97964"></path><polygon points="237.2 196.6 238.79 204.58 244.03 205.73 245.2 196.85 237.2 196.6" style="fill:#b97964"></polygon><path d="M281.09,177c8,1.36,10.12,12.41,12.44,25l-15.85,2.84s-1.64-11.72-3.2-17.73C272.41,179.16,281.09,177,281.09,177Z" style="fill:#E09F7D"></path><path d="M281.09,177c8,1.36,10.12,12.41,12.44,25l-15.85,2.84s-1.64-11.72-3.2-17.73C272.41,179.16,281.09,177,281.09,177Z" style="isolation:isolate;opacity:0.30000000000000004"></path></g></svg>
