<svg xmlns="http://www.w3.org/2000/svg" viewBox="0 0 500 500"><g id="freepik--Character--inject-425"><path d="M335.54,407.63l5.69,59.95H202.76s3.75-64,8.08-64S335.54,407.63,335.54,407.63Z" style="fill:#263238"></path><path d="M202.71,144.25a26.92,26.92,0,0,1,3.69-10.19,12.63,12.63,0,0,1,8.84-5.79c3.61-.37,7.54,1.68,8.7,5.13l2.78.24c-4.28,4.18-5.78,10.4-6.51,16.34s.56,11.07-1.79,16.56c-3.65-2.9-7.89-5.91-9.32-10.35a13.15,13.15,0,0,0,1,9.18c-3.79-1.45-6.41-5.13-7.45-9.05S202,148.24,202.71,144.25Z" style="fill:#263238"></path><path d="M219.5,130c-.67-12.63,14.22-18.39,24.1-20.76s20.44.17,29.12,5.2,15.71,12.39,22,20.14l-6.84,2.86c1.93-.89,4.3.17,5.52,1.86a12.65,12.65,0,0,1,1.82,5.89,94.92,94.92,0,0,1,1,14.87c-.37,13-4.78,25.59-9.14,37.94-4.36-8.87-5.2-19-5.66-28.88-.16-3.5-.36-7.23-2.44-10.07-1.87-2.55-5-3.94-8.1-4.69s-6.36-1-9.48-1.74a26.51,26.51,0,0,1-16.55-12.51Z" style="fill:#263238"></path><path d="M280.63,149l15.1,72.37c2.56,12.31,3.82,30.92-15.83,34.09h0C262.65,257,255,241.84,252.66,230.35c-1.13-5.45-2.09-10-2.24-10.54,0,0-18.78,2.1-23.92-15.85-2.48-8.68-6.13-27-9.25-43.56a34.8,34.8,0,0,1,25.07-40l1.73-.47C263.1,115.94,277.15,129.88,280.63,149Z" style="fill:#ffbf9d"></path><path d="M250.42,219.81S262,217.38,272,206.48c0,0-2.13,14.72-20.56,18Z" style="fill:#ff9a6c"></path><path d="M246.44,184.56c0-.16-1.83,0-4.72.42-.72.12-1.43.16-1.68-.29a3.7,3.7,0,0,1-.1-2.23c.2-1.89.4-3.87.62-6,.82-8.46,1.2-15.33.86-15.36s-1.28,6.8-2.09,15.25c-.19,2.08-.36,4.07-.53,6a4.22,4.22,0,0,0,.39,2.87,1.85,1.85,0,0,0,1.45.72,5.34,5.34,0,0,0,1.24-.16C244.73,185.18,246.47,184.72,246.44,184.56Z" style="fill:#263238"></path><path d="M282.8,162.77c.27-.22,11.38-7,14.35,5.39S287,181,286.92,180.65,282.8,162.77,282.8,162.77Z" style="fill:#ffbf9d"></path><path d="M289.59,175c0-.05.25.11.66.19a2.25,2.25,0,0,0,1.62-.36c1.2-.79,1.81-3.14,1.34-5.39a7.47,7.47,0,0,0-1.35-3,2.56,2.56,0,0,0-2-1.27,1.13,1.13,0,0,0-1.14.9c-.08.38.05.61,0,.65s-.31-.15-.33-.68a1.38,1.38,0,0,1,.3-.9,1.69,1.69,0,0,1,1.12-.6A3.12,3.12,0,0,1,292.5,166a7.51,7.51,0,0,1,1.58,3.28c.51,2.53-.21,5.17-1.88,6.12a2.39,2.39,0,0,1-2.06.15C289.68,175.33,289.55,175.07,289.59,175Z" style="fill:#ff9a6c"></path><path d="M220.81,136.45c-4.06-7,1.16-12.13,6.42-18.23a20,20,0,0,1,22-5.36c3.92,1.57,7.2,4.35,10.84,6.49s8.05,3.63,12.05,2.3a15.09,15.09,0,0,1-15.63,7.12,37.84,37.84,0,0,0,20.69,6.75,13.72,13.72,0,0,1-17.42,2.12,38.23,38.23,0,0,0,13.09,13.12c.91.55,2,1.27,1.93,2.32s-1.19,1.74-2.21,2.07a17.68,17.68,0,0,1-17.47-4c-4.85-4.7-8.66-10.06-13.26-15-2.19-2.35-8.09-5.89-11.79-5-3.08.74-8.62,3.38-9.29,6.48" style="fill:#263238"></path><path d="M246.78,122.18A3.78,3.78,0,0,1,249,120c6.46-3,14.44-.8,19.89,3.8s8.82,11.16,11.62,17.72c2.27,5.33,4.3,11,3.92,16.76l-2.09,5.29c-.65,1.57-.18,3.34-.13,5s-.72,3.74-2.4,4a3.42,3.42,0,0,1-3-1.86c-2-3.18-1.65-7.47-3.78-10.57-1.43-2.08-3.78-3.3-5.75-4.88-3.49-2.78-5.84-6.7-8.12-10.54l-11.5-19.37A4.31,4.31,0,0,1,246.78,122.18Z" style="fill:#263238"></path><path d="M220.81,136.45c-4.06-7,1.16-12.13,6.42-18.23a20,20,0,0,1,22-5.36c3.92,1.57,7.2,4.35,10.84,6.49s8.05,3.63,12.05,2.3a15.09,15.09,0,0,1-15.63,7.12,37.84,37.84,0,0,0,20.69,6.75,13.72,13.72,0,0,1-17.42,2.12,38.23,38.23,0,0,0,13.09,13.12c.91.55,2,1.27,1.93,2.32s-1.19,1.74-2.21,2.07a17.68,17.68,0,0,1-17.47-4c-4.85-4.7-8.66-10.06-13.26-15-2.19-2.35-8.09-5.89-11.79-5-3.08.74-8.62,3.38-9.29,6.48" style="fill:#263238"></path><path d="M259.12,124c0-.07-.66,0-1.81-.17a15.88,15.88,0,0,1-4.67-1.47c-1.9-.86-4-2.23-6.46-3.56a21,21,0,0,0-4.09-1.7,12.19,12.19,0,0,0-4.8-.38,15.59,15.59,0,0,0-8.28,3.89,22.7,22.7,0,0,0-4.65,5.84,36.5,36.5,0,0,0-2.17,4.51,8.26,8.26,0,0,0-.58,1.75c.15.06,1.07-2.4,3.24-6a23.54,23.54,0,0,1,4.64-5.58,15.24,15.24,0,0,1,7.9-3.64,14.24,14.24,0,0,1,8.45,1.94c2.45,1.26,4.6,2.6,6.57,3.42a14.33,14.33,0,0,0,4.87,1.26A4.58,4.58,0,0,0,259.12,124Z" style="fill:#455a64"></path><path d="M252.81,137.11c.07-.11-1.62-1.25-4-3.53-1.22-1.12-2.62-2.51-4.34-3.9a17.46,17.46,0,0,0-6.35-3.45,14.29,14.29,0,0,0-7.23,0,13.92,13.92,0,0,0-5.28,2.66,13,13,0,0,0-2.67,2.93,3.78,3.78,0,0,0-.66,1.3,22.14,22.14,0,0,1,3.68-3.78,13.78,13.78,0,0,1,12-2.28,17.15,17.15,0,0,1,6.1,3.25c1.71,1.33,3.15,2.67,4.42,3.75a30.34,30.34,0,0,0,3.12,2.4A4.72,4.72,0,0,0,252.81,137.11Z" style="fill:#455a64"></path><path d="M210.57,147.27a22.56,22.56,0,0,0,.55-3,17.91,17.91,0,0,1,2.54-6.58,12.1,12.1,0,0,1,5.34-4.42c1.68-.69,2.85-.7,2.84-.84a5.18,5.18,0,0,0-3,.31A11.38,11.38,0,0,0,213,137.3a15.82,15.82,0,0,0-2.44,6.93A7.74,7.74,0,0,0,210.57,147.27Z" style="fill:#455a64"></path><path d="M266.93,154.71a3.27,3.27,0,0,0,.55,0,14.41,14.41,0,0,0,1.6-.25,15.71,15.71,0,0,0,5.66-2.46,8.14,8.14,0,0,0,3-3.27,2.51,2.51,0,0,0-.33-2.6,3.8,3.8,0,0,0-2.6-1.11c-1-.1-1.92,0-2.88-.09a18.15,18.15,0,0,1-3-.42,17.47,17.47,0,0,1-5.89-2.6l-.27.6a10.35,10.35,0,0,0,11.1-4.82l.25-.45-.51-.09a23.24,23.24,0,0,1-10.11-4.69l-.29.69a14.18,14.18,0,0,0,12.9-6l.33-.49.36-.55-.67-.06a13.35,13.35,0,0,1-6.26-2.44,45.47,45.47,0,0,1-5.15-4.32,35.39,35.39,0,0,0-5.16-4.13,27.81,27.81,0,0,0-5.71-2.77,27.44,27.44,0,0,0-21.35,1.23,27.85,27.85,0,0,0-10.85,9.71,19.06,19.06,0,0,0-2.39,4.81,41.74,41.74,0,0,1,2.65-4.63,28,28,0,0,1,10.84-9.38,26,26,0,0,1,9.58-2.58,27.48,27.48,0,0,1,11.27,1.54,28.64,28.64,0,0,1,10.59,6.77,45.38,45.38,0,0,0,5.24,4.41,14.15,14.15,0,0,0,6.63,2.58l-.31-.61c-.09.15-.2.3-.3.46a13.44,13.44,0,0,1-12.16,5.7l-1.32-.14,1,.83a23.77,23.77,0,0,0,10.46,4.8l-.25-.54A9.66,9.66,0,0,1,263,141.85l-1.8-.43,1.53,1a18,18,0,0,0,6.13,2.63,18.48,18.48,0,0,0,3.08.41c1,0,2,0,2.86.06a3.27,3.27,0,0,1,2.26.89,2,2,0,0,1,.29,2.11,7.78,7.78,0,0,1-2.83,3.13,16.49,16.49,0,0,1-5.48,2.58C267.68,154.61,266.92,154.66,266.93,154.71Z" style="fill:#455a64"></path><path d="M227.15,174.63a2.67,2.67,0,0,0,3,2.13,2.55,2.55,0,0,0,2.21-2.91,2.66,2.66,0,0,0-3-2.12A2.54,2.54,0,0,0,227.15,174.63Z" style="fill:#263238"></path><path d="M223.13,165.83c.39.28,2.07-1.59,4.88-2.15s5.16.42,5.39,0c.12-.18-.33-.73-1.36-1.2a7.27,7.27,0,0,0-4.4-.43,7,7,0,0,0-3.81,2.14C223.1,165,222.94,165.71,223.13,165.83Z" style="fill:#263238"></path><path d="M251.49,170.72a2.67,2.67,0,0,0,3,2.13,2.55,2.55,0,0,0,2.22-2.9,2.68,2.68,0,0,0-3.06-2.13A2.55,2.55,0,0,0,251.49,170.72Z" style="fill:#263238"></path><path d="M250.81,160.88c.39.28,2.08-1.59,4.89-2.15s5.16.42,5.39,0c.12-.19-.33-.74-1.37-1.21a7.34,7.34,0,0,0-4.4-.43,7,7,0,0,0-3.8,2.14C250.79,160.09,250.62,160.76,250.81,160.88Z" style="fill:#263238"></path><path d="M260.71,149.3c-.32-.76-3.16-.25-6.54-.48s-6.15-1-6.56-.3c-.18.35.33,1.06,1.46,1.76a11,11,0,0,0,4.92,1.44,10.9,10.9,0,0,0,5.06-.85C260.26,150.31,260.85,149.67,260.71,149.3Z" style="fill:#263238"></path><path d="M221.32,157.59c.7.53,2.87-.56,5.63-1.11s5.18-.53,5.59-1.3c.17-.37-.31-.94-1.45-1.36a9,9,0,0,0-4.78-.18,8.81,8.81,0,0,0-4.26,2.13C221.2,156.61,221,157.33,221.32,157.59Z" style="fill:#263238"></path><path d="M249.08,194.8c.44.09.84-2.82,3.61-4.54s5.82-1,5.89-1.38c.07-.17-.61-.66-1.91-.87a7.26,7.26,0,0,0-4.9,1,6.31,6.31,0,0,0-2.83,3.83C248.66,194,248.88,194.79,249.08,194.8Z" style="fill:#263238"></path><path d="M187.14,196.33c-.65.87-17.3,29.63-17.3,29.63s-16.09,30-18.76,38c-3.9,11.68-5.11,29.15,6.71,36.12,7,4.11,13.21,4.56,28.42-1.31A93.29,93.29,0,0,0,212.39,283l.1-50.71-19.07,17.52L205.12,204Z" style="fill:#ffbf9d"></path><path d="M179.94,208.76l7.21-14.67s16.88-30.31,17.9-31.53,6.45-13.87,6.45-13.87l7.6-9.09s3.57.53,1.31,5.15l-3.23,6.15L229,139s3.51.41,2.14,4.13c-1,2.77-4.63,7.06-4.63,7.06L237.18,141s4.42.68,2.3,5.32C238.1,149.3,225.7,163,225.7,163s6.18-3.82,8.14-5.09,4-4,5.41-3.77,4,2.5.21,6.76S225.13,172,223.59,172.82l-1.54.85s-1.83,4.74-4.42,7c0,0-4.24,13.45-6.38,17.15a18.42,18.42,0,0,1-6.13,6.16l-4.81,18.82" style="fill:#ffbf9d"></path><path d="M200.31,222.83a2.85,2.85,0,0,1,.06-.33c0-.22.13-.53.22-.94l.9-3.67L205,204l0-.06.05,0a17.73,17.73,0,0,0,7.52-9.29c1.68-4.2,3.26-8.89,4.88-14v0l0,0a20,20,0,0,0,4.35-7l0-.07.07,0a51,51,0,0,0,4.41-2.65q2.2-1.44,4.42-3c1.48-1.06,3-2.16,4.43-3.33a33.09,33.09,0,0,0,4.18-3.86,8.47,8.47,0,0,0,1.51-2.39,3,3,0,0,0-.06-2.66,2.68,2.68,0,0,0-1-.94,2.52,2.52,0,0,0-.63-.23,1.13,1.13,0,0,0-.62.07,8.87,8.87,0,0,0-2.35,1.75,17.29,17.29,0,0,1-2.41,2l-2.64,1.66-5.38,3.36-1.52.95,1.2-1.33c3.05-3.4,6.15-6.92,9.2-10.59a54.45,54.45,0,0,0,4.34-5.72,4.63,4.63,0,0,0,.62-3.31,3.13,3.13,0,0,0-2.53-2l.21-.06-3,2.63-7.61,6.6-.37-.36a37.63,37.63,0,0,0,4-5.73,7.81,7.81,0,0,0,.67-1.55,3.37,3.37,0,0,0,.17-1.59,2,2,0,0,0-.75-1.3,3.23,3.23,0,0,0-1.44-.61l.21-.07-11.86,11.89-1.16,1.16.77-1.45,3.13-5.95a6,6,0,0,0,.81-3,2.17,2.17,0,0,0-1.83-2l.22-.09-7.61,9.08,0-.05c-1,2.33-2,4.61-3,6.83s-2,4.39-3.09,6.45c-1.29,1.95-2.37,3.91-3.48,5.81s-2.15,3.77-3.18,5.56c-4.06,7.21-7.61,13.49-10.53,18.67L187.35,194c-.33.62-.62,1.24-.92,1.83l-1.65,3.33-2.62,5.26c-.71,1.41-1.26,2.5-1.63,3.25l-.43.83c-.1.18-.16.27-.16.27s0-.1.13-.29l.39-.84c.37-.76.89-1.86,1.58-3.29s1.55-3.2,2.56-5.28l1.62-3.35c.3-.59.58-1.21.91-1.84l1.05-1.9c2.9-5.19,6.41-11.5,10.44-18.72q1.53-2.7,3.16-5.57c1.1-1.9,2.19-3.9,3.46-5.82,1.09-2,2-4.21,3.06-6.42s2-4.51,3-6.84l0,0,0,0,7.59-9.09.09-.11.13,0a2.94,2.94,0,0,1,1.54.82,2.57,2.57,0,0,1,.7,1.6,6.47,6.47,0,0,1-.86,3.27l-3.12,6-.4-.29,11.85-11.9.09-.09h.12a3.72,3.72,0,0,1,1.7.72,2.53,2.53,0,0,1,.94,1.61,3.88,3.88,0,0,1-.19,1.83,8.61,8.61,0,0,1-.7,1.65,38.64,38.64,0,0,1-4.07,5.81l-.37-.36,7.6-6.61,3-2.63.09-.08.12,0a4.52,4.52,0,0,1,1.8.77,3,3,0,0,1,1.15,1.6,3.55,3.55,0,0,1,0,1.94,4.79,4.79,0,0,1-.28.91,5.13,5.13,0,0,1-.4.86,54.43,54.43,0,0,1-4.39,5.8c-3.06,3.68-6.17,7.2-9.22,10.6l-.32-.39,5.37-3.35c.88-.56,1.77-1.11,2.64-1.65a17.85,17.85,0,0,0,2.35-1.93,9.23,9.23,0,0,1,2.52-1.85,1.8,1.8,0,0,1,.87-.09,2.55,2.55,0,0,1,.77.29,3,3,0,0,1,1.16,1.12,3.46,3.46,0,0,1,.1,3.07,9.06,9.06,0,0,1-1.6,2.53,33.75,33.75,0,0,1-4.25,3.9c-1.48,1.19-3,2.29-4.46,3.34s-3,2.06-4.44,3-3,1.87-4.45,2.65l.09-.11a27,27,0,0,1-1.93,3.88,14.51,14.51,0,0,1-2.54,3.23l0-.09c-1.64,5.07-3.23,9.76-4.94,14a31.11,31.11,0,0,1-1.4,3,15.78,15.78,0,0,1-1.84,2.6,19.28,19.28,0,0,1-4.46,3.77l.07-.09c-1.56,6-2.78,10.67-3.62,13.89l-1,3.65c-.11.4-.19.71-.26.93Z" style="fill:#ff9a6c"></path><path d="M228.25,148.25a5.3,5.3,0,0,1-.65.83c-.43.52-1.08,1.26-1.89,2.16-1.62,1.8-3.91,4.24-6.61,6.77a72.42,72.42,0,0,1-6,5.07l0,0h0a12.44,12.44,0,0,0-3.61,1.7c-.79.55-1.19.93-1.21.9s.08-.11.27-.29a8.12,8.12,0,0,1,.86-.72,11.49,11.49,0,0,1,3.62-1.82l0,0c1.72-1.34,3.78-3.1,5.91-5.1,2.69-2.52,5-4.94,6.66-6.7.81-.85,1.47-1.56,2-2.09A9.26,9.26,0,0,1,228.25,148.25Z" style="fill:#ff9a6c"></path><path d="M228.25,148.25s-.36.44-1.05,1.22-1.7,1.9-3,3.25l-4.7,4.8a80.27,80.27,0,0,1-6.33,5.57l-.27-.43,0,0,.18.47a11.53,11.53,0,0,0-2.45,1.07,10.47,10.47,0,0,0-2.15,1.65.15.15,0,0,0,0-.08.3.3,0,0,0-.06-.23.16.16,0,0,0-.08-.05.21.21,0,0,0-.19,0h0l0,0,.06,0,.14-.11.28-.23.58-.42a12.14,12.14,0,0,1,1.22-.75,12.71,12.71,0,0,1,2.58-1.05l-.08,0a95.81,95.81,0,0,0,11.18-10.18c1.32-1.36,2.32-2.5,3-3.27l1.08-1.19a5.14,5.14,0,0,1-.95,1.31c-.67.8-1.63,2-2.92,3.38a86.44,86.44,0,0,1-11.12,10.36l0,0h0a12.46,12.46,0,0,0-2.47,1q-.6.33-1.17.72l-.56.42-.28.21-.14.11-.07.06-.06,0-.07,0a.24.24,0,0,1-.2,0,.16.16,0,0,1-.08-.05.27.27,0,0,1-.07-.23.84.84,0,0,1,0-.1,11.12,11.12,0,0,1,4.9-2.93l.19.47,0,0-.27-.42c2.38-1.86,4.51-3.73,6.35-5.49l4.76-4.71C226.65,149.86,228.15,148.15,228.25,148.25Z" style="fill:#ff9a6c"></path><path d="M217.76,150.18a10.68,10.68,0,0,1-1.11,1.4c-.73.84-1.76,2-2.93,3.19l-3,3.11a11.49,11.49,0,0,1-1.29,1.25,9.61,9.61,0,0,1,1.13-1.4c.73-.83,1.77-1.95,2.94-3.17s2.16-2.26,3-3.12A11.2,11.2,0,0,1,217.76,150.18Z" style="fill:#ff9a6c"></path><path d="M217.76,150.18s-.88,1-2.38,2.68l-2.63,2.86-1.54,1.69c-.27.29-.55.59-.81.9l-.4.47-.19.24-.09.12,0,.06h0v0a.24.24,0,0,0-.09-.22.22.22,0,0,0-.23-.05h-.05l0,0,0,0,.11-.1.22-.22.43-.43.85-.87,1.61-1.64c1-1,1.92-2,2.69-2.81s1.4-1.43,1.81-1.89l.65-.7a11.19,11.19,0,0,1-2.19,2.84c-.73.83-1.6,1.84-2.61,2.89l-1.59,1.66-.85.88-.44.44-.22.23-.13.11-.07.06,0,0-.06,0h0a.28.28,0,0,1-.25,0,.3.3,0,0,1-.1-.25c0-.08,0,0,0-.06l0-.06,0-.05.05-.07.1-.13.2-.26.4-.47c.27-.32.55-.62.82-.91l1.58-1.68c1-1.07,1.94-2,2.72-2.79A14.58,14.58,0,0,1,217.76,150.18Z" style="fill:#ff9a6c"></path><path d="M213.22,169A52.72,52.72,0,0,0,226,162.83" style="fill:#ffbf9d"></path><path d="M226,162.83a6.88,6.88,0,0,1-1.66,1.28,37.88,37.88,0,0,1-4.4,2.49,38.26,38.26,0,0,1-4.67,1.92,7,7,0,0,1-2,.52c-.05-.15,3-1.19,6.48-2.91S225.89,162.7,226,162.83Z" style="fill:#ff9a6c"></path><path d="M226,162.83s-.14.15-.44.36-.72.51-1.26.86a45.94,45.94,0,0,1-4.4,2.45,42.34,42.34,0,0,1-4.66,1.95c-.61.21-1.1.37-1.45.47a1.84,1.84,0,0,1-.55.12,18.9,18.9,0,0,1,1.93-.79c1.19-.48,2.83-1.16,4.59-2s3.31-1.72,4.43-2.37A20.08,20.08,0,0,1,226,162.83Z" style="fill:#ff9a6c"></path><path d="M226,162.83a33.46,33.46,0,0,1-3.56,2.18,40.23,40.23,0,0,1-4,2.08l-2.45,1.09c-.42.19-.86.38-1.31.55L214,169l-.33.13-.16.07-.07,0s0,0,0,0a.23.23,0,0,0,.08-.21.26.26,0,0,0-.11-.18l-.09,0h-.05a37.16,37.16,0,0,0,5.13-1.85c1.56-.67,2.92-1.37,4-2s2-1.16,2.62-1.54.95-.59.95-.59-.25.33-.84.75a25.16,25.16,0,0,1-2.55,1.7,39.75,39.75,0,0,1-4,2.1,33.39,33.39,0,0,1-5.29,1.93h-.09s0,0-.1,0a.26.26,0,0,1-.12-.19.29.29,0,0,1,.09-.23l.09-.06.1-.05.18-.08.34-.14.67-.26c.45-.17.89-.35,1.31-.54l2.44-1.06c1.59-.62,2.91-1.4,4.06-2A34.64,34.64,0,0,1,226,162.83Z" style="fill:#ff9a6c"></path><path d="M343.21,235.91s16,7.94,21.8,34.44C368.67,287,375.23,314,375.23,314l-41.69,6.58s-6.56-39.48-5.8-40.28S343.21,235.91,343.21,235.91Z" style="fill:#FF725E"></path><path d="M212.49,232.24l39.14-6.83s3.19,19.63,24.21,16c21.61-3.73,19.88-21.36,19.88-21.36s36,10.29,43,13.41a31,31,0,0,1,10.81,7.95s-12.81,49.71-13.21,50.34-1.43,75-1.83,102.58c2.68,5,3.42,10.76,2.57,17l-121.65,2.58L211.5,288.74,195.26,297l-8.39-23.88,7.54-28Z" style="fill:#FF725E"></path><path d="M238.23,325.59l.17-.09.49-.25,1.93-.92,7.09-3.38c6-2.87,14.23-6.88,23.26-11.46s17.14-8.86,23-12l6.92-3.72,1.88-1,.49-.25c.12-.06.17-.09.18-.08l-.16.1-.48.29-1.86,1.05c-1.61.92-4,2.22-6.87,3.81-5.82,3.19-13.92,7.5-22.95,12.08S254,318.33,248,321.14c-3,1.41-5.45,2.53-7.14,3.3l-2,.87-.51.22Q238.23,325.61,238.23,325.59Z" style="fill:#263238"></path><path d="M337.75,272.32a2.22,2.22,0,0,1,0,.42c0,.31-.08.71-.14,1.2-.16,1.1-.37,2.62-.63,4.51-.58,3.92-1.39,9.39-2.33,15.81v0c0,4.53.06,9.55.1,14.83,0,10.19,0,19.41.07,26.16,0,3.3,0,6,0,7.93l0,2.15a4.41,4.41,0,0,1,0,.75,3.7,3.7,0,0,1-.06-.75c0-.54,0-1.26-.06-2.15,0-1.93-.07-4.63-.12-7.93-.06-6.74-.14-16-.22-26.16,0-5.28,0-10.3-.06-14.83v0h0c1-6.41,1.9-11.87,2.53-15.78.32-1.88.57-3.4.76-4.49.09-.49.16-.88.22-1.19A1.82,1.82,0,0,1,337.75,272.32Z" style="fill:#263238"></path><path d="M208.12,251.64a9.17,9.17,0,0,1,.43,1.62c.24,1.06.55,2.59.9,4.5.7,3.8,1.51,9.09,2.08,15s.8,11.23.84,15.1c0,1.94,0,3.5,0,4.58a11.17,11.17,0,0,1-.1,1.68,9.69,9.69,0,0,1-.1-1.68c0-1.16-.09-2.71-.15-4.57-.13-3.86-.42-9.19-1-15.06s-1.32-11.15-1.93-15c-.31-1.84-.55-3.36-.74-4.52A11.5,11.5,0,0,1,208.12,251.64Z" style="fill:#263238"></path><path d="M196,239.59c.14,0-2.57,10.12-6.06,22.51s-6.42,22.41-6.56,22.38S186,274.36,189.46,262,195.88,239.55,196,239.59Z" style="fill:#ff9a6c"></path><path d="M190.09,368.62s8.59-26.89,38.79-7.78c31,19.58,51.48,106.74,51.48,106.74H200.69c0-26.31-28-96.69-36.76-99.16Z" style="fill:#e0e0e0"></path><path d="M212.49,354l-58.76-1s-25.7.35-25.7,33.55c0,43,15.07,57.68-24.94,82.22l64.57,5.32s30.55-1.93,30.52-37.75c0-16.35-1.36-47.64-2.73-61.62C194.46,364.55,202.67,354.67,212.49,354Z" style="fill:#fff"></path><path d="M212.49,354l-.68.1a16.08,16.08,0,0,0-2.05.4,18.35,18.35,0,0,0-7.06,3.66,21.51,21.51,0,0,0-3.89,4.32,19.64,19.64,0,0,0-2.79,6.36c-.17.6-.23,1.24-.35,1.88s-.1,1.3-.16,2,.05,1.35.08,2.05.12,1.4.19,2.12c.26,2.87.49,5.92.7,9.13.83,12.85,1.58,28.35,1.88,45.9a73.26,73.26,0,0,1-.68,13.54,42.92,42.92,0,0,1-1.75,6.84,32.67,32.67,0,0,1-3.09,6.56,31.53,31.53,0,0,1-10.51,10.51,34.57,34.57,0,0,1-7,3.29,32.88,32.88,0,0,1-7.67,1.74h0l-59.43-4.87-5.14-.43-.78-.06.66-.42c2.93-1.84,5.83-3.68,8.56-5.72a69.65,69.65,0,0,0,7.77-6.5,42.28,42.28,0,0,0,6.31-7.68,31,31,0,0,0,3.82-8.95c1.58-6.31,1.22-12.78.73-19s-1.26-12.32-1.7-18.29-.69-11.79-.6-17.46c0-1.42.15-2.83.25-4.22s.33-2.77.62-4.12a37.06,37.06,0,0,1,2.37-7.77,26.7,26.7,0,0,1,9.76-11.73,27.26,27.26,0,0,1,6.56-3.1,23.05,23.05,0,0,1,6.85-1.19L212.49,354l-58.24-.77a22.77,22.77,0,0,0-6.73,1.19,26.94,26.94,0,0,0-6.47,3.07A26.24,26.24,0,0,0,131.48,369a35.62,35.62,0,0,0-2.33,7.68c-.29,1.34-.43,2.71-.61,4.08s-.24,2.78-.24,4.19c-.09,5.64.15,11.46.62,17.41s1.17,12,1.71,18.29.87,12.74-.73,19.15a31.32,31.32,0,0,1-3.88,9.1,42.3,42.3,0,0,1-6.38,7.78,69.56,69.56,0,0,1-7.83,6.54c-2.74,2.06-5.65,3.91-8.59,5.75l-.11-.48,5.15.43,59.42,4.9h0a33.35,33.35,0,0,0,7.55-1.71,34.45,34.45,0,0,0,6.89-3.24,31.19,31.19,0,0,0,10.37-10.35,32,32,0,0,0,3-6.46,41.59,41.59,0,0,0,1.75-6.77,72.11,72.11,0,0,0,.69-13.45c-.26-17.54-1-33-1.76-45.89-.2-3.21-.42-6.26-.67-9.13l-.18-2.12c0-.7-.08-1.39-.07-2.07s.06-1.35.16-2,.2-1.3.37-1.91a19.72,19.72,0,0,1,2.86-6.41,21.56,21.56,0,0,1,4-4.34,18.05,18.05,0,0,1,7.15-3.61,11,11,0,0,1,2-.34Z" style="fill:#263238"></path><path d="M74.86,453S73.21,472.92,98,474.11s69.68,0,69.68,0-15.6-2.82-15.6-19.78Z" style="fill:#e0e0e0"></path><path d="M74.86,453h1.46l4.28,0,16.07.2,55.4.82h.24v.25a19.14,19.14,0,0,0,15.4,19.52l2,.46-2,.06h-.15c-14.46.35-28.24.52-40.77.5-6.27,0-12.22-.06-17.79-.19-2.79-.08-5.48-.13-8.07-.26a62.48,62.48,0,0,1-7.43-.59,24.61,24.61,0,0,1-11.74-4.9,18.25,18.25,0,0,1-5.6-7.81,21.07,21.07,0,0,1-1.28-6c0-.69,0-1.23,0-1.59s0-.54,0-.54,0,.19,0,.54,0,.89.08,1.59a20.83,20.83,0,0,0,1.36,5.9,18.15,18.15,0,0,0,5.59,7.65,24.47,24.47,0,0,0,11.62,4.76,61.28,61.28,0,0,0,7.39.56c2.58.11,5.27.16,8.06.23,5.56.11,11.52.14,17.78.14,12.53,0,26.3-.19,40.76-.54h.14l0,.51a21.46,21.46,0,0,1-6.61-2.72,18.8,18.8,0,0,1-5.21-4.67,20.71,20.71,0,0,1-4-12.64l.25.25-55.23-1.05-16.12-.34-4.33-.11-1.13,0Z" style="fill:#263238"></path><path d="M182.86,378c0,.28-5.61.52-12.53.52s-12.54-.24-12.54-.52,5.61-.53,12.54-.53S182.86,377.7,182.86,378Z" style="fill:#263238"></path><path d="M139.51,378.07c0-.29,1.57-.53,3.5-.53s3.5.24,3.5.53-1.57.52-3.5.52S139.51,378.35,139.51,378.07Z" style="fill:#263238"></path><path d="M184.41,368.84c0,.28-5.61.52-12.53.52s-12.54-.24-12.54-.52,5.61-.52,12.54-.52S184.41,368.55,184.41,368.84Z" style="fill:#263238"></path><path d="M141.06,368.92c0-.29,1.57-.52,3.5-.52s3.5.23,3.5.52-1.57.52-3.5.52S141.06,369.2,141.06,368.92Z" style="fill:#263238"></path><path d="M189.46,360.57c0,.29-5.61.52-12.54.52s-12.53-.23-12.53-.52,5.61-.52,12.53-.52S189.46,360.28,189.46,360.57Z" style="fill:#263238"></path><path d="M146.11,360.65c0-.29,1.56-.52,3.5-.52s3.49.23,3.49.52-1.56.52-3.49.52S146.11,360.94,146.11,360.65Z" style="fill:#263238"></path><path d="M182.86,388c0,.29-5.61.52-12.53.52s-12.54-.23-12.54-.52,5.61-.52,12.54-.52S182.86,387.69,182.86,388Z" style="fill:#263238"></path><path d="M139.51,388.06c0-.29,1.57-.52,3.5-.52s3.5.23,3.5.52-1.57.52-3.5.52S139.51,388.34,139.51,388.06Z" style="fill:#263238"></path><path d="M184.13,397.78c0,.28-5.62.52-12.54.52s-12.53-.24-12.53-.52,5.61-.52,12.53-.52S184.13,397.49,184.13,397.78Z" style="fill:#263238"></path><path d="M140.78,397.86c0-.29,1.56-.53,3.49-.53s3.5.24,3.5.53-1.56.52-3.5.52S140.78,398.14,140.78,397.86Z" style="fill:#263238"></path><path d="M184.53,406.24c0,.29-5.62.52-12.54.52s-12.54-.23-12.54-.52,5.62-.52,12.54-.52S184.53,406,184.53,406.24Z" style="fill:#263238"></path><path d="M141.17,406.32c0-.29,1.57-.52,3.5-.52s3.5.23,3.5.52-1.57.52-3.5.52S141.17,406.6,141.17,406.32Z" style="fill:#263238"></path><path d="M184.92,414.7c0,.29-5.61.52-12.53.52s-12.54-.23-12.54-.52,5.61-.52,12.54-.52S184.92,414.41,184.92,414.7Z" style="fill:#263238"></path><path d="M141.57,414.78c0-.29,1.57-.52,3.5-.52s3.5.23,3.5.52-1.57.52-3.5.52S141.57,415.07,141.57,414.78Z" style="fill:#263238"></path><path d="M185.32,423.16c0,.29-5.61.52-12.53.52s-12.54-.23-12.54-.52,5.61-.52,12.54-.52S185.32,422.87,185.32,423.16Z" style="fill:#263238"></path><path d="M142,423.24c0-.29,1.57-.52,3.5-.52s3.5.23,3.5.52-1.57.52-3.5.52S142,423.53,142,423.24Z" style="fill:#263238"></path><path d="M185.47,431.39c0,.29-5.62.52-12.54.52s-12.54-.23-12.54-.52,5.62-.52,12.54-.52S185.47,431.1,185.47,431.39Z" style="fill:#263238"></path><path d="M142.12,431.47c0-.29,1.56-.52,3.49-.52s3.5.23,3.5.52-1.56.52-3.5.52S142.12,431.76,142.12,431.47Z" style="fill:#263238"></path><path d="M184.13,439.58c0,.28-5.62.52-12.54.52s-12.53-.24-12.53-.52,5.61-.52,12.53-.52S184.13,439.29,184.13,439.58Z" style="fill:#263238"></path><path d="M140.78,439.66c0-.29,1.56-.52,3.49-.52s3.5.23,3.5.52-1.56.52-3.5.52S140.78,439.94,140.78,439.66Z" style="fill:#263238"></path><path d="M180.91,448.27c0,.29-5.61.52-12.53.52s-12.54-.23-12.54-.52,5.61-.52,12.54-.52S180.91,448,180.91,448.27Z" style="fill:#263238"></path><path d="M137.56,448.35c0-.29,1.57-.52,3.5-.52s3.5.23,3.5.52-1.57.52-3.5.52S137.56,448.64,137.56,448.35Z" style="fill:#263238"></path><path d="M178.49,456.19c0,.29-5.61.52-12.54.52s-12.53-.23-12.53-.52,5.61-.52,12.53-.52S178.49,455.9,178.49,456.19Z" style="fill:#263238"></path><path d="M286.52,366.57,334.66,346l-.14-25.43L369,315.15s1.47,48.47-4.66,56.81c-7.68,10.46-70.85,11.74-70.85,11.74Z" style="fill:#ffbf9d"></path><path d="M334.24,346.34a27,27,0,0,1,15.87,6" style="fill:#ffbf9d"></path><path d="M350.11,352.29a33.07,33.07,0,0,0-15.87-6,8.7,8.7,0,0,1,2.54,0,24.64,24.64,0,0,1,11.39,4.27A8.73,8.73,0,0,1,350.11,352.29Z" style="fill:#ff9a6c"></path><path d="M280.05,366.57c-.69.23-16.39.7-21.24,1.16s-17.09,5.41-17.09,5.41l2.73,4s-1.8,1.1-8,.95c-7.16-.18-15.7-.24-14.77,5.31,0,0-4.53,1.84-.07,5.31l4.22,1.38s.69,3,8.08,4.62c0,0-2.54,1.61,5.31,3.23s19.39,3.92,29.09,1.38,27.47-15.82,27.47-15.82l-9.23-17Z" style="fill:#ffbf9d"></path><path d="M260.23,374.28a14.32,14.32,0,0,1-2.53.39c-1.56.2-3.71.51-6.07,1s-4.47,1-6,1.38a14.9,14.9,0,0,1-2.49.58,11.52,11.52,0,0,1,2.39-.94,51.65,51.65,0,0,1,6-1.53,52.57,52.57,0,0,1,6.14-.82A10.93,10.93,0,0,1,260.23,374.28Z" style="fill:#ff9a6c"></path><path d="M256.07,383.47a6.43,6.43,0,0,1-1.35.26c-.87.14-2.14.31-3.71.48-3.13.34-7.49.65-12.31.69s-9.18-.22-12.32-.52c-1.57-.15-2.84-.29-3.71-.42a6,6,0,0,1-1.35-.25,8.32,8.32,0,0,1,1.37.05l3.72.25c3.14.21,7.49.4,12.29.37s9.14-.29,12.28-.54l3.72-.31A6.76,6.76,0,0,1,256.07,383.47Z" style="fill:#ff9a6c"></path><path d="M257.61,390.56a6.13,6.13,0,0,1-1.24.27c-.81.14-2,.31-3.43.47a87.76,87.76,0,0,1-11.42.53,88.67,88.67,0,0,1-11.4-.93c-1.45-.21-2.61-.42-3.41-.59a7.26,7.26,0,0,1-1.24-.31,5.23,5.23,0,0,1,1.27.11l3.43.43c2.89.34,6.91.69,11.36.77s8.47-.13,11.37-.37l3.44-.31A5.53,5.53,0,0,1,257.61,390.56Z" style="fill:#ff9a6c"></path><path d="M256.07,395.39a2.67,2.67,0,0,1-.88.21c-.57.1-1.4.21-2.43.31a55.69,55.69,0,0,1-16.16-.8c-1-.2-1.84-.39-2.39-.55a2.75,2.75,0,0,1-.86-.29,30.6,30.6,0,0,1,3.31.48,78.5,78.5,0,0,0,8,.83,77.71,77.71,0,0,0,8,0A30,30,0,0,1,256.07,395.39Z" style="fill:#ff9a6c"></path></g></svg>
